<svg width="121" height="83" viewBox="0 0 121 83" fill="none" xmlns="http://www.w3.org/2000/svg">
<rect x="0.848633" y="43.7446" width="120" height="38.2847" fill="#F69709" fill-opacity="0.2"/>
<path d="M42.3018 82.0309L25.3963 51.3462H20.6488V82.0309H0.848511V0.745361H34.0807C40.4878 0.745361 45.93 1.86468 50.4072 4.10331C54.9617 6.34195 58.3583 9.42972 60.5969 13.3666C62.8355 17.2263 63.9548 21.5492 63.9548 26.3353C63.9548 31.7389 62.411 36.5635 59.3232 40.8092C56.3126 45.0549 51.8353 48.0655 45.8914 49.8409L64.6496 82.0309H42.3018ZM20.6488 37.3355H32.9227C36.5509 37.3355 39.2527 36.4477 41.0281 34.6723C42.8808 32.8968 43.8071 30.388 43.8071 27.1458C43.8071 24.058 42.8808 21.6264 41.0281 19.8509C39.2527 18.0755 36.5509 17.1877 32.9227 17.1877H20.6488V37.3355Z" fill="#F9B753"/>
<path d="M85.8792 65.8201H120.848V82.0309H63.4157V66.9781L98.1531 16.9562H63.4157V0.745361H120.848V15.7982L85.8792 65.8201Z" fill="#F9B753"/>
<rect x="120.848" y="66.9036" width="15.1273" height="57.4024" transform="rotate(90 120.848 66.9036)" fill="url(#paint0_linear_754_82)"/>
<rect x="20.6514" y="82.0309" width="19.8029" height="81.284" transform="rotate(-180 20.6514 82.0309)" fill="url(#paint1_linear_754_82)"/>
<defs>
<linearGradient id="paint0_linear_754_82" x1="128.412" y1="66.9036" x2="128.412" y2="124.306" gradientUnits="userSpaceOnUse">
<stop offset="0.473958" stop-color="#F69709" stop-opacity="0"/>
<stop offset="1" stop-color="#E98C00"/>
</linearGradient>
<linearGradient id="paint1_linear_754_82" x1="30.5528" y1="82.0309" x2="30.5528" y2="163.315" gradientUnits="userSpaceOnUse">
<stop offset="0.453125" stop-color="#F49600" stop-opacity="0"/>
<stop offset="1" stop-color="#E98C00"/>
</linearGradient>
</defs>
</svg>
