<svg width="51" height="34" viewBox="0 0 51 34" fill="none" xmlns="http://www.w3.org/2000/svg">
<rect x="0.915955" y="18.0378" width="49.7446" height="15.8705" fill="#F69709" fill-opacity="0.2"/>
<path d="M18.0999 33.909L11.0919 21.189H9.12389V33.909H0.915894V0.213013H14.6919C17.3479 0.213013 19.6039 0.677013 21.4599 1.60501C23.3479 2.53301 24.7559 3.81301 25.6839 5.44501C26.6119 7.04501 27.0759 8.83701 27.0759 10.821C27.0759 13.061 26.4359 15.061 25.1559 16.821C23.9079 18.581 22.0519 19.829 19.5879 20.565L27.3639 33.909H18.0999ZM9.12389 15.381H14.2119C15.7159 15.381 16.8359 15.013 17.5719 14.277C18.3399 13.541 18.7239 12.501 18.7239 11.157C18.7239 9.87701 18.3399 8.86901 17.5719 8.13301C16.8359 7.39701 15.7159 7.02901 14.2119 7.02901H9.12389V15.381Z" fill="#F9B753"/>
<path d="M36.1644 27.189H50.6604V33.909H26.8524V27.669L41.2524 6.93301H26.8524V0.213013L50.6604 0.213013V6.45301L36.1644 27.189Z" fill="#F9B753"/>
<rect x="50.6604" y="27.6381" width="6.27083" height="23.7955" transform="rotate(90 50.6604 27.6381)" fill="url(#paint0_linear_754_82)"/>
<rect x="9.12494" y="33.909" width="8.20907" height="33.6954" transform="rotate(-180 9.12494 33.909)" fill="url(#paint1_linear_754_82)"/>
<defs>
<linearGradient id="paint0_linear_754_82" x1="53.7958" y1="27.6381" x2="53.7958" y2="51.4336" gradientUnits="userSpaceOnUse">
<stop offset="0.473958" stop-color="#F69709" stop-opacity="0"/>
<stop offset="1" stop-color="#E98C00"/>
</linearGradient>
<linearGradient id="paint1_linear_754_82" x1="13.2295" y1="33.909" x2="13.2295" y2="67.6044" gradientUnits="userSpaceOnUse">
<stop offset="0.453125" stop-color="#F49600" stop-opacity="0"/>
<stop offset="1" stop-color="#E98C00"/>
</linearGradient>
</defs>
</svg>
