<svg width="81" height="55" viewBox="0 0 81 55" fill="none" xmlns="http://www.w3.org/2000/svg">
<rect x="0.848572" y="29.4116" width="79.9999" height="25.5231" fill="#F69709" fill-opacity="0.2"/>
<path d="M28.4841 54.9357L17.2137 34.4793H14.0487V54.9357H0.848511V0.745361H23.0033C27.2747 0.745361 30.9028 1.49157 33.8877 2.984C36.924 4.47642 39.1883 6.53493 40.6808 9.15954C42.1732 11.7327 42.9194 14.6146 42.9194 17.8053C42.9194 21.4077 41.8901 24.6241 39.8316 27.4546C37.8246 30.285 34.8397 32.2921 30.8771 33.4757L43.3826 54.9357H28.4841ZM14.0487 25.1388H22.2313C24.6501 25.1388 26.4513 24.5469 27.6349 23.3633C28.87 22.1796 29.4876 20.5071 29.4876 18.3457C29.4876 16.2871 28.87 14.6661 27.6349 13.4824C26.4513 12.2988 24.6501 11.7069 22.2313 11.7069H14.0487V25.1388Z" fill="#F9B753"/>
<path d="M57.5357 44.1285H80.8483V54.9357H42.56V44.9005L65.7182 11.5526H42.56V0.745361H80.8483V10.7806L57.5357 44.1285Z" fill="#F9B753"/>
<rect x="80.8484" y="44.8508" width="10.0848" height="38.2683" transform="rotate(90 80.8484 44.8508)" fill="url(#paint0_linear_754_82)"/>
<rect x="14.0504" y="54.9357" width="13.2019" height="54.1894" transform="rotate(-180 14.0504 54.9357)" fill="url(#paint1_linear_754_82)"/>
<defs>
<linearGradient id="paint0_linear_754_82" x1="85.8908" y1="44.8508" x2="85.8908" y2="83.1191" gradientUnits="userSpaceOnUse">
<stop offset="0.473958" stop-color="#F69709" stop-opacity="0"/>
<stop offset="1" stop-color="#E98C00"/>
</linearGradient>
<linearGradient id="paint1_linear_754_82" x1="20.6514" y1="54.9357" x2="20.6514" y2="109.125" gradientUnits="userSpaceOnUse">
<stop offset="0.453125" stop-color="#F49600" stop-opacity="0"/>
<stop offset="1" stop-color="#E98C00"/>
</linearGradient>
</defs>
</svg>
