<svg width="30" height="30" viewBox="0 0 30 30" fill="none" xmlns="http://www.w3.org/2000/svg">
<path fill-rule="evenodd" clip-rule="evenodd" d="M3.99723 4.572L3.99845 4.55545C3.9973 4.55643 3.99617 4.55742 3.99505 4.55841C3.99114 4.53146 3.98955 4.50484 3.98803 4.47949C3.98602 4.44595 3.98414 4.41462 3.97721 4.38765C3.95656 4.2581 3.93875 4.13527 3.92143 4.01593C3.87132 3.67047 3.82544 3.35425 3.72756 2.98904C3.60555 2.49179 3.62916 2.02579 3.65294 1.55633C3.67447 1.13135 3.69614 0.703545 3.61007 0.247161C3.57214 0.0782286 3.47684 0.00523475 3.27529 0.00823699C2.92107 0.034184 2.60356 0.245618 2.45997 0.60191C2.39531 0.797175 2.31273 1.00787 2.23138 1.202C2.15245 1.36303 2.14151 1.51202 2.17944 1.68095C2.22041 1.8085 2.18213 2.04436 2.14384 2.28022C2.10556 2.51609 2.06727 2.75195 2.10824 2.8795C2.07376 3.34924 2.10995 3.50534 2.17403 3.78178C2.20308 3.90712 2.23787 4.05719 2.27441 4.27245C2.33601 4.57607 2.41551 4.86426 2.49501 5.15245L2.49502 5.15248C2.66708 5.77968 2.78906 6.40349 2.89313 7.04272C2.93901 7.33197 2.99023 7.62159 3.04145 7.9112C3.11827 8.34562 3.1951 8.78005 3.2539 9.21325C3.26628 9.29669 3.27927 9.37962 3.29223 9.46229C3.34971 9.82914 3.4064 10.191 3.40588 10.5711C3.40889 10.9872 3.42859 11.4045 3.49959 11.8085C3.55633 12.1784 3.54629 12.5437 3.53625 12.909C3.53422 13.3481 3.51416 13.786 3.4941 14.2238C3.48072 14.5157 3.46735 14.8076 3.45932 15.0999C3.42741 15.7632 3.37759 16.4419 3.32898 17.104L3.32898 17.1041C3.32504 17.1428 3.32103 17.1816 3.31702 17.2204C3.25934 17.7783 3.20046 18.3478 3.34799 18.9021C3.42263 19.2566 3.44598 19.6241 3.38464 20.0026C3.37216 20.1727 3.34095 20.3476 3.30995 20.5212C3.28966 20.6349 3.26946 20.748 3.25468 20.859C3.22309 21.2894 3.14141 21.7164 2.92861 22.1013C2.89279 22.1321 2.88915 22.1818 2.8855 22.2315C2.86235 22.3755 2.83711 22.5193 2.81187 22.6632C2.73615 23.0948 2.66043 23.5264 2.64105 23.9618C2.63254 24.0776 2.62404 24.1935 2.58214 24.3071C2.4768 24.5995 2.37146 24.8918 2.38176 25.2086C2.37811 25.2583 2.35655 25.3234 2.33743 25.3553C2.22385 25.5058 2.17073 25.6757 2.11611 25.8505C2.0903 25.9331 2.06415 26.0167 2.03112 26.0999L1.91785 27.643C1.35792 27.8911 0.798186 28.1384 0.220002 28.3252C0.0526876 28.3868 -0.0142382 28.51 0.00249323 28.7565C0.0526876 29.1879 0.286928 29.5577 0.65502 29.7014C0.812703 29.7498 0.980706 29.8109 1.14282 29.8747C1.19034 29.9069 1.24694 29.93 1.30572 29.9421C1.46056 30.0093 1.60259 30.0057 1.75929 29.9479C1.88478 29.8863 2.01027 29.8298 2.13575 29.7733C2.26124 29.7169 2.38672 29.6604 2.51221 29.5987C3.148 29.2495 3.7838 28.9003 4.46979 28.6949C4.77096 28.5922 5.05539 28.4689 5.33982 28.3457C5.95889 28.0787 6.57795 27.8732 7.21375 27.6884C7.50152 27.6062 7.7893 27.5175 8.07708 27.4287L8.07709 27.4287L8.07711 27.4287C8.50877 27.2956 8.94044 27.1625 9.3721 27.0516C9.45517 27.0289 9.53768 27.0055 9.61994 26.9823L9.61996 26.9823C9.98499 26.8789 10.345 26.777 10.7273 26.7434C11.1456 26.7024 11.5639 26.6407 11.9655 26.5175C12.3336 26.4148 12.7017 26.3942 13.0698 26.3737C13.5115 26.3367 13.9532 26.3219 14.3949 26.3071C14.6893 26.2973 14.9838 26.2874 15.2783 26.271C15.9476 26.2504 16.6335 26.2504 17.3028 26.2504L17.4206 26.2546C17.9856 26.2751 18.5623 26.296 19.1098 26.0656C19.4612 25.9423 19.8293 25.8807 20.2141 25.9218C20.386 25.9218 20.564 25.9443 20.7407 25.9666C20.8564 25.9813 20.9716 25.9958 21.0841 26.0039C21.5191 26.0039 21.9541 26.0656 22.3557 26.2915C22.3892 26.3326 22.4394 26.3326 22.4896 26.3326C22.6359 26.348 22.7823 26.366 22.9287 26.384L22.9287 26.384L22.9288 26.384C23.368 26.4379 23.8072 26.4918 24.2464 26.4764C24.3635 26.4764 24.4806 26.4764 24.5977 26.5175C24.8989 26.6202 25.2001 26.7229 25.5179 26.6818C25.5681 26.6818 25.6351 26.7024 25.6685 26.7229C25.8276 26.8485 26.0021 26.8982 26.1816 26.9494L26.1816 26.9494C26.2664 26.9736 26.3523 26.9981 26.4382 27.031C26.6278 27.0995 26.8193 27.1566 27.0108 27.2136C27.3937 27.3277 27.7767 27.4419 28.1448 27.6473C28.4627 27.8116 28.7471 28.017 29.0148 28.2841C29.1487 28.4132 29.2607 28.5691 29.3727 28.7251L29.3727 28.7251L29.3727 28.7251C29.4567 28.8421 29.5407 28.959 29.6339 29.0647C29.7845 29.229 29.8179 29.2084 29.935 28.9825C30.0187 28.8182 30.0354 28.6949 29.9016 28.5717C29.8405 28.4966 29.824 28.3997 29.8065 28.2969C29.8001 28.2589 29.7935 28.2201 29.7845 28.1814C29.7735 28.1499 29.7629 28.1185 29.7524 28.0873C29.6669 27.8329 29.5861 27.5927 29.3327 27.4829C29.2804 27.4572 29.2411 27.4074 29.2027 27.3587L29.2027 27.3586L29.2027 27.3586C29.1797 27.3294 29.157 27.3006 29.1319 27.2775C28.379 26.5997 27.5926 26.0656 26.6557 25.8602C26.5379 25.8312 26.4222 25.7871 26.3064 25.7428C26.0932 25.6614 25.8795 25.5798 25.6518 25.5931C25.6183 25.6137 25.5849 25.5931 25.5514 25.5726C25.1791 25.3767 24.7751 25.3365 24.3813 25.2973L24.3813 25.2973C24.2796 25.2871 24.1786 25.2771 24.079 25.2644C23.893 25.2333 23.7027 25.2179 23.5103 25.2023H23.5102L23.5102 25.2023C23.3219 25.1871 23.1316 25.1717 22.9413 25.1412C22.8416 25.1306 22.7408 25.1213 22.6395 25.112C22.3496 25.0853 22.0552 25.0583 21.7701 24.9974C21.4857 24.9152 21.1678 24.8947 20.8833 25.1001C20.8164 25.1412 20.7495 25.1207 20.716 25.059C20.6324 24.8947 20.5152 24.8947 20.3981 24.8947H20.1639C20.2039 24.9561 20.2499 24.9514 20.2983 24.9465C20.3308 24.9432 20.3645 24.9398 20.3981 24.9563C20.4316 24.9563 20.4818 24.9769 20.465 25.0179C20.465 25.0385 20.3981 25.0796 20.3647 25.059C19.9631 25.0385 19.5448 25.0385 19.1433 25.0796C19.0718 25.0796 19.0126 25.0646 18.9447 25.0474L18.909 25.0385C18.8923 25.0385 18.8756 25.0179 18.8588 24.9974C18.8923 24.9974 18.909 24.9769 18.9258 24.9563C18.9408 24.9563 18.9558 24.9522 18.9724 24.9476C18.9927 24.942 19.0152 24.9358 19.0429 24.9358C19.0507 24.931 19.0595 24.9273 19.0682 24.9236C19.0962 24.9118 19.1226 24.9008 19.1098 24.8536C19.1098 24.8331 19.0596 24.792 19.0261 24.792C18.909 24.7304 18.7752 24.7098 18.6581 24.7714L18.6502 24.7753C18.5713 24.8139 18.5242 24.837 18.5242 24.9563C18.5075 25.1207 18.4071 25.2028 18.3402 25.1207C18.224 24.9939 18.1079 24.9894 17.9841 24.9845H17.9841C17.9473 24.983 17.9099 24.9816 17.8717 24.9769C17.5812 24.9576 17.2906 24.9745 16.9984 24.9915H16.9984H16.9984C16.6679 25.0107 16.3352 25.0301 15.9978 24.9974C15.9745 24.9974 15.9476 25.0018 15.9188 25.0066L15.9187 25.0066C15.8854 25.012 15.8496 25.0179 15.8137 25.0179C15.2448 25.059 14.6927 25.1001 14.1406 25.1412C13.9726 25.1515 13.8046 25.1463 13.6387 25.1411H13.6387H13.6386C13.4741 25.136 13.3117 25.131 13.1534 25.1412C12.8522 25.1617 12.5678 25.1617 12.2666 25.1207C12.0826 25.0796 11.9153 25.0796 11.7312 25.1207C11.6628 25.1312 11.5933 25.139 11.5233 25.1468L11.5232 25.1469C11.3192 25.1698 11.1107 25.1932 10.9114 25.285C10.8277 25.3055 10.7441 25.3055 10.6437 25.3055C10.56 25.3055 10.4764 25.3032 10.3927 25.301C10.2495 25.2971 10.1062 25.2931 9.96296 25.3007C10.0624 25.218 10.1638 25.1397 10.2653 25.0613C10.3875 24.9669 10.5098 24.8724 10.6285 24.7705L10.6482 24.7544L10.6482 24.7544C10.8659 24.577 11.096 24.3896 11.2966 24.1783C11.519 23.9733 11.7335 23.7619 11.948 23.5505L11.9481 23.5505C12.1626 23.3391 12.3772 23.1278 12.5995 22.9227C13.1807 22.3921 13.7224 21.8184 14.2473 21.2092C14.2683 21.1842 14.2889 21.1585 14.3094 21.133L14.3094 21.1329C14.3858 21.0377 14.4606 20.9444 14.5471 20.9018C14.7605 20.8362 14.9007 20.6484 15.04 20.4619L15.0401 20.4617C15.055 20.4417 15.0699 20.4218 15.0849 20.402L15.1596 20.3137C15.287 20.1634 15.4201 20.0064 15.5374 19.8441C15.6757 19.659 15.8185 19.4788 15.9613 19.2985L15.9613 19.2985C16.2468 18.9379 16.5324 18.5774 16.7827 18.1786C17.3338 17.3373 17.8848 16.496 18.413 15.6472C18.537 15.4507 18.6626 15.2575 18.7878 15.065C19.1545 14.5012 19.518 13.9423 19.8282 13.3158C20.3001 12.3883 20.7636 11.4431 21.2126 10.5081C21.3805 10.1434 21.5171 9.76239 21.6535 9.38204C21.7518 9.10799 21.8499 8.83428 21.9595 8.56732C21.9694 8.55795 21.9795 8.54873 21.9896 8.53967C22.1073 8.42068 22.1826 8.22863 22.2102 8.01953C22.2439 7.9548 22.2508 7.89218 22.2221 7.83784C22.2221 7.54118 22.1281 7.24244 21.9262 7.09026C21.8368 7.02322 21.74 6.96133 21.6433 6.89943C21.5466 6.83754 21.4499 6.77565 21.3604 6.70862C21.119 6.52394 20.8821 6.43096 20.6039 6.41465L20.6039 6.41464C20.2655 6.39357 19.9272 6.37249 19.5766 6.40753C19.255 6.42202 18.9128 6.47485 18.5956 6.58105C17.8744 6.85507 17.1577 7.22079 16.5056 7.68298C16.4602 7.71519 16.4164 7.73974 16.3746 7.76317C16.3365 7.78456 16.3 7.80501 16.2654 7.82952L14.8242 8.70878C14.7373 8.77041 14.6503 8.83203 14.5718 8.91145C14.3844 9.10356 14.1807 9.26094 13.977 9.41831C13.8547 9.51273 13.7325 9.60715 13.6138 9.70908L13.5941 9.72514C13.3764 9.90252 13.1463 10.09 12.9456 10.3013C12.7233 10.5063 12.5087 10.7177 12.2942 10.9291C12.0796 11.1405 11.8651 11.3518 11.6427 11.5569C11.0615 12.0875 10.5198 12.6612 9.99493 13.2705C9.97393 13.2954 9.95331 13.3211 9.9328 13.3467L9.93279 13.3467C9.85643 13.4419 9.78168 13.5352 9.69513 13.5778C9.48172 13.6434 9.34153 13.8312 9.20227 14.0177C9.18732 14.0378 9.17238 14.0578 9.15736 14.0776L9.08262 14.166L9.0826 14.166C8.95525 14.3162 8.82211 14.4732 8.70489 14.6355C8.56652 14.8206 8.42375 15.0009 8.28098 15.1811C7.99543 15.5417 7.70989 15.9022 7.45953 16.301C6.90847 17.1423 6.35742 17.9836 5.82922 18.8324C5.70526 19.0289 5.57968 19.222 5.45446 19.4145L5.45443 19.4146L5.4544 19.4146C5.08773 19.9784 4.72423 20.5373 4.41402 21.1638C4.2446 21.4968 4.07625 21.8321 3.90927 22.1684C3.94027 21.9747 3.97545 21.7814 4.02287 21.593C4.1103 21.3161 4.15008 21.0027 4.0038 20.71C3.97527 20.6415 3.99683 20.5764 4.04934 20.5467C4.18897 20.473 4.19748 20.3571 4.20598 20.2412L4.223 20.0094C4.17019 20.0457 4.17065 20.0914 4.17112 20.1396C4.17144 20.172 4.17177 20.2054 4.1559 20.2378C4.15347 20.2709 4.13313 20.3195 4.10096 20.3006C4.08426 20.2995 4.05574 20.231 4.07486 20.1991C4.12072 19.8029 4.1511 19.389 4.14687 18.9895C4.15206 18.9188 4.16854 18.861 4.18743 18.7947C4.19065 18.7834 4.19395 18.7719 4.19727 18.76C4.19849 18.7434 4.2164 18.728 4.23431 18.7126C4.23188 18.7457 4.24736 18.7633 4.26283 18.781C4.26174 18.7959 4.26402 18.811 4.26653 18.8277C4.26961 18.848 4.27303 18.8707 4.27102 18.898C4.27437 18.9061 4.27674 18.915 4.27906 18.9237C4.28661 18.9521 4.2937 18.9788 4.33294 18.9688C4.34963 18.9699 4.38667 18.9225 4.3891 18.8894C4.44769 18.7769 4.4741 18.6456 4.43252 18.5263L4.42997 18.5183C4.4043 18.4381 4.38899 18.3903 4.292 18.3837C4.15966 18.3581 4.10018 18.2543 4.17181 18.1926C4.28323 18.0847 4.29538 17.97 4.30833 17.8478C4.31218 17.8115 4.31609 17.7746 4.3227 17.737C4.35946 17.4506 4.36682 17.1622 4.37422 16.8721C4.38259 16.5441 4.39101 16.2138 4.4421 15.8817C4.44379 15.8587 4.44215 15.8318 4.44039 15.803C4.43836 15.7698 4.43617 15.734 4.43877 15.6985C4.4467 15.1334 4.45341 14.5848 4.46012 14.0363C4.46395 13.8695 4.48039 13.7035 4.49663 13.5397C4.51274 13.3772 4.52864 13.2167 4.53182 13.0596C4.537 12.7605 4.55766 12.479 4.61292 12.1833C4.65967 12.0035 4.67182 11.8379 4.6518 11.6536C4.64824 11.5853 4.64693 11.5161 4.64562 11.4464C4.64179 11.2432 4.63788 11.0356 4.57779 10.8334C4.56717 10.7495 4.57325 10.6667 4.58054 10.5674C4.58662 10.4846 4.59455 10.402 4.60248 10.3193C4.61834 10.154 4.6342 9.98873 4.63522 9.82243C4.61584 9.17229 4.54516 8.53532 4.45778 7.89721C4.31367 6.88927 4.13616 5.87906 3.92527 4.8666C3.90066 4.74971 3.89119 4.65014 3.99505 4.55841C3.99571 4.56293 3.99643 4.56747 3.99723 4.572ZM3.08698 23.8521C3.12167 23.7466 3.15189 23.6363 3.17911 23.5369C3.20179 23.4541 3.2224 23.3788 3.24178 23.3203C3.24785 23.2375 3.24907 23.221 3.23359 23.2033C3.23537 23.1791 3.22755 23.1631 3.21764 23.1428C3.21401 23.1354 3.2101 23.1274 3.20628 23.1183C3.19671 23.1343 3.18328 23.1458 3.16985 23.1574C3.15642 23.169 3.14299 23.1805 3.13342 23.1965C3.10883 23.303 3.08394 23.4136 3.05904 23.5242C3.03415 23.6348 3.00925 23.7454 2.98465 23.8519C2.98222 23.885 2.97858 23.9347 3.01196 23.9369C3.02751 23.938 3.04384 23.9283 3.0571 23.9143C3.06705 23.8936 3.07701 23.8729 3.08698 23.8521ZM3.63378 19.3218C3.63916 19.6054 3.64458 19.8916 3.59073 20.1663C3.5819 20.2867 3.57789 20.4028 3.57404 20.5146C3.57048 20.618 3.56704 20.7176 3.56003 20.8131C3.5743 20.8473 3.58978 20.865 3.60526 20.8827L3.65898 20.8364C3.71636 20.7405 3.74156 20.6257 3.75006 20.5098C3.75155 20.4896 3.75211 20.4684 3.75268 20.4466C3.75446 20.3792 3.75637 20.3069 3.7862 20.2461C3.95135 19.8247 3.96625 19.3932 3.93107 18.9582C3.92389 18.8816 3.91341 18.8059 3.90296 18.7304C3.8723 18.5089 3.84195 18.2896 3.89652 18.0575C3.91435 17.9936 3.90222 17.9174 3.89101 17.8471C3.88791 17.8276 3.88488 17.8086 3.88257 17.7904C3.85567 17.6998 3.85844 17.6113 3.86121 17.5227C3.86259 17.4785 3.86398 17.4342 3.86165 17.3897C3.86126 17.2935 3.87405 17.1983 3.88684 17.103C3.90283 16.9839 3.91882 16.8649 3.90905 16.7441C3.89018 16.5425 3.90118 16.343 3.91245 16.1386C3.91803 16.0373 3.92368 15.9348 3.9258 15.8302C3.95496 15.4329 3.98413 15.0356 3.9799 14.636C3.97478 14.0201 3.96966 13.4042 4.04801 12.7939C4.06835 12.7454 4.07321 12.6792 4.04225 12.6438C4.03857 12.6147 4.04923 12.5826 4.05916 12.5527C4.07787 12.4963 4.094 12.4477 4.00675 12.4418C3.95788 12.4218 3.94816 12.5543 3.94209 12.637C3.94099 12.6519 3.94327 12.667 3.94579 12.6837C3.94886 12.7041 3.95228 12.7267 3.95027 12.7541C3.88092 13.2879 3.86599 13.8194 3.85102 14.3521C3.84102 14.7081 3.831 15.0646 3.80472 15.4227C3.778 15.7866 3.77411 16.1489 3.77024 16.5093C3.76531 16.9687 3.76041 17.4252 3.70834 17.8784L3.633 18.9048C3.62848 19.042 3.63112 19.1816 3.63378 19.3218ZM4.0599 11.9463L4.06719 11.8469C4.06536 11.8208 4.06449 11.7931 4.06359 11.7645C4.06044 11.6649 4.05694 11.5541 4.01167 11.4606L3.96523 11.4075C3.96473 11.4144 3.96136 11.421 3.95742 11.4288C3.95184 11.4399 3.9451 11.4532 3.94368 11.4726C3.9557 11.5536 3.96259 11.639 3.96966 11.7267C3.97579 11.8027 3.98205 11.8804 3.99191 11.9583C3.99191 11.9583 4.00739 11.976 4.02408 11.9771C4.04078 11.9783 4.05868 11.9628 4.0599 11.9463ZM3.9337 10.9229C3.9337 10.9229 3.91336 10.9714 3.91214 10.988C3.90971 11.0211 3.9085 11.0377 3.92276 11.0719C3.92226 11.0787 3.92462 11.0858 3.92738 11.0941C3.93129 11.1057 3.93602 11.1198 3.93459 11.1392C3.9525 11.1238 3.97041 11.1084 3.97284 11.0753L3.9777 11.0091C3.98013 10.976 3.98378 10.9263 3.9337 10.9229ZM3.56912 21.1464C3.55243 21.1453 3.54999 21.1784 3.54756 21.2115C3.54696 21.2198 3.55052 21.2283 3.55409 21.2369C3.55765 21.2455 3.56122 21.254 3.56061 21.2623C3.57852 21.2469 3.59643 21.2314 3.59765 21.2149C3.61677 21.1829 3.62042 21.1332 3.56912 21.1464ZM3.98071 21.0245L3.99984 20.9925L3.96645 20.9903L3.98071 21.0245ZM4.20332 19.5736C4.20476 19.563 4.20621 19.5525 4.20694 19.5425C4.20742 19.5359 4.20729 19.5286 4.20716 19.5213C4.20662 19.4919 4.20609 19.4626 4.24519 19.4786C4.26188 19.4797 4.27614 19.5139 4.27371 19.547C4.27128 19.5802 4.26521 19.6629 4.23182 19.6607C4.19175 19.658 4.19754 19.6158 4.20332 19.5736ZM17.4713 8.42169L17.3553 8.50385C17.2589 8.62622 17.1327 8.68517 17.0006 8.74684C16.9006 8.79351 16.7973 8.84174 16.7011 8.92019C16.4921 9.09204 16.2831 9.2639 16.0406 9.36459C15.9019 9.43924 15.7798 9.54946 15.6662 9.67748C15.5731 9.76716 15.4572 9.84933 15.3412 9.9315C14.9586 10.2027 14.6113 10.5291 14.2614 10.8579L14.2614 10.8579C14.1078 11.0022 13.9537 11.147 13.7959 11.2878C13.6874 11.3876 13.5781 11.4855 13.4692 11.5831L13.4692 11.5831L13.4691 11.5831L13.4691 11.5832C13.2396 11.7887 13.0121 11.9925 12.799 12.2079C12.4145 12.6228 12.0383 13.0554 11.6767 13.4778C11.5981 13.5572 11.5569 13.6339 11.5095 13.7386C11.4683 13.8153 11.4126 13.9022 11.3463 13.9255C11.1741 13.9628 11.0668 14.1054 10.9606 14.2466L10.9605 14.2467L10.9604 14.2468C10.9477 14.2637 10.935 14.2806 10.9222 14.2973C10.8144 14.4396 10.6989 14.5703 10.5839 14.7004L10.5839 14.7004C10.3683 14.9442 10.1547 15.1857 9.99886 15.4973C9.89989 15.5408 9.83649 15.634 9.77422 15.7255C9.72568 15.7968 9.67783 15.8672 9.61436 15.9122C9.54191 15.9635 9.4717 16.0607 9.41598 16.1477C9.29965 16.344 9.17065 16.5265 9.04166 16.709L9.04164 16.709L9.04163 16.709C8.84813 16.9828 8.65463 17.2566 8.50388 17.5769C8.48558 17.6224 8.45263 17.656 8.41776 17.6915L8.41775 17.6915C8.40169 17.7079 8.38523 17.7247 8.36959 17.7433C7.80569 18.475 7.28137 19.2499 6.80501 20.0857C6.78424 20.1243 6.76314 20.1622 6.7422 20.1998L6.74215 20.1999L6.74214 20.1999C6.65919 20.3488 6.57894 20.4929 6.53314 20.6579L6.4713 20.7729C5.83975 21.898 5.26876 23.0722 4.72852 24.2713C4.75017 24.3262 4.75918 24.3869 4.75834 24.4485C4.75595 24.4939 4.74176 24.5298 4.72834 24.5637C4.71993 24.585 4.71182 24.6055 4.7071 24.6271C4.49992 25.2958 4.19295 25.9166 3.78396 26.4437C3.72824 26.5306 3.67252 26.6176 3.63966 26.712C3.6039 26.7785 3.57374 26.8569 3.56317 26.9372C3.86049 26.8094 4.15871 26.6888 4.46979 26.5997C4.49645 26.5887 4.52783 26.5836 4.56142 26.5782L4.56148 26.5781C4.58685 26.574 4.61349 26.5697 4.64031 26.5625C4.73964 26.6814 4.83913 26.6608 4.955 26.6202C5.58028 26.4027 6.20556 26.2011 6.83084 26.0155L6.88691 25.9757C6.98334 25.8534 7.10959 25.7944 7.24169 25.7328C7.34164 25.6861 7.44493 25.6379 7.54119 25.5594L7.5412 25.5594C7.75018 25.3876 7.95916 25.2157 8.2016 25.115C8.34037 25.0404 8.46242 24.9301 8.5761 24.8021C8.66916 24.7124 8.78508 24.6303 8.901 24.5481C9.28363 24.2769 9.63099 23.9505 9.98086 23.6217L9.98096 23.6216C10.1345 23.4773 10.2886 23.3326 10.4463 23.1918C10.5548 23.0921 10.6641 22.9941 10.773 22.8966L10.7731 22.8965C11.0026 22.6909 11.2301 22.4871 11.4433 22.2717C11.8278 21.8568 12.2039 21.4242 12.5656 21.0018C12.6441 20.9224 12.6854 20.8457 12.7327 20.741C12.7739 20.6643 12.8297 20.5774 12.896 20.5541C13.0681 20.5168 13.1754 20.3742 13.2817 20.233C13.2944 20.216 13.3072 20.1991 13.3201 20.1823C13.4278 20.04 13.5434 19.9093 13.6584 19.7792L13.6584 19.7792C13.874 19.5354 14.0875 19.2939 14.2434 18.9823C14.3424 18.9388 14.4058 18.8456 14.468 18.7541C14.5166 18.6828 14.5644 18.6124 14.6279 18.5674C14.7003 18.5161 14.7705 18.4189 14.8263 18.3319C14.9426 18.1356 15.0716 17.9531 15.2006 17.7706C15.3941 17.4968 15.5876 17.223 15.7384 16.9027C15.7567 16.8572 15.7896 16.8236 15.8245 16.7881C15.8405 16.7717 15.857 16.7549 15.8727 16.7363C16.4366 16.0046 16.9609 15.2297 17.4372 14.3939C17.458 14.3553 17.4791 14.3173 17.5001 14.2797L17.5001 14.2797C17.583 14.1308 17.6633 13.9867 17.7091 13.8217L17.7709 13.7067C18.4025 12.5816 18.9735 11.4074 19.5137 10.2083C19.4921 10.1534 19.4831 10.0927 19.4839 10.0311C19.4863 9.98571 19.5005 9.94983 19.5139 9.91589C19.5223 9.89463 19.5304 9.87413 19.5351 9.85252C19.7423 9.18383 20.0493 8.56302 20.4583 8.03591C20.514 7.94898 20.5697 7.86204 20.6026 7.76759C20.6644 7.6526 20.7095 7.50203 20.6655 7.36723C20.5985 7.22491 20.4575 7.25371 20.3539 7.27975C20.2709 7.28021 20.1833 7.30189 20.0987 7.32283C20.0458 7.33593 19.994 7.34875 19.9453 7.35588C19.4208 7.51417 18.9131 7.70803 18.4076 7.94775C18.2762 8.02054 18.1402 8.08353 18.0042 8.14651L18.0042 8.14652C17.8229 8.2305 17.6416 8.31448 17.4713 8.42169ZM4.64031 26.5625L4.6371 26.5586H4.65384L4.64031 26.5625ZM10.9822 23.8794C10.4244 24.4557 9.82298 24.9766 9.18331 25.4179C9.11971 25.43 9.05622 25.4424 8.99281 25.4554C9.26931 25.2557 9.52405 25.0098 9.77879 24.7639L9.77882 24.7639C9.9286 24.6193 10.0784 24.4747 10.2326 24.3395C10.8138 23.8089 11.3867 23.2606 11.9116 22.6513C11.9684 22.5873 12.0295 22.5322 12.0905 22.4771C12.1515 22.4219 12.2125 22.3668 12.2694 22.3028C12.3671 22.2015 12.4652 22.1009 12.5631 22.0003L12.5636 21.9998L12.5636 21.9998C12.9732 21.5794 13.3811 21.1606 13.7578 20.7022C14.0881 20.3151 14.398 19.9059 14.7106 19.4931L14.7106 19.4931C14.8342 19.33 14.9581 19.1663 15.084 19.0032C15.6479 18.2714 16.1722 17.4965 16.6798 16.6861C16.8979 16.3509 17.1257 16.0217 17.3532 15.6928C17.6639 15.2437 17.9742 14.7953 18.2588 14.3334C18.265 14.3053 18.3084 14.2745 18.3168 14.2923C18.3625 14.3073 18.3503 14.3634 18.3441 14.3915C18.2455 14.6748 18.1157 14.9329 17.9692 15.1554C17.6143 15.7153 17.2449 16.2855 16.8755 16.8557C16.8634 16.8745 16.8507 16.8938 16.8377 16.9135L16.8375 16.9137C16.7903 16.9852 16.7393 17.0626 16.7022 17.1446C16.5196 17.5421 16.2772 17.8744 16.0324 18.2099C15.9956 18.2604 15.9588 18.3108 15.9221 18.3616C15.8725 18.4205 15.8313 18.4972 15.7901 18.5738C15.7607 18.6176 15.7338 18.6622 15.7076 18.7055L15.7076 18.7056C15.6527 18.7963 15.6012 18.8814 15.5382 18.9421C15.3303 19.1015 15.1771 19.3248 15.0252 19.5462C14.8763 19.7634 14.7286 19.9786 14.5319 20.1298C14.3656 20.4389 14.1371 20.6688 13.9052 20.9021L13.9051 20.9021C13.8494 20.9581 13.7936 21.0143 13.7384 21.0718C13.6326 21.1769 13.5383 21.2992 13.4435 21.4223C13.3141 21.5903 13.1836 21.7597 13.0212 21.8885C12.9445 21.9429 12.8946 22.0314 12.8444 22.1206C12.7999 22.1998 12.755 22.2795 12.6908 22.3362C12.6328 22.3773 12.5832 22.4361 12.5481 22.4847C12.0372 22.8257 11.591 23.2715 11.1459 23.7162C11.0913 23.7706 11.0368 23.8251 10.9822 23.8794ZM13.0964 10.7634C12.6513 11.2081 12.205 11.6539 11.6941 11.9949C11.659 12.0435 11.6094 12.1023 11.5515 12.1434C11.4872 12.2001 11.4424 12.2798 11.3978 12.359C11.3476 12.4482 11.2978 12.5367 11.221 12.5911C11.0586 12.7199 10.9281 12.8893 10.7987 13.0573L10.7987 13.0573C10.7039 13.1804 10.6097 13.3027 10.5039 13.4078C10.4486 13.4653 10.3928 13.5215 10.3371 13.5775L10.3371 13.5775L10.3371 13.5775C10.1052 13.8108 9.8766 14.0407 9.71038 14.3498C9.51363 14.501 9.36597 14.7162 9.21702 14.9334L9.21701 14.9334L9.217 14.9334C9.06513 15.1548 8.91193 15.3781 8.70402 15.5375C8.64103 15.5982 8.58955 15.6833 8.53469 15.774C8.50849 15.8174 8.48152 15.862 8.45216 15.9058L8.45215 15.9058L8.45215 15.9058C8.41092 15.9825 8.3697 16.0591 8.32011 16.118C8.28343 16.1688 8.2466 16.2192 8.20983 16.2697C7.96508 16.6052 7.72265 16.9375 7.54006 17.335C7.50299 17.417 7.4519 17.4944 7.40472 17.5659L7.40466 17.566C7.39161 17.5857 7.37886 17.6051 7.36679 17.6239C6.99738 18.1941 6.62797 18.7643 6.27305 19.3242C6.12651 19.5467 5.9967 19.8048 5.89811 20.0881C5.89199 20.1162 5.87974 20.1723 5.92545 20.1873C5.93382 20.2051 5.97728 20.1743 5.98341 20.1462C6.26804 19.6844 6.5783 19.2359 6.88899 18.7868L6.88901 18.7868L6.88903 18.7868L6.88906 18.7867C7.1166 18.4578 7.34437 18.1286 7.56248 17.7935C8.07006 16.9831 8.59438 16.2082 9.15828 15.4764C9.28406 15.3134 9.40799 15.1497 9.53152 14.9866L9.53163 14.9865C9.84423 14.5737 10.1542 14.1645 10.4845 13.7774C10.8612 13.319 11.2691 12.9003 11.6786 12.4798L11.6786 12.4798L11.6787 12.4798C11.7768 12.3791 11.875 12.2783 11.9729 12.1768C12.0297 12.1128 12.0907 12.0577 12.1518 12.0025C12.2128 11.9474 12.2738 11.8923 12.3306 11.8283C12.8556 11.219 13.4284 10.6707 14.0097 10.1401C14.1639 10.0049 14.3137 9.86028 14.4635 9.71568C14.7256 9.46264 14.9877 9.20959 15.2736 9.00698C15.3025 8.98644 15.3087 8.95838 15.3148 8.93032C15.3003 8.94059 15.2774 8.93307 15.2546 8.92555L15.1532 8.99745C14.4783 9.45211 13.8452 9.99573 13.2601 10.6002C13.2056 10.6543 13.1512 10.7086 13.0969 10.7629L13.0964 10.7634ZM16.236 8.30104L16.3374 8.22915C16.3246 8.22492 16.319 8.22307 16.3139 8.22409C16.31 8.22488 16.3064 8.22741 16.3001 8.2319C16.2628 8.23465 16.2338 8.25519 16.2132 8.29352C16.1842 8.31407 16.207 8.32159 16.236 8.30104ZM12.5682 12.0869L12.5971 12.0664C12.5888 12.0486 12.5743 12.0588 12.5743 12.0588L12.5453 12.0794C12.5537 12.0972 12.5682 12.0869 12.5682 12.0869ZM19.5124 25.6779C19.7973 25.6459 20.0847 25.6135 20.3647 25.6547C20.4863 25.6547 20.6034 25.6492 20.716 25.6439H20.716H20.716L20.7161 25.6439C20.8204 25.6389 20.9207 25.6342 21.0172 25.6342C21.0506 25.6137 21.0674 25.5931 21.0841 25.5726L21.0339 25.5109C20.9335 25.4493 20.8164 25.4288 20.6993 25.4288C20.6789 25.4288 20.6575 25.43 20.6355 25.4313C20.5676 25.4351 20.4948 25.4393 20.4316 25.4082C19.9966 25.2439 19.5616 25.2644 19.1265 25.3466C19.05 25.3623 18.9745 25.3819 18.8993 25.4015C18.6786 25.459 18.4601 25.5158 18.223 25.4699C18.1575 25.4538 18.0818 25.4755 18.0118 25.4955C17.9924 25.5011 17.9735 25.5065 17.9553 25.5109C17.8661 25.552 17.7769 25.5566 17.6876 25.5612C17.643 25.5634 17.5984 25.5657 17.5538 25.5726C17.4571 25.5817 17.3604 25.5746 17.2638 25.5675H17.2637C17.1429 25.5586 17.0221 25.5498 16.9013 25.5726C16.6999 25.6138 16.4985 25.6182 16.2921 25.6228H16.2921H16.2921H16.292C16.1898 25.6251 16.0863 25.6274 15.981 25.6342C15.5795 25.6342 15.1779 25.6342 14.7764 25.6753C14.1573 25.7369 13.5382 25.7985 12.9192 25.7574C12.869 25.7369 12.802 25.7369 12.7686 25.778C12.7396 25.7851 12.7066 25.775 12.6758 25.7655C12.6178 25.7476 12.5678 25.7323 12.5678 25.8396C12.5511 25.9012 12.6849 25.9012 12.7686 25.9012C12.7836 25.9012 12.7987 25.8971 12.8152 25.8925C12.8355 25.8869 12.8581 25.8807 12.8857 25.8807C13.4273 25.9176 13.9628 25.8882 14.4995 25.8586H14.4995H14.4996L14.4996 25.8586C14.8583 25.8388 15.2176 25.8191 15.5795 25.8191C15.9473 25.8191 16.3119 25.7913 16.6747 25.7636C17.137 25.7284 17.5963 25.6933 18.0557 25.7164H19.0931C19.2314 25.7096 19.3716 25.6938 19.5123 25.6779L19.5124 25.6779ZM23.7825 25.8558C23.6976 25.8355 23.6205 25.817 23.5604 25.7985C23.4767 25.7985 23.46 25.7985 23.4432 25.8191C23.4188 25.8191 23.4032 25.8301 23.3835 25.844L23.3746 25.8503C23.3699 25.8536 23.365 25.8569 23.3596 25.8602C23.3763 25.8704 23.3889 25.8858 23.4014 25.9012C23.414 25.9166 23.4265 25.9321 23.4432 25.9423C23.552 25.9629 23.6649 25.9834 23.7779 26.0039C23.8908 26.0245 24.0037 26.045 24.1125 26.0656C24.146 26.0656 24.1962 26.0656 24.1962 26.0245C24.1962 25.9834 24.146 25.9423 24.1125 25.9423C24.0021 25.9084 23.8866 25.8807 23.7827 25.8559L23.7826 25.8558L23.7825 25.8558ZM24.9658 26.1683C25.1164 26.2094 25.2837 26.2504 25.4176 26.271C25.4452 26.271 25.4627 26.2772 25.4784 26.2828C25.4912 26.2874 25.5029 26.2915 25.5179 26.2915L25.5347 26.271C25.5347 26.2504 25.5347 26.2299 25.5179 26.2299C25.4443 26.2135 25.3761 26.1773 25.3078 26.1412C25.2054 26.0869 25.103 26.0327 24.9825 26.045C24.9714 26.045 24.9602 26.0633 24.9491 26.0816C24.9435 26.0907 24.9379 26.0998 24.9323 26.1067C24.9156 26.1272 24.9323 26.1683 24.9658 26.1683ZM12.0659 25.8191H11.9655C11.9393 25.8237 11.9115 25.8272 11.8828 25.8309C11.7828 25.8437 11.6716 25.8579 11.5807 25.9218L11.5305 25.9834C11.5374 25.9834 11.5443 25.9869 11.5524 25.9911C11.5639 25.9969 11.5778 26.0039 11.5974 26.0039C11.678 25.9819 11.7635 25.9658 11.8512 25.9493L11.8512 25.9493C11.9272 25.935 12.0049 25.9203 12.0826 25.9012C12.0826 25.9012 12.0993 25.8807 12.0993 25.8602C12.0993 25.8396 12.0826 25.8191 12.0659 25.8191ZM11.0452 26.0656C11.0452 26.0656 11.0954 26.0861 11.1122 26.0861C11.1456 26.0861 11.1624 26.0861 11.1958 26.0656C11.2028 26.0656 11.2097 26.062 11.2178 26.0579C11.2293 26.0521 11.2432 26.045 11.2628 26.045C11.246 26.0245 11.2293 26.0039 11.1958 26.0039H11.1289C11.0954 26.0039 11.0452 26.0039 11.0452 26.0656ZM21.3518 25.5931C21.3518 25.6137 21.3853 25.6137 21.4187 25.6137C21.4271 25.6137 21.4355 25.6085 21.4438 25.6034C21.4522 25.5983 21.4606 25.5931 21.4689 25.5931C21.4522 25.5726 21.4355 25.552 21.4187 25.552C21.3853 25.5315 21.3351 25.5315 21.3518 25.5931ZM21.2012 25.1001L21.1678 25.0796V25.1207L21.2012 25.1001ZM19.7269 24.958C19.7162 24.9571 19.7054 24.9563 19.6954 24.9563C19.6887 24.9563 19.6813 24.9571 19.674 24.958C19.6445 24.9613 19.6151 24.9645 19.6285 24.9152C19.6285 24.8947 19.6619 24.8742 19.6954 24.8742C19.7289 24.8742 19.8125 24.8742 19.8125 24.9152C19.8125 24.9645 19.7697 24.9613 19.7269 24.958ZM11.6451 22.4132L11.6741 22.3927C11.6741 22.3927 11.6886 22.3824 11.6969 22.4002L11.668 22.4208C11.668 22.4208 11.6535 22.431 11.6451 22.4132Z" fill="#F69709"/>
</svg>
