<svg width="78" height="51" viewBox="0 0 78 51" fill="none" xmlns="http://www.w3.org/2000/svg">
<path fill-rule="evenodd" clip-rule="evenodd" d="M7.44655 8.13783L7.44451 8.16553C7.44318 8.15793 7.44197 8.15035 7.44087 8.14278L7.44655 8.13783ZM7.42912 8.01074C7.43166 8.05316 7.43433 8.09769 7.44087 8.14278C7.2671 8.29626 7.28294 8.46285 7.32413 8.65841C7.67697 10.3524 7.97394 12.0425 8.21506 13.7289C8.36125 14.7966 8.47951 15.8623 8.51194 16.95C8.51023 17.2283 8.4837 17.5048 8.45716 17.7814L8.45716 17.7814L8.45716 17.7814C8.44389 17.9197 8.43062 18.0579 8.42045 18.1964C8.40826 18.3626 8.39809 18.5011 8.41586 18.6415C8.51639 18.9798 8.52294 19.3272 8.52934 19.667C8.53154 19.7837 8.53372 19.8995 8.53968 20.0137C8.57318 20.3222 8.55285 20.5992 8.47462 20.9001C8.38217 21.3948 8.3476 21.8657 8.33894 22.3661C8.33361 22.6291 8.30701 22.8975 8.28007 23.1693C8.2529 23.4435 8.22538 23.7212 8.21899 24.0003C8.20776 24.9181 8.19653 25.8358 8.18326 26.7813C8.1789 26.8407 8.18257 26.9006 8.18597 26.9562C8.18891 27.0044 8.19166 27.0493 8.18883 27.0879C8.10336 27.6435 8.08926 28.196 8.07526 28.7449C8.06288 29.2303 8.05057 29.7127 7.98905 30.1919C7.97801 30.2548 7.97146 30.3166 7.96503 30.3773C7.94336 30.5818 7.92303 30.7736 7.73661 30.9542C7.61675 31.0574 7.71628 31.2311 7.93769 31.274C8.09997 31.2849 8.12558 31.365 8.16853 31.4992L8.17281 31.5125C8.24237 31.7121 8.19817 31.9318 8.10015 32.12C8.09608 32.1754 8.03412 32.2547 8.00619 32.2528C7.94053 32.2697 7.92867 32.225 7.91604 32.1774C7.91216 32.1628 7.90821 32.1479 7.9026 32.1345C7.90596 32.0887 7.90023 32.0508 7.89509 32.0167C7.89089 31.9889 7.88707 31.9636 7.8889 31.9387C7.863 31.9091 7.8371 31.8795 7.84117 31.8241C7.81121 31.8499 7.78124 31.8757 7.77921 31.9034L7.76274 31.9616L7.76273 31.9617C7.73114 32.0725 7.70356 32.1691 7.69488 32.2874C7.70195 32.9559 7.65112 33.6484 7.5744 34.3112C7.5424 34.3647 7.59013 34.4793 7.61806 34.4812C7.67189 34.5126 7.70592 34.4314 7.70999 34.3761C7.73654 34.3219 7.73599 34.2659 7.73545 34.2117C7.73466 34.1311 7.7339 34.0545 7.82224 33.994L7.79378 34.3817C7.77955 34.5756 7.76532 34.7695 7.5317 34.8929C7.44384 34.9426 7.40778 35.0515 7.45551 35.166C7.70026 35.6558 7.6337 36.1802 7.48741 36.6435C7.40807 36.9586 7.34922 37.2821 7.29735 37.6061C7.57673 37.0434 7.85839 36.4824 8.14185 35.9253C8.66086 34.877 9.26903 33.942 9.88251 32.9988L9.88262 32.9986L9.88275 32.9984C10.0922 32.6763 10.3023 32.3534 10.5096 32.0246C11.3934 30.6045 12.3153 29.1969 13.2373 27.7894C13.6562 27.1221 14.1339 26.5189 14.6117 25.9157C14.8505 25.6141 15.0894 25.3125 15.3209 25.0029C15.517 24.7313 15.7398 24.4686 15.9529 24.2173L15.9529 24.2173L15.9529 24.2172C15.9951 24.1675 16.0368 24.1182 16.0779 24.0694C16.1031 24.0362 16.1281 24.0027 16.1531 23.9692C16.3861 23.6571 16.6206 23.343 16.9777 23.2332C17.1225 23.1619 17.2476 23.0059 17.3753 22.8465L17.3753 22.8465C17.4097 22.8037 17.4442 22.7606 17.4793 22.7189C18.3575 21.6996 19.2638 20.7397 20.2362 19.852C20.6083 19.5089 20.9672 19.1552 21.3262 18.8016L21.3263 18.8015C21.6852 18.4479 22.0441 18.0943 22.4161 17.7512C22.7518 17.3977 23.1368 17.0841 23.501 16.7873L23.534 16.7604C23.7326 16.5899 23.9371 16.4319 24.1416 16.2739C24.4825 16.0106 24.8233 15.7473 25.1368 15.4259C25.2683 15.293 25.4137 15.1899 25.5592 15.0868L27.9705 13.6157C28.0283 13.5747 28.0894 13.5405 28.1532 13.5047L28.1532 13.5047L28.1532 13.5047C28.2231 13.4655 28.2963 13.4244 28.3724 13.3705C29.4633 12.5972 30.6625 11.9853 31.8691 11.5269C32.3997 11.3492 32.9723 11.2608 33.5104 11.2366C34.097 11.1779 34.6631 11.2132 35.2291 11.2485L35.2292 11.2485C35.6946 11.2758 36.091 11.4313 36.4949 11.7403C36.6446 11.8524 36.8064 11.956 36.9682 12.0595L36.9682 12.0596C37.1301 12.1631 37.2919 12.2667 37.4416 12.3788C37.7793 12.6334 37.9367 13.1333 37.9366 13.6296C37.9847 13.7205 37.9732 13.8253 37.9167 13.9336C37.8705 14.2835 37.7446 14.6048 37.5476 14.8038C37.5307 14.819 37.5139 14.8344 37.4973 14.8501C37.314 15.2968 37.1498 15.7547 36.9853 16.2132C36.7571 16.8496 36.5285 17.4871 36.2477 18.0972C35.4964 19.6616 34.7209 21.2431 33.9314 22.7948C33.4124 23.8431 32.8042 24.7781 32.1908 25.7214C31.9812 26.0435 31.7711 26.3666 31.5636 26.6955C30.6799 28.1156 29.758 29.5231 28.8361 30.9306L28.836 30.9307C28.4171 31.598 27.9393 32.2012 27.4616 32.8045L27.4614 32.8047C27.2226 33.1062 26.9838 33.4077 26.7523 33.7173C26.5563 33.9887 26.3335 34.2515 26.1205 34.5027L26.1204 34.5028L26.1204 34.5029L26.0686 34.564L25.9953 34.6507C25.9702 34.6839 25.9452 34.7174 25.9202 34.7509C25.6872 35.063 25.4526 35.3772 25.0956 35.4869C24.9508 35.5583 24.8257 35.7143 24.6979 35.8736L24.6977 35.8739C24.6635 35.9166 24.629 35.9596 24.594 36.0012C23.7157 37.0206 22.8095 37.9804 21.837 38.8682C21.465 39.2112 21.1061 39.5649 20.7471 39.9185C20.3881 40.2722 20.0292 40.6258 19.6572 40.9689C19.3215 41.3224 18.9365 41.6361 18.5723 41.9328L18.5722 41.9329L18.5392 41.9597C18.3407 42.1303 18.1362 42.2882 17.9317 42.4462C17.7619 42.5774 17.5922 42.7085 17.4258 42.8468C17.6655 42.8342 17.9051 42.8407 18.1448 42.8472C18.2848 42.8511 18.4247 42.8549 18.5647 42.8549C18.7327 42.8549 18.8726 42.8549 19.0126 42.8205C19.346 42.667 19.695 42.6278 20.0363 42.5894L20.0365 42.5894L20.0366 42.5893L20.0368 42.5893C20.1539 42.5762 20.27 42.5631 20.3843 42.5456C20.6922 42.4768 20.9721 42.4768 21.2801 42.5456C21.784 42.6143 22.2598 42.6143 22.7637 42.5799C23.0285 42.5628 23.3003 42.5713 23.5755 42.5798C23.8531 42.5884 24.1342 42.5972 24.4153 42.5799C25.3391 42.5112 26.2629 42.4425 27.2147 42.3737C27.2747 42.3737 27.3347 42.3638 27.3904 42.3547H27.3904L27.3905 42.3547C27.4387 42.3467 27.4837 42.3393 27.5226 42.3393C28.0872 42.3941 28.6438 42.3617 29.1968 42.3295C29.6858 42.301 30.1718 42.2727 30.6579 42.305C30.7219 42.3128 30.7845 42.3153 30.8459 42.3177H30.846C31.0531 42.3259 31.2474 42.3335 31.4417 42.5456C31.5537 42.683 31.7216 42.5456 31.7496 42.2706C31.7496 42.0709 31.8284 42.0324 31.9604 41.9677L31.9736 41.9613C32.1695 41.8582 32.3935 41.8926 32.5894 41.9957C32.6454 41.9957 32.7294 42.0644 32.7294 42.0988C32.7508 42.1776 32.7067 42.1962 32.6597 42.2159C32.6453 42.222 32.6306 42.2282 32.6174 42.2362C32.5712 42.2362 32.5334 42.2467 32.4995 42.256C32.4718 42.2637 32.4466 42.2706 32.4215 42.2706C32.3935 42.305 32.3655 42.3393 32.3095 42.3393C32.3375 42.3737 32.3655 42.4081 32.3935 42.4081L32.4531 42.423C32.5667 42.4518 32.6658 42.4768 32.7854 42.4768C33.4572 42.4081 34.1571 42.4081 34.8289 42.4425C34.8849 42.4768 34.9969 42.4081 34.9969 42.3737C35.0249 42.305 34.9409 42.2706 34.8849 42.2706C34.8286 42.243 34.7723 42.2487 34.7178 42.2542C34.6369 42.2624 34.5599 42.2702 34.493 42.1675H34.8849C35.0808 42.1675 35.2768 42.1675 35.4168 42.4425C35.4728 42.5456 35.5847 42.5799 35.6967 42.5112C36.1726 42.1675 36.7045 42.2019 37.1804 42.3393C37.6574 42.4412 38.1499 42.4865 38.6349 42.531H38.6349L38.6351 42.5311C38.8046 42.5466 38.9732 42.5621 39.1399 42.5799C39.4583 42.6309 39.7767 42.6567 40.0917 42.6822L40.0918 42.6822C40.4137 42.7082 40.7322 42.734 41.0434 42.7861C41.21 42.8073 41.379 42.8241 41.549 42.841L41.5491 42.841L41.5492 42.841L41.5492 42.841C42.208 42.9066 42.8839 42.9739 43.5069 43.3017C43.5629 43.336 43.6188 43.3704 43.6748 43.336C44.0558 43.3138 44.4133 43.4503 44.7701 43.5865C44.9638 43.6605 45.1574 43.7344 45.3544 43.7828C46.9221 44.1265 48.2378 45.0201 49.4975 46.1542C49.5394 46.1928 49.5774 46.2411 49.6159 46.29L49.6159 46.29C49.6802 46.3716 49.7458 46.4549 49.8334 46.4979C50.2573 46.6816 50.3924 47.0834 50.5356 47.5091C50.5473 47.5437 50.559 47.5785 50.5709 47.6133L50.5892 47.6664C50.6043 47.7313 50.6153 47.7961 50.6261 47.8597V47.8597C50.6554 48.0318 50.6829 48.1939 50.7852 48.3194C51.0091 48.5256 50.9811 48.7319 50.8411 49.0068C50.6452 49.3849 50.5892 49.4192 50.3373 49.1443C50.1813 48.9675 50.0408 48.7718 49.9002 48.5762C49.7128 48.3152 49.5255 48.0543 49.3015 47.8383C48.8536 47.3915 48.3777 47.0478 47.8459 46.7729C47.23 46.4292 46.5893 46.2382 45.9486 46.0473L45.9485 46.0473C45.6281 45.9518 45.3078 45.8564 44.9905 45.7418C44.8468 45.6867 44.7031 45.6457 44.5612 45.6052C44.2609 45.5196 43.969 45.4363 43.7028 45.2263C43.6468 45.1919 43.5349 45.1575 43.4509 45.1575C42.919 45.2263 42.4151 45.0544 41.9112 44.8826C41.7153 44.8139 41.5193 44.8139 41.3234 44.8139C40.5886 44.8396 39.8537 44.7494 39.1189 44.6592C38.874 44.6291 38.629 44.5991 38.3841 44.5733C38.3001 44.5733 38.2161 44.5733 38.1601 44.5046C37.4883 44.1265 36.7604 44.0234 36.0326 44.0234C35.8443 44.0098 35.6516 43.9854 35.4581 43.961L35.458 43.961C35.1623 43.9236 34.8645 43.8859 34.577 43.8859C33.9331 43.8172 33.3173 43.9203 32.7294 44.1265C31.8134 44.5121 30.8484 44.4771 29.9032 44.4428L29.7061 44.4358C28.5864 44.4358 27.4386 44.4358 26.3189 44.4702C25.8262 44.4977 25.3335 44.5142 24.8409 44.5307C24.1018 44.5554 23.3628 44.5802 22.6238 44.642C22.0079 44.6764 21.392 44.7108 20.7762 44.8826C20.1044 45.0888 19.4045 45.1919 18.7047 45.2607C18.065 45.3167 17.4626 45.4873 16.8519 45.6602C16.7143 45.6992 16.5762 45.7383 16.4372 45.7762C15.715 45.9618 14.9928 46.1845 14.2706 46.4072C13.7891 46.5556 13.3076 46.7041 12.8261 46.8416C11.7623 47.1509 10.7265 47.4946 9.69079 47.9414C9.2149 48.1476 8.73902 48.3538 8.23513 48.5256C7.0874 48.8693 6.02365 49.4536 4.9599 50.0378C4.74995 50.141 4.54 50.2355 4.33005 50.33C4.1201 50.4245 3.91015 50.519 3.7002 50.6221C3.438 50.7187 3.20037 50.7248 2.94129 50.6122C2.84298 50.5921 2.74833 50.5534 2.66884 50.4996C2.39759 50.3929 2.11647 50.2907 1.85263 50.2097C1.23677 49.9691 0.844866 49.3505 0.760885 48.6287C0.732892 48.2163 0.844866 48.0101 1.1248 47.907C2.09217 47.5945 3.02867 47.1809 3.96549 46.7658L4.15501 44.1839C4.21026 44.0448 4.25401 43.9048 4.2972 43.7667L4.29721 43.7666C4.38859 43.4743 4.47746 43.19 4.6675 42.9382C4.6995 42.8847 4.73556 42.7758 4.74166 42.6927C4.72443 42.1627 4.90068 41.6736 5.07693 41.1845C5.14702 40.9944 5.16125 40.8005 5.17548 40.6066C5.2079 39.8781 5.33459 39.156 5.46128 38.4339C5.50351 38.1933 5.54574 37.9526 5.58447 37.7116C5.59057 37.6285 5.59667 37.5454 5.6566 37.4938C6.01264 36.8499 6.14929 36.1354 6.20215 35.4153C6.22688 35.2297 6.26067 35.0404 6.29463 34.8502C6.34648 34.5597 6.39871 34.2671 6.41959 33.9826C6.52222 33.3493 6.48315 32.7343 6.35826 32.1413C6.11143 31.2138 6.20995 30.261 6.30645 29.3276L6.32646 29.133L6.32646 29.133C6.40778 28.0251 6.49114 26.8895 6.54453 25.7798C6.55797 25.2908 6.58035 24.8024 6.60272 24.314C6.63628 23.5814 6.66985 22.8489 6.67325 22.1143C6.69004 21.503 6.70684 20.8918 6.61191 20.273C6.49312 19.5969 6.46016 18.8988 6.45512 18.2026C6.45599 17.5666 6.36114 16.9613 6.26497 16.3475L6.26495 16.3474C6.24329 16.2091 6.22156 16.0704 6.20084 15.9308C6.10246 15.206 5.97393 14.4792 5.84539 13.7523L5.84537 13.7523C5.75969 13.2677 5.674 12.7832 5.59725 12.2993C5.42313 11.2298 5.21904 10.1861 4.93117 9.13673L4.93116 9.1367L4.93115 9.13668C4.79813 8.65451 4.66511 8.17233 4.56206 7.66435C4.50093 7.30419 4.44272 7.0531 4.39411 6.8434C4.2869 6.38089 4.22635 6.11971 4.28404 5.33379C4.2155 5.12039 4.27955 4.72577 4.3436 4.33114L4.34361 4.33114C4.40766 3.93652 4.47171 3.54189 4.40317 3.3285C4.33971 3.04585 4.358 2.79658 4.49006 2.52716C4.62618 2.20235 4.76433 1.84985 4.87252 1.52315C5.11277 0.927035 5.64399 0.573285 6.23664 0.529873C6.57384 0.52485 6.7333 0.646976 6.79676 0.929617C6.94076 1.69319 6.9045 2.40896 6.86848 3.11999C6.82869 3.90545 6.7892 4.68512 6.99332 5.51707C7.1571 6.1281 7.23385 6.65717 7.3177 7.23516C7.34666 7.43483 7.37648 7.64034 7.41102 7.85708C7.42261 7.90221 7.42575 7.95463 7.42912 8.01074ZM6.07571 39.8957C6.03017 40.062 5.97961 40.2466 5.92158 40.4232L5.87157 40.5272C5.84938 40.5506 5.82206 40.5668 5.79606 40.5651C5.7402 40.5613 5.7463 40.4782 5.75037 40.4228C5.79149 40.2448 5.83312 40.0598 5.87476 39.8748L5.87481 39.8746C5.91647 39.6895 5.95813 39.5044 5.99928 39.3263C6.01528 39.2995 6.03775 39.2802 6.06022 39.2608C6.08269 39.2414 6.10517 39.2221 6.12117 39.1953C6.12756 39.2107 6.1341 39.2241 6.14017 39.2365C6.15676 39.2703 6.16984 39.2971 6.16686 39.3376C6.19276 39.3672 6.19073 39.3949 6.18056 39.5334C6.14815 39.6313 6.11368 39.7571 6.07572 39.8957L6.07571 39.8957ZM6.7644 34.2564C6.85449 33.7968 6.84542 33.318 6.83642 32.8434C6.83198 32.6089 6.82755 32.3754 6.83512 32.1458L6.96117 30.4285C7.0483 29.6702 7.05649 28.9065 7.06474 28.1379C7.07122 27.5349 7.07772 26.9288 7.12242 26.3199C7.1664 25.7207 7.18316 25.1242 7.19989 24.5286C7.22493 23.6373 7.24992 22.7481 7.36595 21.8549C7.36931 21.8092 7.36359 21.7713 7.35844 21.7372C7.35424 21.7094 7.35043 21.6841 7.35225 21.6592C7.36242 21.5207 7.37868 21.2991 7.46044 21.3325C7.60642 21.3424 7.57943 21.4237 7.54813 21.518C7.53151 21.5681 7.51368 21.6218 7.51984 21.6705C7.57163 21.7297 7.5635 21.8405 7.52947 21.9217C7.39839 22.9427 7.40695 23.9732 7.41552 25.0036C7.42259 25.6721 7.3738 26.3369 7.325 27.0016C7.32146 27.1766 7.312 27.3481 7.30266 27.5176C7.28381 27.8597 7.26541 28.1935 7.29697 28.5306C7.31333 28.7328 7.28657 28.932 7.25982 29.1312C7.23842 29.2906 7.21702 29.45 7.21768 29.6108C7.22157 29.6853 7.21925 29.7594 7.21694 29.8335C7.2123 29.9816 7.20766 30.1297 7.25268 30.2812C7.25654 30.3117 7.26161 30.3435 7.26681 30.3762C7.28555 30.4938 7.30584 30.6212 7.27601 30.7282C7.18471 31.1164 7.23549 31.4833 7.28679 31.8539C7.30427 31.9802 7.32182 32.107 7.33381 32.2352C7.39268 32.9628 7.36775 33.6849 7.09144 34.3899C7.04152 34.4917 7.03833 34.6126 7.03536 34.7254C7.0344 34.7618 7.03346 34.7974 7.03098 34.8311C7.01675 35.025 6.97458 35.217 6.87859 35.3775L6.7887 35.455C6.7628 35.4254 6.73691 35.3958 6.71304 35.3385C6.72477 35.1787 6.73051 35.0121 6.73648 34.8391C6.74292 34.6522 6.74962 34.4578 6.7644 34.2564ZM7.56157 20.3373L7.54937 20.5034C7.54733 20.5311 7.51737 20.557 7.48944 20.5551C7.46151 20.5532 7.43561 20.5236 7.43561 20.5236C7.41911 20.3932 7.40864 20.2633 7.39839 20.1361L7.39839 20.1361C7.38656 19.9894 7.37504 19.8465 7.35492 19.7109C7.3573 19.6785 7.36857 19.6562 7.3779 19.6377C7.3845 19.6246 7.39014 19.6135 7.39098 19.602L7.46867 19.6908C7.54441 19.8473 7.55027 20.0326 7.55553 20.1994C7.55705 20.2472 7.55851 20.2936 7.56157 20.3373ZM7.30215 18.9001C7.30418 18.8724 7.33822 18.7912 7.33822 18.7912C7.42201 18.7969 7.41591 18.88 7.41184 18.9354L7.40371 19.0462C7.39964 19.1016 7.36968 19.1274 7.33972 19.1532C7.3421 19.1207 7.3342 19.0971 7.32765 19.0776C7.32302 19.0638 7.31908 19.052 7.31992 19.0405C7.29605 18.9832 7.29809 18.9555 7.30215 18.9001ZM6.69218 36.0051C6.69624 35.9497 6.70031 35.8943 6.72824 35.8962C6.81407 35.8742 6.80797 35.9573 6.77597 36.0108C6.77394 36.0385 6.74397 36.0643 6.71401 36.0901C6.71503 36.0763 6.70906 36.0619 6.70309 36.0476C6.69713 36.0333 6.69116 36.019 6.69218 36.0051ZM7.44888 35.6388L7.41688 35.6923L7.39302 35.635L7.44888 35.6388ZM7.79538 33.2128C7.79416 33.2294 7.79174 33.247 7.78932 33.2647C7.77965 33.3353 7.76997 33.4059 7.83701 33.4104C7.89287 33.4142 7.90303 33.2757 7.9071 33.2203C7.91117 33.1649 7.8873 33.1076 7.85937 33.1058C7.79396 33.0791 7.79485 33.1281 7.79574 33.1772C7.79597 33.1894 7.79619 33.2017 7.79538 33.2128ZM29.794 14.7439L29.988 14.6065C30.273 14.4271 30.5764 14.2866 30.8797 14.1461C31.1072 14.0407 31.3347 13.9353 31.5545 13.8135C32.4003 13.4124 33.2498 13.0881 34.1273 12.8232C34.2088 12.8113 34.2954 12.7899 34.3839 12.7679C34.5255 12.7329 34.672 12.6966 34.8108 12.6959C34.9843 12.6523 35.2202 12.6041 35.3322 12.8422C35.4059 13.0678 35.3305 13.3197 35.227 13.5121C35.172 13.6701 35.0788 13.8155 34.9856 13.961L34.9856 13.961C34.3013 14.8429 33.7877 15.8816 33.4411 17.0004C33.4332 17.0365 33.4196 17.0708 33.4055 17.1064C33.3831 17.1632 33.3593 17.2232 33.3553 17.2992C33.3539 17.4022 33.369 17.5039 33.4052 17.5957C32.5013 19.6019 31.546 21.5664 30.4894 23.4488L30.3859 23.6412C30.3093 23.9173 30.175 24.1584 30.0362 24.4076L30.0361 24.4077C30.0011 24.4706 29.9658 24.534 29.931 24.5986C29.134 25.9969 28.2568 27.2934 27.3133 28.5177C27.2872 28.5488 27.2596 28.5769 27.2327 28.6043C27.1744 28.6638 27.1193 28.72 27.0887 28.796C26.8364 29.332 26.5127 29.7901 26.1889 30.2481C25.9731 30.5535 25.7573 30.8589 25.5626 31.1873C25.4694 31.3328 25.3519 31.4954 25.2307 31.5813C25.1245 31.6566 25.0445 31.7743 24.9633 31.8936C24.8591 32.0468 24.753 32.2027 24.5874 32.2755C24.3266 32.7968 23.9694 33.2008 23.6086 33.6088C23.4162 33.8263 23.2229 34.045 23.0426 34.2832C23.0211 34.3112 22.9997 34.3396 22.9783 34.368C22.8006 34.6043 22.6211 34.8427 22.3331 34.9052C22.2221 34.9442 22.1289 35.0896 22.0599 35.2179C21.9807 35.3931 21.9117 35.5214 21.7802 35.6542C21.1752 36.3609 20.5459 37.0848 19.9025 37.7789C19.5459 38.1393 19.1653 38.4803 18.7813 38.8242C18.5991 38.9875 18.4161 39.1514 18.2345 39.3184C17.9706 39.5539 17.7129 39.7961 17.4559 40.0375L17.4557 40.0377C16.8704 40.5877 16.2892 41.1338 15.649 41.5876C15.4551 41.7251 15.2611 41.8626 15.1054 42.0126C14.9152 42.2268 14.7111 42.4112 14.4789 42.5361C14.0733 42.7046 13.7236 42.9921 13.374 43.2796L13.3739 43.2796C13.2129 43.4109 13.0401 43.4916 12.8728 43.5697C12.6518 43.6729 12.4406 43.7715 12.2793 43.9762L12.1855 44.0427C11.1393 44.3533 10.0931 44.6905 9.04694 45.0544C8.85307 45.1224 8.68661 45.1568 8.52044 44.9578C8.52797 44.9558 8.53552 44.9537 8.54306 44.9513H8.51507L8.52044 44.9578C8.47553 44.9699 8.43094 44.9772 8.38845 44.9841C8.33224 44.9933 8.27974 45.0018 8.23513 45.0201C7.71468 45.1692 7.21574 45.3711 6.7183 45.5849C6.73598 45.4504 6.78645 45.3193 6.84627 45.2081C6.90125 45.05 6.99446 44.9046 7.08767 44.7592L7.08769 44.7591C7.77199 43.8772 8.28558 42.8385 8.63221 41.7198C8.6401 41.6836 8.65367 41.6493 8.66774 41.6137C8.6902 41.5569 8.71394 41.4969 8.71793 41.4209C8.71934 41.318 8.70427 41.2163 8.66804 41.1245C9.57192 39.1182 10.5272 37.1537 11.5839 35.2713L11.6874 35.0789C11.764 34.8028 11.8983 34.5617 12.0371 34.3126L12.0372 34.3124L12.0375 34.3118L12.0375 34.3117C12.0724 34.2491 12.1076 34.1859 12.1422 34.1216C12.9392 32.7232 13.8165 31.4268 14.7599 30.2024C14.7861 30.1714 14.8136 30.1433 14.8405 30.1159L14.8405 30.1159L14.8405 30.1159L14.8405 30.1159C14.8989 30.0564 14.954 30.0002 14.9846 29.9241C15.2368 29.3882 15.5606 28.9301 15.8843 28.472L15.8843 28.472C16.1002 28.1666 16.316 27.8612 16.5106 27.5328C16.6039 27.3873 16.7213 27.2247 16.8425 27.1388C16.9487 27.0635 17.0288 26.9458 17.11 26.8265C17.2142 26.6734 17.3203 26.5175 17.4859 26.4447C17.7467 25.9233 18.1039 25.5193 18.4646 25.1114L18.4647 25.1113L18.4647 25.1113C18.657 24.8938 18.8504 24.6751 19.0306 24.4369C19.0522 24.4089 19.0735 24.3805 19.0949 24.3521C19.2727 24.1159 19.4522 23.8774 19.7402 23.8149C19.8512 23.776 19.9444 23.6305 20.0134 23.5022C20.0926 23.327 20.1616 23.1988 20.293 23.0659C20.8981 22.3592 21.5274 21.6353 22.1707 20.9412C22.5273 20.5808 22.9079 20.2399 23.2919 19.8959L23.292 19.8959L23.2921 19.8958L23.2922 19.8957L23.2923 19.8956C23.4744 19.7324 23.6573 19.5686 23.8387 19.4017C24.1027 19.1662 24.3605 18.9239 24.6175 18.6825C25.2029 18.1324 25.784 17.5863 26.4242 17.1325L26.4242 17.1325C26.6182 16.995 26.8121 16.8576 26.9678 16.7075C27.158 16.4933 27.3622 16.3089 27.5944 16.184C28 16.0156 28.3497 15.728 28.6993 15.4405L28.6993 15.4405C28.8604 15.3092 29.0332 15.2286 29.2004 15.1505C29.4214 15.0473 29.6327 14.9487 29.794 14.7439ZM16.1214 43.0429C17.1916 42.3045 18.1978 41.4329 19.1311 40.4687C19.2225 40.378 19.3137 40.2868 19.4049 40.1957C20.1497 39.4517 20.8963 38.7059 21.751 38.1354C21.8098 38.0541 21.8928 37.9556 21.9897 37.8868C22.0972 37.792 22.1722 37.6587 22.2468 37.5262C22.3308 37.377 22.4142 37.2288 22.5426 37.1378C22.8143 36.9223 23.0326 36.6389 23.2491 36.3578L23.2491 36.3578C23.4078 36.1519 23.5654 35.9472 23.7425 35.7714C23.8349 35.6751 23.9284 35.5811 24.0215 35.4874L24.0216 35.4874L24.0216 35.4873C24.4096 35.0971 24.792 34.7125 25.0701 34.1954C25.3992 33.9424 25.6463 33.5822 25.8955 33.2189C26.1496 32.8485 26.4059 32.4748 26.7538 32.2082C26.8592 32.1066 26.9453 31.9642 27.0371 31.8124L27.0371 31.8124L27.0372 31.8122C27.081 31.7398 27.1261 31.6652 27.1752 31.592C27.2442 31.4638 27.3131 31.3355 27.3961 31.237C27.4575 31.152 27.5191 31.0676 27.5806 30.9832L27.5806 30.9832C27.9901 30.4218 28.3957 29.8658 28.7012 29.2007C28.7633 29.0635 28.8487 28.9341 28.9277 28.8145C28.9495 28.7814 28.9709 28.749 28.9911 28.7174C29.6092 27.7634 30.2273 26.8094 30.8211 25.8726C31.0663 25.5004 31.2834 25.0686 31.4484 24.5946C31.4586 24.5476 31.4791 24.4537 31.4026 24.4285C31.3886 24.3988 31.3159 24.4503 31.3057 24.4973C30.8294 25.2701 30.3103 26.0204 29.7905 26.7718C29.4098 27.3221 29.0287 27.8729 28.6637 28.4336C27.8145 29.7896 26.9372 31.086 25.9938 32.3104C25.7834 32.5831 25.5761 32.8569 25.3694 33.1297L25.3693 33.1299L25.3691 33.1301C24.8461 33.8207 24.3275 34.5054 23.7749 35.1531C23.1447 35.92 22.4622 36.6206 21.777 37.324L21.7769 37.3241C21.6128 37.4926 21.4485 37.6612 21.2847 37.831C21.1896 37.9381 21.0875 38.0303 20.9854 38.1225L20.9854 38.1225L20.9854 38.1225L20.9854 38.1226L20.9853 38.1226C20.8833 38.2148 20.7812 38.307 20.6861 38.4141C19.8079 39.4334 18.8494 40.3509 17.8769 41.2387C17.6189 41.4649 17.3683 41.7068 17.1177 41.9487C16.6915 42.3601 16.2653 42.7715 15.8027 43.1055C15.9087 43.0839 16.015 43.063 16.1214 43.0429ZM20.3222 20.5847C21.177 20.0142 21.9236 19.2684 22.6683 18.5244C22.7596 18.4333 22.8508 18.3422 22.9422 18.2514C23.9212 17.24 24.9804 16.3305 26.1095 15.5698L26.2792 15.4495C26.3175 15.462 26.3557 15.4746 26.38 15.4574L26.38 15.4575C26.3697 15.5044 26.3595 15.5513 26.311 15.5857C25.8327 15.9247 25.3942 16.3481 24.9556 16.7714C24.705 17.0134 24.4544 17.2553 24.1963 17.4815C23.2239 18.3692 22.2654 19.2867 21.3872 20.3061C21.2921 20.4132 21.19 20.5054 21.0879 20.5976L21.0879 20.5976C20.9858 20.6898 20.8837 20.782 20.7886 20.8891C20.6248 21.0589 20.4605 21.2275 20.2964 21.396L20.2963 21.3961C19.6111 22.0995 18.9286 22.8001 18.2983 23.567C17.7457 24.2147 17.2272 24.8994 16.7041 25.59L16.7041 25.59C16.4974 25.863 16.29 26.1369 16.0795 26.4097C15.136 27.6341 14.2588 28.9305 13.4095 30.2865C13.0446 30.8472 12.6635 31.3981 12.2828 31.9484C11.7629 32.6997 11.2438 33.45 10.7676 34.2228C10.7573 34.2698 10.6846 34.3214 10.6706 34.2916C10.5941 34.2664 10.6146 34.1725 10.6249 34.1256C10.7898 33.6515 11.007 33.2198 11.2522 32.8475C11.846 31.9107 12.4641 30.9567 13.0821 30.0027C13.1024 29.9711 13.1237 29.9388 13.1456 29.9056C13.2245 29.7861 13.31 29.6566 13.372 29.5194C13.6775 28.8544 14.0831 28.2983 14.4926 27.7369L14.4926 27.7369C14.5542 27.6526 14.6158 27.5681 14.6771 27.4831C14.7601 27.3846 14.8291 27.2564 14.8981 27.1281C14.9472 27.0548 14.9923 26.9802 15.0361 26.9077C15.1279 26.7559 15.2141 26.6135 15.3195 26.5119C15.6673 26.2453 15.9237 25.8716 16.1778 25.5012C16.427 25.1379 16.674 24.7777 17.0032 24.5247C17.2813 24.0076 17.6637 23.623 18.0517 23.2327C18.1449 23.139 18.2384 23.045 18.3308 22.9487C18.5078 22.7729 18.6655 22.5682 18.8241 22.3623C19.0406 22.0812 19.2589 21.7978 19.5307 21.5823C19.6591 21.4913 19.7425 21.3432 19.8265 21.194C19.901 21.0615 19.9761 20.9281 20.0835 20.8333C20.1805 20.7645 20.2635 20.666 20.3222 20.5847ZM28.091 14.2843L27.9213 14.4046C27.8728 14.439 27.8345 14.4264 27.883 14.392C27.9175 14.3279 27.966 14.2935 28.0285 14.2889C28.0391 14.2814 28.0451 14.2772 28.0516 14.2758C28.06 14.2741 28.0694 14.2772 28.091 14.2843ZM21.8331 20.7044L21.7846 20.7387C21.7846 20.7387 21.7603 20.7559 21.7463 20.7261L21.7948 20.6918C21.7948 20.6918 21.8191 20.6746 21.8331 20.7044ZM33.403 43.4779H33.403C33.1674 43.5045 32.9329 43.5309 32.7014 43.5422H30.9658C30.1972 43.5037 29.4286 43.5623 28.6551 43.6213H28.6551H28.655H28.655C28.0481 43.6676 27.4381 43.7141 26.8228 43.7141C26.2172 43.7141 25.6162 43.7472 25.016 43.7802C24.118 43.8297 23.2219 43.879 22.3158 43.8172C22.2696 43.8172 22.2319 43.8276 22.198 43.837L22.1979 43.837C22.1702 43.8446 22.145 43.8516 22.1199 43.8516C21.9799 43.8516 21.756 43.8516 21.784 43.7484C21.784 43.5688 21.8676 43.5946 21.9646 43.6244C22.0161 43.6403 22.0714 43.6573 22.1199 43.6453C22.1759 43.5766 22.2878 43.5766 22.3718 43.611C23.4076 43.6797 24.4433 43.5766 25.4791 43.4735C26.1509 43.4048 26.8228 43.4048 27.4946 43.4048C27.6708 43.3934 27.844 43.3895 28.0151 43.3857H28.0152C28.3604 43.3781 28.6974 43.3706 29.0343 43.3017C29.2364 43.2635 29.4386 43.2783 29.6408 43.2932C29.8025 43.3051 29.9643 43.3169 30.126 43.3017C30.2007 43.2902 30.2753 43.2864 30.3499 43.2826C30.4992 43.2749 30.6485 43.2673 30.7978 43.1986C30.8282 43.1911 30.8599 43.182 30.8923 43.1727C31.0094 43.1392 31.1361 43.1029 31.2457 43.1298C31.6424 43.2067 32.0079 43.1116 32.3772 43.0154C32.503 42.9827 32.6293 42.9498 32.7574 42.9236C33.4852 42.7861 34.213 42.7518 34.9409 43.0267C35.0467 43.0787 35.1685 43.0717 35.2821 43.0652L35.2823 43.0652C35.3189 43.0631 35.3547 43.0611 35.3888 43.0611C35.5847 43.0611 35.7807 43.0955 35.9486 43.1986L36.0326 43.3017C36.0046 43.336 35.9766 43.3704 35.9206 43.4048C35.7592 43.4048 35.5913 43.4127 35.4169 43.421H35.4169H35.4168H35.4168C35.2284 43.4299 35.0324 43.4391 34.8289 43.4391C34.3606 43.3701 33.8797 43.4243 33.4031 43.4779H33.403H33.403ZM40.1757 43.6797C40.2763 43.7106 40.4053 43.7415 40.5472 43.7755L40.5473 43.7755L40.5473 43.7756L40.5474 43.7756C40.7212 43.8172 40.9146 43.8635 41.0994 43.9203C41.1554 43.9203 41.2394 43.989 41.2394 44.0578C41.2394 44.1265 41.1554 44.1265 41.0994 44.1265C40.9175 44.0921 40.7285 44.0578 40.5396 44.0234C40.3506 43.989 40.1617 43.9547 39.9797 43.9203C39.9517 43.9031 39.9307 43.8773 39.9097 43.8516C39.8887 43.8258 39.8677 43.8 39.8397 43.7828C39.8456 43.7792 39.8511 43.7756 39.8564 43.7721C39.8646 43.7666 39.8723 43.7612 39.8796 43.756L39.8798 43.7558C39.9127 43.7325 39.9387 43.7141 39.9797 43.7141C40.0077 43.6797 40.0357 43.6797 40.1757 43.6797ZM43.2829 44.4702C43.059 44.4358 42.779 44.3671 42.5271 44.2983C42.4711 44.2983 42.4431 44.2296 42.4711 44.1952C42.4804 44.1838 42.4898 44.1685 42.4991 44.1532C42.5178 44.1227 42.5364 44.0921 42.5551 44.0921C42.7566 44.0715 42.928 44.1622 43.0993 44.253C43.2135 44.3135 43.3277 44.374 43.4509 44.4014C43.4789 44.4014 43.4789 44.4358 43.4789 44.4702L43.4509 44.5046C43.4257 44.5046 43.4062 44.4976 43.3847 44.49C43.3584 44.4806 43.3292 44.4702 43.2829 44.4702ZM20.7762 43.7141H20.9442C20.9722 43.7141 21.0001 43.7484 21.0001 43.7828C21.0001 43.8172 20.9721 43.8516 20.9721 43.8516C20.8422 43.8835 20.7122 43.908 20.585 43.932C20.4383 43.9596 20.2953 43.9866 20.1603 44.0234C20.1275 44.0234 20.1044 44.0116 20.0851 44.0018C20.0716 43.9949 20.06 43.989 20.0484 43.989L20.1323 43.8859C20.2846 43.7791 20.4706 43.7553 20.6379 43.7339L20.638 43.7338C20.686 43.7277 20.7325 43.7217 20.7762 43.7141ZM19.3485 44.1609C19.3205 44.1609 19.2366 44.1265 19.2366 44.1265C19.2366 44.0234 19.3205 44.0234 19.3765 44.0234H19.4885C19.5445 44.0234 19.5725 44.0578 19.6005 44.0921C19.5677 44.0921 19.5445 44.1039 19.5253 44.1137C19.5117 44.1206 19.5001 44.1265 19.4885 44.1265C19.4325 44.1609 19.4045 44.1609 19.3485 44.1609ZM36.5925 43.3704C36.5365 43.3704 36.4805 43.3704 36.4805 43.336C36.4525 43.2329 36.5365 43.2329 36.5925 43.2673C36.6205 43.2673 36.6485 43.3017 36.6765 43.336C36.6625 43.336 36.6485 43.3446 36.6345 43.3532C36.6205 43.3618 36.6065 43.3704 36.5925 43.3704ZM36.1726 42.4768L36.2286 42.5112L36.1726 42.5456V42.4768ZM33.7092 42.2706C33.7168 42.2706 33.7246 42.2709 33.7325 42.2713C33.7422 42.2719 33.752 42.2726 33.7618 42.2734C33.8335 42.2789 33.9051 42.2844 33.9051 42.2019C33.9051 42.1331 33.7651 42.1331 33.7092 42.1331C33.6532 42.1331 33.5972 42.1675 33.5972 42.2019C33.5748 42.2844 33.6241 42.2789 33.6733 42.2734C33.6797 42.2727 33.686 42.2719 33.6922 42.2714C33.698 42.2709 33.7037 42.2706 33.7092 42.2706ZM20.2887 37.9814L20.2402 38.0158C20.2542 38.0455 20.2784 38.0284 20.2784 38.0284L20.3269 37.994C20.3129 37.9642 20.2887 37.9814 20.2887 37.9814ZM75.3042 20.7567C75.3114 20.7583 75.3188 20.7601 75.3262 20.7622L75.322 20.7349C75.6236 20.5258 75.6196 20.4601 75.6086 20.2784C75.6047 20.2148 75.6 20.1371 75.6072 20.0341C75.661 20.0074 75.7218 19.8551 75.6468 19.872C75.6306 19.8287 75.566 19.8595 75.5157 19.8965C75.4856 19.8987 75.4612 19.9041 75.4474 19.9178L75.4356 19.933C75.3033 20.1027 75.2499 20.1714 75.239 20.2462C75.2315 20.297 75.2437 20.3507 75.2642 20.4409C75.2802 20.5113 75.3013 20.6039 75.322 20.7349L75.3008 20.7495L75.3042 20.7567ZM71.1398 19.7531C71.2333 19.4153 71.3442 19.0723 71.4609 18.7471C71.4928 18.6519 71.5372 18.5948 71.6325 18.5631C71.7468 18.5251 71.8611 18.4871 71.9183 18.4046C72.1724 18.0873 72.4645 18.1383 72.7755 18.3099C72.8383 18.3414 72.9037 18.3558 72.9669 18.3698C73.0058 18.3784 73.0439 18.3868 73.0802 18.399C73.3404 18.4817 73.4482 18.6785 73.4734 18.9452C73.5618 19.7833 73.4724 20.5959 73.1609 21.3767C72.9065 22.0749 72.7917 22.8113 72.7214 23.5541C72.7214 23.6176 72.7467 23.6938 72.7785 23.7256C72.8673 23.8018 72.9499 23.732 73.0134 23.6686C73.528 23.1165 73.9411 22.5136 74.3415 21.8726C74.4033 21.7711 74.4644 21.6673 74.5261 21.5625L74.5263 21.5623L74.5264 21.5621C74.642 21.3657 74.7596 21.1658 74.888 20.9714C74.9861 20.8368 75.1077 20.714 75.3042 20.7567C75.3501 20.8612 75.3101 20.9623 75.2705 21.0626C75.2557 21.1001 75.241 21.1374 75.2307 21.1748C75.2138 21.2298 75.1891 21.2827 75.1643 21.3356C75.1188 21.433 75.0733 21.5304 75.0762 21.641C75.1425 21.5956 75.1751 21.5766 75.1901 21.5679C75.1953 21.5648 75.1984 21.563 75.2 21.5618C75.201 21.561 75.2014 21.5605 75.2013 21.56C75.2013 21.5594 75.2006 21.5589 75.1997 21.5582C75.1928 21.5528 75.1695 21.5347 75.256 21.378L75.2561 21.3779C75.7518 20.4513 75.9997 19.988 76.5653 19.0805C76.5754 19.0641 76.5861 19.0476 76.5969 19.0309L76.5972 19.0306C76.6734 18.9129 76.7575 18.7829 76.7084 18.6204C76.5245 18.8062 76.3655 19.0047 76.2605 19.2453C76.1842 19.3977 76.0825 19.5373 75.9237 19.6324C75.911 19.6578 75.8729 19.6705 75.8666 19.6514C75.8349 19.6197 75.8031 19.5879 75.7905 19.5498C75.8021 19.515 75.8095 19.476 75.817 19.4364C75.8299 19.3677 75.8432 19.2975 75.8795 19.2451C76.102 18.8326 76.3435 18.4137 76.585 17.9948C76.763 17.7028 77.0551 17.6903 77.3471 17.6778C77.3852 17.6651 77.436 17.6906 77.4614 17.7033C77.6012 17.817 77.6657 17.9759 77.7276 18.1281C77.7555 18.1969 77.783 18.2644 77.8165 18.3257C77.8863 18.4718 77.8354 18.6368 77.7274 18.7574C77.6032 18.931 77.4955 19.1153 77.388 19.2992L77.388 19.2993C77.2204 19.586 77.0533 19.872 76.825 20.1155C76.7805 20.1726 76.736 20.2297 76.736 20.2932C76.4468 21.1067 76.4315 21.1348 76.1618 21.6295C76.1053 21.7331 76.0377 21.8572 75.954 22.0133C75.3693 23.0542 74.6703 24.0061 73.9396 24.9262C73.552 25.4149 72.9932 25.5796 72.4346 25.3634C72.0665 25.2108 71.7364 24.982 71.47 24.6898C71.2098 24.4166 71.0704 24.061 71.0262 23.6737C70.9948 23.134 71.0014 22.5816 71.0526 22.0357C71.0526 21.9722 71.0463 21.8896 70.9955 21.8642C70.9172 21.797 70.8634 21.8532 70.8083 21.911L70.808 21.9113C70.8007 21.9189 70.7934 21.9265 70.786 21.9339C70.6398 22.1306 70.4937 22.3274 70.3666 22.5178C70.3158 22.577 70.2875 22.6475 70.2592 22.7181C70.2451 22.7533 70.231 22.7886 70.214 22.8224C70.0551 23.108 69.8074 23.3174 69.5533 23.5077C69.6357 23.8189 69.4958 24.0981 69.3559 24.3774C69.3352 24.4188 69.3153 24.4607 69.2953 24.5027L69.2953 24.5027C69.2052 24.692 69.1144 24.8828 68.9429 25.0438C68.867 25.1195 68.8153 25.2275 68.7589 25.3452C68.7444 25.3753 68.7296 25.4062 68.7141 25.4373C68.5487 25.8308 68.3136 26.2053 68.0213 26.5352C67.9832 26.5796 67.9498 26.6225 67.9165 26.6653L67.9164 26.6654L67.9164 26.6655C67.883 26.7083 67.8497 26.751 67.8117 26.7954C67.1764 27.4299 66.605 27.3661 66.0276 26.7752C65.713 26.4663 65.4691 26.1242 65.3235 25.742C65.1867 25.9881 65.0594 26.2372 65.0419 26.5318C64.9051 26.7 64.8064 26.8845 64.7084 27.0678L64.7083 27.068L64.7082 27.068C64.5696 27.3273 64.4322 27.584 64.1904 27.7884C63.9363 27.9787 63.6949 28.2071 63.5169 28.4991C63.161 29.083 62.5895 29.3366 61.9165 29.3489C60.8244 29.3736 59.9422 28.9476 59.2761 28.0901C59.1238 27.8869 59.0478 27.6582 58.9908 27.4233C58.8958 27.0106 58.8326 26.5661 58.8583 26.1344C58.8665 25.996 58.8739 25.8571 58.8812 25.7181L58.8813 25.7175L58.8813 25.7169L58.8813 25.7164C58.9142 25.0971 58.9473 24.474 59.0565 23.8679C59.1851 23.1676 59.2755 22.4674 59.3662 21.7641L59.3662 21.764L59.3662 21.7639L59.3663 21.7639L59.3664 21.763C59.3924 21.5613 59.4184 21.3594 59.4454 21.1571C59.4582 21.0048 59.452 20.8587 59.4457 20.7127C59.4394 20.6302 59.3569 20.573 59.3124 20.6301C59.2772 20.6608 59.2415 20.6903 59.206 20.7195C59.0439 20.8534 58.8877 20.9824 58.8042 21.2012C58.5625 21.8105 58.2955 22.4072 57.9269 22.953C57.8507 23.0418 57.8189 23.137 57.7871 23.2322C57.7399 23.3432 57.6963 23.456 57.6526 23.5691C57.5314 23.8826 57.4094 24.1981 57.2085 24.4826C57.1132 24.6413 57.0496 24.8317 57.0051 25.0158C56.8692 25.5769 56.6792 26.1167 56.4895 26.6554C56.3681 27.0005 56.2467 27.3451 56.1399 27.6945C55.8918 28.5388 55.5294 29.3576 55.1162 30.151C55.0272 30.3287 54.9382 30.5064 54.8937 30.6905C54.7537 31.1602 54.4171 31.3568 53.9537 31.2359C53.6553 31.1659 53.3697 31.0705 53.0777 30.956C52.8302 30.8479 52.6779 30.7082 52.5828 30.4859C52.4643 30.1754 52.3983 29.8583 52.3754 29.5299L52.3239 29.6516C52.2381 29.8547 52.1522 30.0578 52.0601 30.2577C51.6913 31.0575 51.2718 31.8318 50.6556 32.46C50.3252 32.8026 49.8934 32.9039 49.4427 32.8211C49.3729 32.8111 49.3031 32.7913 49.2341 32.7717L49.234 32.7717L49.2339 32.7716L49.2339 32.7716L49.2338 32.7716C49.1271 32.7413 49.0223 32.7116 48.9221 32.7192C48.3253 32.7061 48.0716 32.325 47.8751 31.8615C47.8434 31.7662 47.8117 31.6709 47.7356 31.5058C47.7002 31.3992 47.6715 31.2821 47.6489 31.1586C47.5987 31.2508 47.5403 31.3584 47.4707 31.4881C46.886 32.529 46.187 33.4809 45.4563 34.4011C45.0687 34.8897 44.5099 35.0544 43.9513 34.8382C43.5832 34.6856 43.2532 34.4569 42.9867 34.1646C42.7265 33.8915 42.5871 33.5359 42.5429 33.1485C42.5115 32.6089 42.5182 32.0565 42.5693 31.5105C42.5693 31.447 42.563 31.3645 42.5123 31.3391C42.4339 31.2718 42.3802 31.328 42.325 31.3858C42.3176 31.3935 42.3102 31.4013 42.3027 31.4088C42.1566 31.6055 42.0104 31.8022 41.8833 31.9926C41.8325 32.0518 41.8042 32.1224 41.776 32.1929C41.7618 32.2282 41.7477 32.2634 41.7307 32.2973C41.5718 32.5829 41.3241 32.7922 41.07 32.9825C41.1524 33.2937 41.0125 33.573 40.8727 33.8522C40.8519 33.8937 40.832 33.9356 40.812 33.9775C40.722 34.1668 40.6312 34.3576 40.4596 34.5186C40.3837 34.5944 40.332 34.7023 40.2756 34.8199L40.2756 34.82C40.2611 34.8502 40.2463 34.881 40.2308 34.9121C40.0654 35.3057 39.8303 35.6801 39.538 36.0101C39.5 36.0544 39.4666 36.0972 39.4333 36.14L39.4332 36.1402C39.3998 36.183 39.3665 36.2258 39.3284 36.2702C38.6931 36.9047 38.1217 36.8409 37.5443 36.2501C36.8844 35.6021 36.5357 34.8082 36.7522 33.8052C37.0323 32.6118 37.3124 31.4184 37.7829 30.2885C38.2344 29.2285 38.7429 28.213 39.353 27.2484C39.9122 26.3852 40.5603 25.5984 41.513 25.091C41.9639 24.8564 42.4148 24.7487 42.8973 24.7363C43.8052 24.7306 44.6876 24.839 45.4301 25.4807C45.4481 25.4988 45.4682 25.5162 45.4887 25.5339L45.4887 25.5339L45.4888 25.534L45.4888 25.534L45.4888 25.534C45.5763 25.6096 45.6703 25.6909 45.6394 25.8555C45.6139 25.9697 45.4043 26.0394 45.1885 25.9631C45.0235 25.9122 44.8775 25.855 44.7633 25.766C44.3825 25.4484 43.9698 25.5433 43.595 25.7526C43.1886 25.9936 42.7948 26.2727 42.4009 26.5519C42.2167 26.6978 42.0261 26.8881 41.899 27.0785C41.7314 27.3599 41.5478 27.6332 41.3628 27.9087C41.2181 28.1241 41.0725 28.3408 40.9331 28.5636C40.234 29.706 39.6872 30.9246 39.1912 32.1687C38.8478 33.0447 38.6251 33.9651 38.4658 34.8856C38.4657 34.9491 38.4911 35.0253 38.5228 35.0571C38.5672 35.127 38.6371 35.0826 38.6879 35.0445C38.8911 34.9557 38.9801 34.778 39.0691 34.6003C39.1937 34.3754 39.3228 34.155 39.4517 33.935C39.6646 33.5715 39.8769 33.2091 40.067 32.8296C40.3686 32.2891 40.7426 31.805 41.1176 31.3197C41.3194 31.0584 41.5215 30.7968 41.7128 30.5259C41.7643 30.4517 41.806 30.3711 41.8476 30.2909C41.9394 30.1139 42.0306 29.9381 42.2238 29.833C42.1094 30.1758 41.9422 30.478 41.7571 30.7862C41.5651 31.0446 41.3896 31.3249 41.2161 31.6019L41.2161 31.602C41.1254 31.7468 41.0353 31.8907 40.9436 32.0301C40.7558 32.3044 40.5915 32.597 40.427 32.8901L40.427 32.8901L40.427 32.8902L40.4269 32.8902L40.4269 32.8902C40.2298 33.2415 40.0323 33.5934 39.7933 33.9151C39.5936 34.1893 39.4062 34.5002 39.4955 34.8601C39.7488 34.7665 39.8789 34.5377 40.0089 34.3088C40.1084 34.1432 40.2072 33.9753 40.3065 33.8064C40.4926 33.4899 40.6807 33.17 40.8796 32.8554C40.9972 32.6688 41.1118 32.4793 41.2266 32.2893C41.4907 31.8526 41.7562 31.4136 42.0617 31.0023C42.3818 30.5525 42.6557 30.0564 42.9268 29.5653L42.9275 29.5641L42.9278 29.5636C42.9738 29.4802 43.0198 29.3969 43.0659 29.3141C43.2311 29.0475 43.2249 28.7745 43.1233 28.7871C43.018 28.8081 42.963 28.8962 42.91 28.9809C42.8832 29.0239 42.8568 29.066 42.8247 29.0981C42.7719 29.1509 42.7146 29.1905 42.6565 29.2279C42.75 28.8901 42.8609 28.5471 42.9777 28.222C43.0095 28.1268 43.0539 28.0697 43.1492 28.038C43.2635 28 43.3778 27.9619 43.435 27.8794C43.6892 27.5621 43.9812 27.6131 44.2922 27.7847C44.3551 27.8162 44.4204 27.8307 44.4836 27.8447C44.5225 27.8533 44.5606 27.8617 44.5969 27.8738C44.8571 27.9565 44.9649 28.1534 44.9902 28.4201C45.0785 29.2582 44.9892 30.0708 44.6776 30.8515C44.4232 31.5498 44.3084 32.2862 44.2381 33.029C44.2381 33.0924 44.2634 33.1686 44.2952 33.2004C44.384 33.2767 44.4666 33.2069 44.5301 33.1434C45.0447 32.5914 45.4578 31.9885 45.8582 31.3475C45.9201 31.2459 45.9812 31.1421 46.0429 31.0373L46.043 31.0371L46.043 31.037L46.0431 31.0368C46.1587 30.8404 46.2764 30.6406 46.4047 30.4463C46.5028 30.3116 46.6245 30.1888 46.8209 30.2316C46.8668 30.336 46.8268 30.4372 46.7872 30.5375L46.7872 30.5375C46.7724 30.575 46.7577 30.6123 46.7475 30.6496C46.7305 30.7047 46.7058 30.7575 46.681 30.8104C46.6355 30.9078 46.59 31.0052 46.5929 31.1158C46.6593 31.0704 46.6919 31.0514 46.7068 31.0427C46.7155 31.0376 46.7182 31.0361 46.718 31.0348C46.718 31.0343 46.7174 31.0338 46.7164 31.0331C46.7095 31.0277 46.6862 31.0096 46.7727 30.8528C47.1123 30.2182 47.3355 29.8009 47.6242 29.3095C47.6353 29.1748 47.6484 29.0403 47.663 28.906C47.6036 28.9837 47.5314 29.0528 47.4405 29.1073C47.4277 29.1326 47.3896 29.1453 47.3833 29.1263L47.3833 29.1262C47.3516 29.0945 47.3198 29.0627 47.3072 29.0246C47.3188 28.9898 47.3262 28.9508 47.3337 28.9113C47.3467 28.8426 47.36 28.7723 47.3963 28.7199C47.5179 28.4943 47.6453 28.2668 47.7753 28.0383C47.8062 27.8249 47.8389 27.6115 47.8715 27.3982L47.8715 27.3981C47.9896 26.6617 48.1436 25.9433 48.2986 25.2203L48.2986 25.2202C48.3694 24.8898 48.4405 24.5585 48.5084 24.224C48.572 24.0336 48.6102 23.8304 48.6103 23.64C48.617 23.1511 48.9028 22.8656 49.2395 22.6055C49.2522 22.6013 49.2663 22.5942 49.2804 22.5872C49.3087 22.5731 49.3369 22.559 49.3538 22.5675C49.6585 22.593 49.9315 22.7138 50.2044 22.8346C50.3821 22.9236 50.4518 23.1332 50.458 23.3427L50.4606 23.3938C50.4789 23.7529 50.498 24.1277 50.4129 24.4792C50.0311 25.8757 49.8334 27.3168 49.6484 28.7325C49.559 29.4816 49.5014 30.2625 49.5391 31.0117C49.5516 31.1768 49.5642 31.3419 49.634 31.4879C49.6593 31.5642 49.7292 31.5832 49.7736 31.5261C49.7929 31.5028 49.8127 31.4794 49.8326 31.4557C49.9377 31.3309 50.0483 31.1995 50.1231 31.0502C50.3329 30.663 50.5363 30.2568 50.7207 29.8569C50.9559 29.3555 51.18 28.8525 51.4041 28.3494C51.6283 27.8464 51.8524 27.3434 52.0876 26.842C52.225 26.5295 52.3784 26.2193 52.5328 25.9073C52.6355 25.6996 52.7386 25.4911 52.8377 25.2806C52.8879 25.1805 52.9517 25.0941 53.0229 25.0161C53.2186 24.1496 53.4398 23.2875 53.6925 22.4361L53.7173 22.3463C53.8062 22.0259 53.897 21.6989 53.8392 21.3505C53.8139 21.1473 53.941 21.0204 54.1124 20.9634C54.3918 20.8493 54.6903 20.7288 54.9695 20.9956C55.2976 21.0127 55.4918 21.2136 55.6889 21.4175C55.7893 21.5213 55.8904 21.6259 56.0103 21.7074C56.1309 21.8154 56.1562 21.9551 56.0862 22.1264C55.9485 22.5664 55.8369 23.0135 55.7252 23.4611C55.579 24.0467 55.4327 24.6331 55.2272 25.2052C55.1491 25.4228 55.1028 25.6564 55.0557 25.8939C55.03 26.0235 55.0041 26.1543 54.9726 26.2843C54.9324 26.4233 54.9045 26.5641 54.8766 26.7053C54.8291 26.9445 54.7814 27.1851 54.6735 27.4206C54.638 27.4914 54.6303 27.5838 54.6225 27.6784V27.6784C54.619 27.7196 54.6156 27.7611 54.6098 27.8015C54.6161 27.8206 54.6542 27.8714 54.6795 27.8841C54.724 27.8905 54.7811 27.8715 54.7938 27.8461C54.8231 27.7878 54.8516 27.7274 54.8806 27.666C54.9398 27.5406 55.001 27.4112 55.0736 27.2875C55.3342 26.6719 55.5823 26.0181 55.8176 25.3897C56.0147 24.8374 56.2182 24.3042 56.4788 23.8155L56.6695 23.4347C56.7077 23.3585 56.7585 23.257 56.7903 23.1618C56.7904 23.0983 56.8158 23.0475 56.8412 22.9967L56.8603 22.9904C56.9111 22.8888 56.962 22.7873 57.0573 22.6921C57.2282 22.2975 57.4484 21.9164 57.6652 21.5412C57.7065 21.4698 57.7476 21.3986 57.7883 21.3275L57.8028 21.2929C57.8793 21.1104 57.9473 20.9485 58.0489 20.7753C58.0362 20.7372 58.0426 20.6928 58.0553 20.6674C58.2652 20.0898 58.6845 19.6964 59.1291 19.3157C59.2054 19.2269 59.3324 19.227 59.4339 19.2778C59.5867 19.3659 59.743 19.3628 59.9001 19.3596C59.9584 19.3585 60.0167 19.3573 60.0751 19.3608C60.6655 19.4183 61.2241 19.571 61.484 20.2251C61.5157 20.3204 61.5538 20.4347 61.5473 20.5426C61.5395 20.7254 61.5452 20.9072 61.551 21.0897V21.0897V21.0898V21.0898C61.5594 21.3571 61.5679 21.6258 61.5338 21.9013C61.5006 22.1577 61.4878 22.4142 61.4749 22.6707V22.6708C61.4556 23.0555 61.4363 23.4402 61.3485 23.8249C61.3039 24.0407 61.2752 24.2566 61.2465 24.4724C61.2178 24.6883 61.1891 24.9041 61.1445 25.12C61.0535 25.4735 61.0274 25.8364 61.0013 26.1971V26.1972C60.9745 26.5683 60.9479 26.9371 60.8511 27.2911C60.8197 27.4208 60.8388 27.5442 60.8572 27.6635C60.8649 27.7136 60.8725 27.763 60.8762 27.8118C60.9711 28.415 61.1933 28.4468 61.6823 28.1361C61.8856 27.9838 62.0825 27.8125 62.2477 27.6094C62.383 27.4324 62.5293 27.2631 62.6758 27.0936L62.6759 27.0936C62.9286 26.8014 63.1816 26.5087 63.3787 26.1753C63.474 26.0166 63.5948 25.8706 63.7853 25.8073C63.7923 25.9706 63.7179 26.108 63.6443 26.2441C63.5862 26.3514 63.5287 26.4578 63.5118 26.5753L63.5308 26.569C63.5469 26.577 63.5636 26.587 63.5812 26.5975C63.6191 26.62 63.6608 26.6449 63.7086 26.658L63.6958 26.6834C63.6568 26.653 63.6118 26.6344 63.5711 26.6176C63.5522 26.6099 63.5342 26.6024 63.5181 26.5944C63.4609 26.6769 63.391 26.7848 63.3402 26.8863C63.3148 26.9371 63.3147 27.0006 63.3401 27.0133C63.3923 27.0656 63.4273 27.0233 63.4558 26.989C63.462 26.9816 63.4678 26.9746 63.4735 26.9689C63.5116 26.9245 63.5481 26.8754 63.5846 26.8262C63.6212 26.777 63.6577 26.7278 63.6958 26.6834L63.7725 26.5952L63.7725 26.5952C64.1564 26.154 64.5118 25.7456 64.7444 25.192C64.8383 24.9821 65.0014 24.8225 65.165 24.6624L65.1651 24.6623L65.1854 24.6425C65.1959 24.5407 65.2125 24.4367 65.2355 24.3304L65.2355 24.3303C65.5156 23.1369 65.7957 21.9435 66.2662 20.8137C66.7176 19.7537 67.2262 18.7382 67.8363 17.7735C68.3955 16.9104 69.0436 16.1235 69.9963 15.6162C70.4472 15.3816 70.898 15.2739 71.3806 15.2615C72.2885 15.2557 73.1709 15.3642 73.9134 16.0059C73.9314 16.024 73.9516 16.0414 73.9721 16.0592C74.0595 16.1348 74.1536 16.2161 74.1226 16.3806C74.0972 16.4949 73.8876 16.5646 73.6718 16.4883C73.5068 16.4374 73.3608 16.3802 73.2465 16.2912C72.8658 15.9735 72.453 16.0685 72.0783 16.2778C71.6719 16.5188 71.2781 16.7978 70.8844 17.0769L70.8842 17.077C70.7 17.2229 70.5094 17.4133 70.3823 17.6037C70.2147 17.885 70.0311 18.1584 69.8461 18.4338C69.7014 18.6492 69.5558 18.8659 69.4164 19.0887C68.7173 20.2311 68.1705 21.4498 67.6745 22.6939C67.3311 23.5698 67.1083 24.4903 66.949 25.4108C66.949 25.4743 66.9744 25.5505 67.0061 25.5822C67.0505 25.6521 67.1203 25.6077 67.1712 25.5696C67.3744 25.4809 67.4634 25.3032 67.5524 25.1255C67.677 24.9005 67.8061 24.6801 67.935 24.4601C68.1479 24.0966 68.3602 23.7343 68.5503 23.3547C68.8519 22.8142 69.2259 22.3302 69.6008 21.8449C69.8027 21.5836 70.0048 21.322 70.1961 21.051C70.2475 20.9768 70.2893 20.8963 70.3309 20.8161L70.3309 20.816C70.4227 20.6391 70.5139 20.4632 70.7071 20.3582C70.5927 20.701 70.4255 21.0032 70.2404 21.3114C70.0484 21.5698 69.8729 21.8501 69.6994 22.1271C69.6087 22.2719 69.5185 22.4158 69.4269 22.5553C69.239 22.8296 69.0747 23.1223 68.9102 23.4154C68.7131 23.7666 68.5156 24.1185 68.2766 24.4402C68.0769 24.7144 67.8894 25.0254 67.9788 25.3853C68.2321 25.2916 68.3622 25.0628 68.4922 24.834C68.5917 24.6684 68.6905 24.5004 68.7898 24.3315L68.7899 24.3314C68.9759 24.0149 69.164 23.6951 69.3629 23.3806C69.4804 23.194 69.595 23.0045 69.7098 22.8146L69.7099 22.8145L69.7099 22.8144C69.974 22.3777 70.2394 21.9387 70.545 21.5274C70.8651 21.0777 71.139 20.5816 71.41 20.0905L71.4706 19.981L71.5492 19.8392C71.7144 19.5727 71.7082 19.2997 71.6066 19.3123C71.5013 19.3333 71.4463 19.4214 71.3933 19.5061C71.3664 19.549 71.3401 19.5912 71.308 19.6232C71.2551 19.676 71.1978 19.7157 71.1398 19.7531ZM71.0847 19.8181C71.0995 19.808 71.1147 19.798 71.1302 19.7882L71.1398 19.7531L71.1048 19.7755C71.0977 19.7895 71.0911 19.8037 71.0847 19.8181ZM70.7449 20.3152C70.7439 20.3235 70.7432 20.3318 70.7425 20.3403L70.7403 20.3414C70.7347 20.344 70.7293 20.3467 70.7239 20.3494L70.7071 20.3582L70.7171 20.3276C70.7267 20.3236 70.7359 20.3195 70.7449 20.3152ZM70.7449 20.3152C70.9208 20.2304 70.9802 20.0793 71.0402 19.9265C71.0544 19.8901 71.0687 19.8537 71.0847 19.8181C70.9045 19.9409 70.7701 20.0884 70.7449 20.3152ZM46.8387 30.2097L46.8429 30.237C46.8355 30.235 46.8281 30.2332 46.8209 30.2316L46.8176 30.2243L46.8387 30.2097ZM46.8387 30.2097C46.818 30.0788 46.797 29.9861 46.7809 29.9157C46.7605 29.8256 46.7483 29.7719 46.7557 29.7211C46.7666 29.6462 46.8201 29.5776 46.9523 29.4079L46.9641 29.3927C46.9779 29.3789 47.0023 29.3735 47.0323 29.3713C47.0827 29.3343 47.1473 29.3036 47.1635 29.3468C47.2386 29.3299 47.1778 29.4822 47.124 29.509C47.1167 29.612 47.1215 29.6897 47.1253 29.7532C47.1363 29.9349 47.1403 30.0007 46.8387 30.2097ZM42.6014 29.2929C42.6078 29.2786 42.6145 29.2644 42.6215 29.2503L42.6215 29.2503L42.6565 29.2279L42.6469 29.263L42.6236 29.2781L42.6014 29.2929ZM42.2616 29.79C42.2868 29.5633 42.4212 29.4157 42.6014 29.2929C42.5855 29.3286 42.5712 29.365 42.5569 29.4013C42.4969 29.5541 42.4375 29.7053 42.2616 29.79ZM42.2616 29.79C42.2526 29.7943 42.2434 29.7985 42.2339 29.8024L42.2238 29.833C42.2353 29.8268 42.2471 29.8209 42.2592 29.8151C42.2599 29.8067 42.2606 29.7983 42.2616 29.79ZM75.03 21.7088C75.0072 21.7334 74.9944 21.7612 74.9899 21.7953C75.006 21.7671 75.0181 21.7377 75.0294 21.7102L75.03 21.7088ZM74.766 22.0098C74.8118 21.9333 74.8811 21.8888 74.957 21.8592C74.9271 21.9501 74.8524 21.9948 74.766 22.0098ZM76.7346 18.5991C76.7359 18.5989 76.7372 18.5987 76.7385 18.5986C76.7431 18.5981 76.7478 18.5977 76.7526 18.5973C76.7893 18.5945 76.8259 18.5917 76.8006 18.5155C76.7847 18.5314 76.7736 18.5457 76.7625 18.5599L76.7623 18.5602C76.7522 18.5731 76.7422 18.586 76.7286 18.6001C76.7305 18.5997 76.7325 18.5994 76.7346 18.5991ZM67.9947 25.5351C67.9709 25.5006 67.9542 25.4655 67.9702 25.428C67.9812 25.4627 67.9908 25.498 67.9947 25.5351ZM68.0156 25.5638C68.0275 25.5655 68.038 25.5677 68.0478 25.5697C68.0745 25.5752 68.0956 25.5795 68.1235 25.5702C68.1555 25.5748 68.1809 25.5597 68.1997 25.5485C68.2045 25.5457 68.2088 25.5431 68.2127 25.5411C68.2148 25.5401 68.2169 25.5392 68.2188 25.5386C68.1934 25.5258 68.1489 25.5195 68.1299 25.5258L68.0156 25.5638ZM75.623 19.894C75.6322 19.8937 75.6414 19.8933 75.6506 19.8926L75.6252 19.8798L75.623 19.894ZM67.5301 19.4385C67.5326 19.3786 67.5628 19.3334 67.6002 19.3001C67.5979 19.3568 67.5745 19.4029 67.5301 19.4385ZM67.6886 19.1348C67.6849 19.1857 67.667 19.2383 67.6196 19.277C67.621 19.2183 67.6391 19.1562 67.6886 19.1348ZM67.6956 19.1104C67.9149 19.0153 67.9797 18.8294 68.0484 18.6319L68.0566 18.6083C67.8134 18.6825 67.6964 18.8601 67.6956 19.1104ZM66.6652 21.0988L66.6597 21.106L66.6851 21.1187L66.6652 21.0988ZM68.708 17.5212L68.7295 17.5098C68.7988 17.473 68.8646 17.438 68.8911 17.3569C68.7983 17.3726 68.7391 17.4327 68.708 17.5212ZM68.9604 17.2335C68.9575 17.2423 68.9538 17.2509 68.9495 17.2593C68.9533 17.2507 68.9569 17.2421 68.9604 17.2335ZM69.1854 16.9873C69.1524 17.0599 69.0874 17.1146 68.9969 17.1381C69.042 17.0618 69.1103 17.017 69.1854 16.9873ZM69.2254 16.9433C69.2318 16.94 69.2381 16.937 69.2441 16.9342C69.278 16.918 69.3038 16.9057 69.2908 16.8665C69.2844 16.8475 69.2463 16.8601 69.2463 16.8601C69.2366 16.8796 69.2306 16.9101 69.2254 16.9433ZM66.5578 21.5631C66.5387 21.6329 66.5133 21.6837 66.4878 21.7344L66.5132 21.7472C66.5323 21.6774 66.5577 21.6266 66.5832 21.5758L66.5832 21.5758L66.5578 21.5631ZM52.7318 26.1955L52.7322 26.1944C52.7619 26.1164 52.7915 26.0385 52.8198 25.9603C52.7532 26.2856 52.6898 26.6112 52.6294 26.9368C52.6041 27.0772 52.58 27.2164 52.5573 27.355C52.3933 27.6886 52.248 28.0391 52.1184 28.3975C52.023 28.6451 51.9002 28.8789 51.7774 29.1127C51.6955 29.2686 51.6136 29.4245 51.5399 29.5844C51.5272 29.6098 51.47 29.6288 51.4509 29.6352C51.4492 29.6298 51.4449 29.622 51.4399 29.6129C51.4272 29.5896 51.4101 29.5582 51.4193 29.5399C51.4336 29.4875 51.4463 29.4344 51.459 29.3812C51.4972 29.2217 51.5354 29.0622 51.6165 28.9242C51.6824 28.7825 51.7409 28.637 51.7995 28.4911C51.9272 28.1731 52.0558 27.8531 52.2649 27.5659C52.3983 27.3946 52.4493 27.166 52.4875 26.9629C52.5404 26.699 52.6363 26.4468 52.7318 26.1955ZM46.5467 31.1837C46.5239 31.2082 46.5111 31.236 46.5066 31.2701C46.5227 31.2419 46.5348 31.2125 46.5461 31.185L46.5461 31.185L46.5467 31.1837ZM46.2827 31.4847C46.3285 31.4081 46.3978 31.3636 46.4737 31.334C46.4438 31.425 46.3692 31.4697 46.2827 31.4847ZM47.1397 29.3689C47.1489 29.3686 47.1581 29.3681 47.1673 29.3674L47.1419 29.3547L47.1397 29.3689ZM39.5114 35.01C39.4876 34.9754 39.4709 34.9404 39.4869 34.9028C39.4979 34.9376 39.5075 34.9728 39.5114 35.01ZM39.5323 35.0387C39.5442 35.0404 39.5547 35.0425 39.5645 35.0445C39.5913 35.05 39.6123 35.0544 39.6402 35.0451C39.6722 35.0497 39.6976 35.0345 39.7164 35.0233C39.7238 35.019 39.7301 35.0152 39.7355 35.0134C39.7101 35.0007 39.6657 34.9943 39.6466 35.0006L39.5323 35.0387ZM49.0135 30.5767L49.0153 30.5729C49.0264 30.5493 49.0364 30.5279 48.9933 30.5162L49.0135 30.5767ZM49.0081 30.6285L48.9992 30.6352C48.9714 30.6558 48.9393 30.6796 48.9932 30.7066C49.0039 30.6853 49.0101 30.6504 49.0081 30.6285ZM49.031 31.2019L49.0183 31.1638C49.012 31.1447 49.0057 31.1257 48.9866 31.132C48.9866 31.132 48.9739 31.1574 48.9802 31.1764C48.9739 31.2209 48.9992 31.2336 49.031 31.2019ZM51.0188 20.0035C50.9679 20.1685 50.8599 20.2891 50.6885 20.2826C50.2122 20.4411 49.8569 20.1361 49.8444 19.7171C49.8464 19.5935 49.8434 19.4716 49.8405 19.3502V19.35V19.3498V19.3496V19.3494C49.8335 19.053 49.8265 18.7597 49.8897 18.4536L49.9017 18.4208C49.9404 18.3153 49.9725 18.2279 50.0359 18.1299C50.1439 17.9459 50.2964 17.8317 50.5313 17.9017C50.6574 17.9298 50.7855 17.9444 50.9166 17.9593C51.023 17.9714 51.1314 17.9837 51.2423 18.0037C51.6486 18.0801 51.7818 18.2897 51.7244 18.6897C51.6988 18.9309 51.6479 19.1595 51.3875 19.2672C51.2415 19.337 51.2033 19.4766 51.1651 19.6163C51.146 19.7496 51.0824 19.8766 51.0188 20.0035ZM39.0468 28.9134C39.0493 28.8534 39.0795 28.8083 39.117 28.775C39.1146 28.8316 39.0912 28.8778 39.0468 28.9134ZM39.2053 28.6097C39.2016 28.6605 39.1838 28.7131 39.1363 28.7518C39.1377 28.6932 39.1558 28.631 39.2053 28.6097ZM39.2123 28.5853C39.4316 28.4902 39.4964 28.3042 39.5651 28.1068L39.5733 28.0831C39.3301 28.1573 39.2131 28.335 39.2123 28.5853ZM38.1819 30.5737L38.1764 30.5808L38.2018 30.5936L38.1819 30.5737ZM40.2247 26.9961L40.2462 26.9846C40.3155 26.9478 40.3814 26.9129 40.4079 26.8317C40.3151 26.8474 40.2558 26.9075 40.2247 26.9961ZM40.4771 26.7083C40.4742 26.7172 40.4705 26.7257 40.4662 26.7342C40.47 26.7255 40.4737 26.717 40.4771 26.7083ZM40.7021 26.4621C40.6692 26.5347 40.6041 26.5894 40.5136 26.6129C40.5587 26.5366 40.6271 26.4919 40.7021 26.4621ZM40.7422 26.4182C40.7485 26.4149 40.7548 26.4119 40.7608 26.409C40.7947 26.3929 40.8205 26.3806 40.8075 26.3413C40.8011 26.3223 40.763 26.335 40.763 26.335C40.7533 26.3544 40.7473 26.385 40.7422 26.4182ZM38.0046 31.2092L38.0046 31.2093L38.03 31.222C38.049 31.1522 38.0745 31.1014 38.0999 31.0506L38.0745 31.0379C38.0554 31.1077 38.03 31.1585 38.0046 31.2092ZM65.4822 23.0211L65.4695 23.0465C65.0854 23.3487 65.0745 23.3847 64.958 23.7693L64.9578 23.7698C64.9472 23.8049 64.9357 23.8429 64.9229 23.8842L64.9039 23.8906L64.8149 24.0683L64.8403 24.081C64.8594 24.0112 64.8848 23.9604 64.9229 23.8842C65.1071 23.8018 65.2024 23.6432 65.2724 23.4718C65.3669 23.3019 65.3715 23.2892 65.3877 23.244C65.3988 23.2133 65.4153 23.1674 65.4695 23.0465C65.479 23.0433 65.4822 23.037 65.4853 23.0307C65.4885 23.0243 65.4917 23.018 65.5012 23.0148L65.5775 22.8625L65.5839 22.818L65.5712 22.8434C65.5581 22.8911 65.5332 22.9329 65.5106 22.9708C65.5002 22.9883 65.4902 23.005 65.4822 23.0211ZM63.8043 25.8009C63.8043 25.8009 63.8234 25.7946 63.817 25.7756C63.798 25.7819 63.798 25.7819 63.8043 25.8009ZM63.817 25.7756C63.9115 25.7284 63.9463 25.6426 63.984 25.5496C63.9971 25.5174 64.0104 25.4845 64.0268 25.4519C63.8897 25.4975 63.8604 25.6098 63.8282 25.7335C63.8246 25.7474 63.8209 25.7614 63.817 25.7756ZM64.0585 25.4202L64.0395 25.4265C64.0426 25.436 64.0442 25.4408 64.0426 25.444C64.0411 25.4471 64.0365 25.4486 64.0274 25.4517L64.0649 25.4392L64.0585 25.4202ZM64.192 25.1218C64.065 25.1852 64.0332 25.2805 64.0585 25.4202C64.1157 25.3377 64.1856 25.2298 64.192 25.1218ZM64.192 25.1218C64.192 25.1218 64.1857 25.1028 64.2047 25.0965L64.2175 25.0711L64.2111 25.1155L64.192 25.1218Z" fill="#F69709"/>
</svg>
