<svg fill="none" height="30" viewBox="0 0 30 30" width="30" xmlns="http://www.w3.org/2000/svg"><path clip-rule="evenodd" d="m3.99723 4.572.00122-.01655c-.00115.00098-.00228.00197-.0034.00296-.00391-.02695-.0055-.05357-.00702-.07892-.00201-.03354-.00389-.06487-.01082-.09184-.02065-.12955-.03846-.25238-.05578-.37172-.05011-.34546-.09599-.66168-.19387-1.02689-.12201-.49725-.0984-.96325-.07462-1.43271.02153-.42498.0432-.852785-.04287-1.309169-.03793-.1689324-.13323-.24192625-.33478-.23892401-.35422.02594701-.67173.23738101-.81532.59367301-.06466.195265-.14724.40596-.22859.60009-.07893.16103-.08987.31002-.05194.47895.04097.12755.00269.36341-.0356.59927-.03828.23587-.07657.47173-.0356.59928-.03448.46974.00171.62584.06579.90228.02905.12534.06384.27541.10038.49067.0616.30362.1411.59181.2206.88l.00001.00003c.17206.6272.29404 1.25101.39811 1.89024.04588.28925.0971.57887.14832.86848.07682.43442.15365.86885.21245 1.30205.01238.08344.02537.16637.03833.24904.05748.36685.11417.72871.11365 1.10881.00301.4161.02271.8334.09371 1.2374.05674.3699.0467.7352.03666 1.1005-.00203.4391-.02209.877-.04215 1.3148-.01338.2919-.02675.5838-.03478.8761-.03191.6633-.08173 1.342-.13034 2.0041v.0001c-.00394.0387-.00795.0775-.01196.1163-.05768.5579-.11656 1.1274.03097 1.6817.07464.3545.09799.722.03665 1.1005-.01248.1701-.04369.345-.07469.5186-.02029.1137-.04049.2268-.05527.3378-.03159.4304-.11327.8574-.32607 1.2423-.03582.0308-.03946.0805-.04311.1302-.02315.144-.04839.2878-.07363.4317-.07572.4316-.15144.8632-.17082 1.2986-.00851.1158-.01701.2317-.05891.3453-.10534.2924-.21068.5847-.20038.9015-.00365.0497-.02521.1148-.04433.1467-.11358.1505-.1667.3204-.22132.4952-.02581.0826-.05196.1662-.08499.2494l-.11327 1.5431c-.55993.2481-1.119664.4954-1.697848.6822-.1673144.0616-.2342402.1848-.21750877.4313.05019437.4314.28443477.8012.65252677.9449.157683.0484.325686.1095.4878.1733.04752.0322.10412.0553.1629.0674.15484.0672.29687.0636.45357.0058.12549-.0616.25098-.1181.37646-.1746.12549-.0564.25097-.1129.37646-.1746.63579-.3492 1.27159-.6984 1.95758-.9038.30117-.1027.5856-.226.87003-.3492.61907-.267 1.23813-.4725 1.87393-.6573.28777-.0822.57555-.1709.86333-.2597h.00001.00002c.43166-.1331.86333-.2662 1.29499-.3771.08307-.0227.16558-.0461.24784-.0693h.00002c.36503-.1034.72504-.2053 1.10734-.2389.4183-.041.8366-.1027 1.2382-.2259.3681-.1027.7362-.1233 1.1043-.1438.4417-.037.8834-.0518 1.3251-.0666.2944-.0098.5889-.0197.8834-.0361.6693-.0206 1.3552-.0206 2.0245-.0206l.1178.0042c.565.0205 1.1417.0414 1.6892-.189.3514-.1233.7195-.1849 1.1043-.1438.1719 0 .3499.0225.5266.0448.1157.0147.2309.0292.3434.0373.435 0 .87.0617 1.2716.2876.0335.0411.0837.0411.1339.0411.1463.0154.2927.0334.4391.0514h.0001c.4392.0539.8784.1078 1.3176.0924.1171 0 .2342 0 .3513.0411.3012.1027.6024.2054.9202.1643.0502 0 .1172.0206.1506.0411.1591.1256.3336.1753.5131.2265.0848.0242.1707.0487.2566.0816.1896.0685.3811.1256.5726.1826.3829.1141.7659.2283 1.134.4337.3179.1643.6023.3697.87.6368.1339.1291.2459.285.3579.441.084.117.168.2339.2612.3396.1506.1643.184.1437.3011-.0822.0837-.1643.1004-.2876-.0334-.4108-.0611-.0751-.0776-.172-.0951-.2748-.0064-.038-.013-.0768-.022-.1155-.011-.0315-.0216-.0629-.0321-.0941-.0855-.2544-.1663-.4946-.4197-.6044-.0523-.0257-.0916-.0755-.13-.1242v-.0001c-.023-.0292-.0457-.058-.0708-.0811-.7529-.6778-1.5393-1.2119-2.4762-1.4173-.1178-.029-.2335-.0731-.3493-.1174-.2132-.0814-.4269-.163-.6546-.1497-.0335.0206-.0669 0-.1004-.0205-.3723-.1959-.7763-.2361-1.1701-.2753-.1017-.0102-.2027-.0202-.3023-.0329-.186-.0311-.3763-.0465-.5687-.0621h-.0001c-.1883-.0152-.3786-.0306-.5689-.0611-.0997-.0106-.2005-.0199-.3018-.0292-.2899-.0267-.5843-.0537-.8694-.1146-.2844-.0822-.6023-.1027-.8868.1027-.0669.0411-.1338.0206-.1673-.0411-.0836-.1643-.2008-.1643-.3179-.1643h-.2342c.04.0614.086.0567.1344.0518.0325-.0033.0662-.0067.0998.0098.0335 0 .0837.0206.0669.0616 0 .0206-.0669.0617-.1003.0411-.4016-.0205-.8199-.0205-1.2214.0206-.0715 0-.1307-.015-.1986-.0322l-.0357-.0089c-.0167 0-.0334-.0206-.0502-.0411.0335 0 .0502-.0205.067-.0411.015 0 .03-.0041.0466-.0087.0203-.0056.0428-.0118.0705-.0118.0078-.0048.0166-.0085.0253-.0122.028-.0118.0544-.0228.0416-.07 0-.0205-.0502-.0616-.0837-.0616-.1171-.0616-.2509-.0822-.368-.0206l-.0079.0039c-.0789.0386-.126.0617-.126.181-.0167.1644-.1171.2465-.184.1644-.1162-.1268-.2323-.1313-.3561-.1362-.0368-.0015-.0742-.0029-.1124-.0076-.2905-.0193-.5811-.0024-.8733.0146-.3305.0192-.6632.0386-1.0006.0059-.0233 0-.0502.0044-.079.0092h-.0001c-.0333.0054-.0691.0113-.105.0113-.5689.0411-1.121.0822-1.6731.1233-.168.0103-.336.0051-.5019-.0001h-.0001c-.1645-.0051-.3269-.0101-.4852.0001-.3012.0205-.5856.0205-.8868-.0205-.184-.0411-.3513-.0411-.5354 0-.0684.0105-.1379.0183-.2079.0261l-.0001.0001c-.204.0229-.4125.0463-.6118.1381-.0837.0205-.1673.0205-.2677.0205-.0837 0-.1673-.0023-.251-.0045-.1432-.0039-.2865-.0079-.42974-.0003.09944-.0827.20084-.161.30234-.2394.1222-.0944.2445-.1889.3632-.2908l.0197-.0161c.2177-.1774.4478-.3648.6484-.5761.2224-.205.4369-.4164.6514-.6278h.0001c.2145-.2114.4291-.4227.6514-.6278.5812-.5306 1.1229-1.1043 1.6478-1.7135.021-.025.0416-.0507.0621-.0762v-.0001c.0764-.0952.1512-.1885.2377-.2311.2134-.0656.3536-.2534.4929-.4399l.0001-.0002c.0149-.02.0298-.0399.0448-.0597l.0747-.0883c.1274-.1503.2605-.3073.3778-.4696.1383-.1851.2811-.3653.4239-.5456.2855-.3606.5711-.7211.8214-1.1199.5511-.8413 1.1021-1.6826 1.6303-2.5314.124-.1965.2496-.3897.3748-.5822.3667-.5638.7302-1.1227 1.0404-1.7492.4719-.9275.9354-1.8727 1.3844-2.8077.1679-.3647.3045-.74571.4409-1.12606.0983-.27405.1964-.54776.306-.81472.0099-.00937.02-.01859.0301-.02765.1177-.11899.193-.31104.2206-.52014.0337-.06473.0406-.12735.0119-.18169 0-.29666-.094-.5954-.2959-.74758-.0894-.06704-.1862-.12893-.2829-.19083-.0967-.06189-.1934-.12378-.2829-.19081-.2414-.18468-.4783-.27766-.7565-.29397v-.00001c-.3384-.02107-.6767-.04215-1.0273-.00711-.3216.01449-.6638.06732-.981.17352-.7212.27402-1.4379.63974-2.09 1.10193-.0454.03221-.0892.05676-.131.08019-.0381.02139-.0746.04184-.1092.06635l-1.4412.87926c-.0869.06163-.1739.12325-.2524.20267-.1874.19211-.3911.34949-.5948.50686-.1223.09442-.2445.18884-.3632.29077l-.0197.01606c-.2177.17738-.4478.36486-.6485.57616-.2223.205-.4369.4164-.6514.6278-.2146.2114-.4291.4227-.6515.6278-.5812.5306-1.1229 1.1043-1.64777 1.7136-.021.0249-.04162.0506-.06213.0762h-.00001c-.07636.0952-.15111.1885-.23766.2311-.21341.0656-.3536.2534-.49286.4399-.01495.0201-.02989.0401-.04491.0599l-.07474.0884h-.00002c-.12735.1502-.26049.3072-.37771.4695-.13837.1851-.28114.3654-.42391.5456-.28555.3606-.57109.7211-.82145 1.1199-.55106.8413-1.10211 1.6826-1.63031 2.5314-.12396.1965-.24954.3896-.37476.5821l-.00003.0001h-.00003c-.36667.5638-.73017 1.1227-1.04038 1.7492-.16942.333-.33777.6683-.50475 1.0046.031-.1937.06618-.387.1136-.5754.08743-.2769.12721-.5903-.01907-.883-.02853-.0685-.00697-.1336.04554-.1633.13963-.0737.14814-.1896.15664-.3055l.01702-.2318c-.05281.0363-.05235.082-.05188.1302.00032.0324.00065.0658-.01522.0982-.00243.0331-.02277.0817-.05494.0628-.0167-.0011-.04522-.0696-.0261-.1015.04586-.3962.07624-.8101.07201-1.2096.00519-.0707.02167-.1285.04056-.1948.00322-.0113.00652-.0228.00984-.0347.00122-.0166.01913-.032.03704-.0474-.00243.0331.01305.0507.02852.0684-.00109.0149.00119.03.0037.0467.00308.0203.0065.043.00449.0703.00335.0081.00572.017.00804.0257.00755.0284.01464.0551.05388.0451.01669.0011.05373-.0463.05616-.0794.05859-.1125.085-.2438.04342-.3631l-.00255-.008c-.02567-.0802-.04098-.128-.13797-.1346-.13234-.0256-.19182-.1294-.12019-.1911.11142-.1079.12357-.2226.13652-.3448.00385-.0363.00776-.0732.01437-.1108.03676-.2864.04412-.5748.05152-.8649.00837-.328.01679-.6583.06788-.9904.00169-.023.00005-.0499-.00171-.0787-.00203-.0332-.00422-.069-.00162-.1045.00793-.5651.01464-1.1137.02135-1.6622.00383-.1668.02027-.3328.03651-.4966.01611-.1625.03201-.323.03519-.4801.00518-.2991.02584-.5806.0811-.8763.04675-.1798.0589-.3454.03888-.5297-.00356-.0683-.00487-.1375-.00618-.2072-.00383-.2032-.00774-.4108-.06783-.613-.01062-.0839-.00454-.1667.00275-.266.00608-.0828.01401-.1654.02194-.2481.01586-.1653.03172-.33057.03274-.49687-.01938-.65014-.09006-1.28711-.17744-1.92522-.14411-1.00794-.32162-2.01815-.53251-3.03061-.02461-.11689-.03408-.21646.06978-.30819.00066.00452.00138.00906.00218.01359zm-.91025 19.2801c.03469-.1055.06491-.2158.09213-.3152.02268-.0828.04329-.1581.06267-.2166.00607-.0828.00729-.0993-.00819-.117.00178-.0242-.00604-.0402-.01595-.0605-.00363-.0074-.00754-.0154-.01136-.0245-.00957.016-.023.0275-.03643.0391s-.02686.0231-.03643.0391c-.02459.1065-.04948.2171-.07438.3277-.02489.1106-.04979.2212-.07439.3277-.00243.0331-.00607.0828.02731.085.01555.0011.03188-.0086.04514-.0226.00995-.0207.01991-.0414.02988-.0622zm.5468-4.5303c.00538.2836.0108.5698-.04305.8445-.00883.1204-.01284.2365-.01669.3483-.00356.1034-.007.203-.01401.2985.01427.0342.02975.0519.04523.0696l.05372-.0463c.05738-.0959.08258-.2107.09108-.3266.00149-.0202.00205-.0414.00262-.0632.00178-.0674.00369-.1397.03352-.2005.16515-.4214.18005-.8529.14487-1.2879-.00718-.0766-.01766-.1523-.02811-.2278-.03066-.2215-.06101-.4408-.00644-.6729.01783-.0639.0057-.1401-.00551-.2104-.0031-.0195-.00613-.0385-.00844-.0567-.0269-.0906-.02413-.1791-.02136-.2677.00138-.0442.00277-.0885.00044-.133-.00039-.0962.0124-.1914.02519-.2867.01599-.1191.03198-.2381.02221-.3589-.01887-.2016-.00787-.4011.0034-.6055.00558-.1013.01123-.2038.01335-.3084.02916-.3973.05833-.7946.0541-1.1942-.00512-.6159-.01024-1.2318.06811-1.8421.02034-.0485.0252-.1147-.00576-.1501-.00368-.0291.00698-.0612.01691-.0911.01871-.0564.03484-.105-.05241-.1109-.04887-.02-.05859.1125-.06466.1952-.0011.0149.00118.03.0037.0467.00307.0204.00649.043.00448.0704-.06935.5338-.08428 1.0653-.09925 1.598-.01.356-.02002.7125-.0463 1.0706-.02672.3639-.03061.7262-.03448 1.0866-.00493.4594-.00983.9159-.0619 1.3691l-.07534 1.0264c-.00452.1372-.00188.2768.00078.417zm.42612-7.3755.00729-.0994c-.00183-.0261-.0027-.0538-.0036-.0824-.00315-.0996-.00665-.2104-.05192-.3039l-.04644-.0531c-.0005.0069-.00387.0135-.00781.0213-.00558.0111-.01232.0244-.01374.0438.01202.081.01891.1664.02598.2541.00613.076.01239.1537.02225.2316 0 0 .01548.0177.03217.0188.0167.0012.0346-.0143.03582-.0308zm-.1262-1.0234s-.02034.0485-.02156.0651c-.00243.0331-.00364.0497.01062.0839-.0005.0068.00186.0139.00462.0222.00391.0116.00864.0257.00721.0451.01791-.0154.03582-.0308.03825-.0639l.00486-.0662c.00243-.0331.00608-.0828-.044-.0862zm-.36458 10.2235c-.01669-.0011-.01913.032-.02156.0651-.0006.0083.00296.0168.00653.0254.00356.0086.00713.0171.00652.0254.01791-.0154.03582-.0309.03704-.0474.01912-.032.02277-.0817-.02853-.0685zm.41159-.1219.01913-.032-.03339-.0022zm.22261-1.4509c.00144-.0106.00289-.0211.00362-.0311.00048-.0066.00035-.0139.00022-.0212-.00054-.0294-.00107-.0587.03803-.0427.01669.0011.03095.0353.02852.0684-.00243.0332-.0085.1159-.04189.1137-.04007-.0027-.03428-.0449-.0285-.0871zm13.26798-11.15191-.116.08216c-.0964.12237-.2226.18132-.3547.24299-.1.04667-.2033.0949-.2995.17335-.209.17185-.418.34371-.6605.4444-.1387.07465-.2608.18487-.3744.31289-.0931.08968-.209.17185-.325.25402-.3826.2712-.7299.5976-1.0798.9264-.1536.1443-.3077.2891-.4655.4299-.1085.0998-.2178.1977-.3267.2953h-.0001v.0001c-.2295.2055-.457.4093-.6701.6247-.3845.4149-.7607.8475-1.1223 1.2699-.0786.0794-.1198.1561-.1672.2608-.0412.0767-.0969.1636-.1632.1869-.1722.0373-.2795.1799-.3857.3211l-.0001.0001-.0001.0001c-.0127.0169-.0254.0338-.0382.0505-.1078.1423-.2233.273-.3383.4031-.2156.2438-.4292.4853-.58504.7969-.09897.0435-.16237.1367-.22464.2282-.04854.0713-.09639.1417-.15986.1867-.07245.0513-.14266.1485-.19838.2355-.11633.1963-.24533.3788-.37432.5613h-.00002-.00001c-.1935.2738-.387.5476-.53775.8679-.0183.0455-.05125.0791-.08612.1146h-.00001c-.01606.0164-.03252.0332-.04816.0518-.5639.7317-1.08822 1.5066-1.56458 2.3424-.02077.0386-.04187.0765-.06281.1141l-.00005.0001h-.00001c-.08295.1489-.1632.293-.209.458l-.06184.115c-.63155 1.1251-1.20254 2.2993-1.74278 3.4984.02165.0549.03066.1156.02982.1772-.00239.0454-.01658.0813-.03.1152-.00841.0213-.01652.0418-.02124.0634-.20718.6687-.51415 1.2895-.92314 1.8166-.05572.0869-.11144.1739-.1443.2683-.03576.0665-.06592.1449-.07649.2252.29732-.1278.59554-.2484.90662-.3375.02666-.011.05804-.0161.09163-.0215l.00006-.0001c.02537-.0041.05201-.0084.07883-.0156.09933.1189.19882.0983.31469.0577.62528-.2175 1.25056-.4191 1.87584-.6047l.05607-.0398c.09643-.1223.22268-.1813.35478-.2429.09995-.0467.20324-.0949.2995-.1734h.00001c.20898-.1718.41796-.3437.6604-.4444.13877-.0746.26082-.1849.3745-.3129.09306-.0897.20898-.1718.3249-.254.38263-.2712.72999-.5976 1.07986-.9264l.0001-.0001c.15354-.1443.30764-.289.46534-.4298.1085-.0997.2178-.1977.3267-.2952l.0001-.0001c.2295-.2056.457-.4094.6702-.6248.3845-.4149.7606-.8475 1.1223-1.2699.0785-.0794.1198-.1561.1671-.2608.0412-.0767.097-.1636.1633-.1869.1721-.0373.2794-.1799.3857-.3211.0127-.017.0255-.0339.0384-.0507.1077-.1423.2233-.273.3383-.4031.2156-.2438.4291-.4853.585-.7969.099-.0435.1624-.1367.2246-.2282.0486-.0713.0964-.1417.1599-.1867.0724-.0513.1426-.1485.1984-.2355.1163-.1963.2453-.3788.3743-.5613.1935-.2738.387-.5476.5378-.8679.0183-.0455.0512-.0791.0861-.1146.016-.0164.0325-.0332.0482-.0518.5639-.7317 1.0882-1.5066 1.5645-2.3424.0208-.0386.0419-.0766.0629-.1142.0829-.1489.1632-.293.209-.458l.0618-.115c.6316-1.1251 1.2026-2.2993 1.7428-3.4984-.0216-.0549-.0306-.1156-.0298-.1772.0024-.04539.0166-.08127.03-.11521.0084-.02126.0165-.04176.0212-.06337.2072-.66869.5142-1.2895.9232-1.81661.0557-.08693.1114-.17387.1443-.26832.0618-.11499.1069-.26556.0629-.40036-.067-.14232-.208-.11352-.3116-.08748-.083.00046-.1706.02214-.2552.04308-.0529.0131-.1047.02592-.1534.03305-.5245.15829-1.0322.35215-1.5377.59187-.1314.07279-.2674.13578-.4034.19876v.00001c-.1813.08398-.3626.16796-.5329.27517zm-12.83099 18.14081-.00321-.0039h.01674zm6.34189-2.6831c-.5578.5763-1.15922 1.0972-1.79889 1.5385-.0636.0121-.12709.0245-.1905.0375.2765-.1997.53124-.4456.78598-.6915h.00003c.14978-.1446.29958-.2892.45378-.4244.5812-.5306 1.1541-1.0789 1.679-1.6882.0568-.064.1179-.1191.1789-.1742.061-.0552.122-.1103.1789-.1743.0977-.1013.1958-.2019.2937-.3025l.0005-.0005c.4096-.4204.8175-.8392 1.1942-1.2976.3303-.3871.6402-.7963.9528-1.2091.1236-.1631.2475-.3268.3734-.4899.5639-.7318 1.0882-1.5067 1.5958-2.3171.2181-.3352.4459-.6644.6734-.9933.3107-.4491.621-.8975.9056-1.3594.0062-.0281.0496-.0589.058-.0411.0457.015.0335.0711.0273.0992-.0986.2833-.2284.5414-.3749.7639-.3549.5599-.7243 1.1301-1.0937 1.7003-.0121.0188-.0248.0381-.0378.0578l-.0002.0002c-.0472.0715-.0982.1489-.1353.2309-.1826.3975-.425.7298-.6698 1.0653-.0368.0505-.0736.1009-.1103.1517-.0496.0589-.0908.1356-.132.2122-.0294.0438-.0563.0884-.0825.1317v.0001c-.0549.0907-.1064.1758-.1694.2365-.2079.1594-.3611.3827-.513.6041-.1489.2172-.2966.4324-.4933.5836-.1663.3091-.3948.539-.6267.7723h-.0001c-.0557.056-.1115.1122-.1667.1697-.1058.1051-.2001.2274-.2949.3505-.1294.168-.2599.3374-.4223.4662-.0767.0544-.1266.1429-.1768.2321-.0445.0792-.0894.1589-.1536.2156-.058.0411-.1076.0999-.1427.1485-.5109.341-.9571.7868-1.4022 1.2315-.0546.0544-.1091.1089-.1637.1632zm2.1142-13.116c-.4451.4447-.8914.8905-1.4023 1.2315-.0351.0486-.0847.1074-.1426.1485-.0643.0567-.1091.1364-.1537.2156-.0502.0892-.1.1777-.1768.2321-.1624.1288-.2929.2982-.4223.4662-.0948.1231-.189.2454-.2948.3505-.0553.0575-.1111.1137-.1668.1697-.2319.2333-.4605.4632-.62672.7723-.19675.1512-.34441.3664-.49336.5836h-.00001-.00001c-.15187.2214-.30507.4447-.51298.6041-.06299.0607-.11447.1458-.16933.2365-.0262.0434-.05317.088-.08253.1318h-.00001c-.04123.0767-.08245.1533-.13204.2122-.03668.0508-.07351.1012-.11028.1517-.24475.3355-.48718.6678-.66977 1.0653-.03707.082-.08816.1594-.13534.2309l-.00006.0001c-.01305.0197-.0258.0391-.03787.0579-.36941.5702-.73882 1.1404-1.09374 1.7003-.14654.2225-.27635.4806-.37494.7639-.00612.0281-.01837.0842.02734.0992.00837.0178.05183-.013.05796-.0411.28463-.4618.59489-.9103.90558-1.3594h.00002.00002l.00003-.0001c.22754-.3289.45531-.6581.67342-.9932.50758-.8104 1.0319-1.5853 1.5958-2.3171.12578-.163.24971-.3267.37324-.4898l.00011-.0001c.3126-.4128.62257-.822.95287-1.2091.3767-.4584.7846-.8771 1.1941-1.2976h.0001c.0981-.1007.1963-.2015.2942-.303.0568-.064.1178-.1191.1789-.1743.061-.0551.122-.1102.1788-.1742.525-.6093 1.0978-1.1576 1.6791-1.6882.1542-.1352.304-.27982.4538-.42442.2621-.25304.5242-.50609.8101-.7087.0289-.02054.0351-.0486.0412-.07666-.0145.01027-.0374.00275-.0602-.00477l-.1014.0719c-.6749.45466-1.308.99828-1.8931 1.60275-.0545.0541-.1089.1084-.1632.1627zm3.1396-2.46236.1014-.07189c-.0128-.00423-.0184-.00608-.0235-.00506-.0039.00079-.0075.00332-.0138.00781-.0373.00275-.0663.02329-.0869.06162-.029.02055-.0062.02807.0228.00752zm-3.6678 3.78586.0289-.0205c-.0083-.0178-.0228-.0076-.0228-.0076l-.029.0206c.0084.0178.0229.0075.0229.0075zm6.9442 13.591c.2849-.032.5723-.0644.8523-.0232.1216 0 .2387-.0055.3513-.0108h.0001c.1043-.005.2046-.0097.3011-.0097.0334-.0205.0502-.0411.0669-.0616l-.0502-.0617c-.1004-.0616-.2175-.0821-.3346-.0821-.0204 0-.0418.0012-.0638.0025-.0679.0038-.1407.008-.2039-.0231-.435-.1643-.87-.1438-1.3051-.0616-.0765.0157-.152.0353-.2272.0549-.2207.0575-.4392.1143-.6763.0684-.0655-.0161-.1412.0056-.2112.0256-.0194.0056-.0383.011-.0565.0154-.0892.0411-.1784.0457-.2677.0503-.0446.0022-.0892.0045-.1338.0114-.0967.0091-.1934.002-.29-.0051h-.0001c-.1208-.0089-.2416-.0177-.3624.0051-.2014.0412-.4028.0456-.6092.0502h-.0001c-.1022.0023-.2057.0046-.311.0114-.4015 0-.8031 0-1.2046.0411-.6191.0616-1.2382.1232-1.8572.0821-.0502-.0205-.1172-.0205-.1506.0206-.029.0071-.062-.003-.0928-.0125-.058-.0179-.108-.0332-.108.0741-.0167.0616.1171.0616.2008.0616.015 0 .0301-.0041.0466-.0087.0203-.0056.0429-.0118.0705-.0118.5416.0369 1.0771.0075 1.6138-.0221h.0001c.3587-.0198.718-.0395 1.0799-.0395.3678 0 .7324-.0278 1.0952-.0555.4623-.0352.9216-.0703 1.381-.0472h1.0374c.1383-.0068.2785-.0226.4192-.0385zm4.2701.1779c-.0849-.0203-.162-.0388-.2221-.0573-.0837 0-.1004 0-.1172.0206-.0244 0-.04.011-.0597.0249l-.0089.0063c-.0047.0033-.0096.0066-.015.0099.0167.0102.0293.0256.0418.041.0126.0154.0251.0309.0418.0411.1088.0206.2217.0411.3347.0616.1129.0206.2258.0411.3346.0617.0335 0 .0837 0 .0837-.0411s-.0502-.0822-.0837-.0822c-.1104-.0339-.2259-.0616-.3298-.0864l-.0001-.0001zm1.1833.3125c.1506.0411.3179.0821.4518.1027.0276 0 .0451.0062.0608.0118.0128.0046.0245.0087.0395.0087l.0168-.0205c0-.0206 0-.0411-.0168-.0411-.0736-.0164-.1418-.0526-.2101-.0887-.1024-.0543-.2048-.1085-.3253-.0962-.0111 0-.0223.0183-.0334.0366-.0056.0091-.0112.0182-.0168.0251-.0167.0205 0 .0616.0335.0616zm-12.8999-.3492h-.1004c-.0262.0046-.054.0081-.0827.0118-.1.0128-.2112.027-.3021.0909l-.0502.0616c.0069 0 .0138.0035.0219.0077.0115.0058.0254.0128.045.0128.0806-.022.1661-.0381.2538-.0546.076-.0143.1537-.029.2314-.0481 0 0 .0167-.0205.0167-.041 0-.0206-.0167-.0411-.0334-.0411zm-1.0207.2465s.0502.0205.067.0205c.0334 0 .0502 0 .0836-.0205.007 0 .0139-.0036.022-.0077.0115-.0058.0254-.0129.045-.0129-.0168-.0205-.0335-.0411-.067-.0411h-.0669c-.0335 0-.0837 0-.0837.0617zm10.3066-.4725c0 .0206.0335.0206.0669.0206.0084 0 .0168-.0052.0251-.0103.0084-.0051.0168-.0103.0251-.0103-.0167-.0205-.0334-.0411-.0502-.0411-.0334-.0205-.0836-.0205-.0669.0411zm-.1506-.493-.0334-.0205v.0411zm-1.4743-.1421c-.0107-.0009-.0215-.0017-.0315-.0017-.0067 0-.0141.0008-.0214.0017-.0295.0033-.0589.0065-.0455-.0428 0-.0205.0334-.041.0669-.041s.1171 0 .1171.041c0 .0493-.0428.0461-.0856.0428zm-8.0818-2.5448.029-.0205s.0145-.0103.0228.0075l-.0289.0206s-.0145.0102-.0229-.0076z" fill="#f69709" fill-rule="evenodd"/></svg>