<svg fill="none" height="51" viewBox="0 0 78 51" width="78" xmlns="http://www.w3.org/2000/svg"><path clip-rule="evenodd" d="m7.44655 8.13783-.00204.0277c-.00133-.0076-.00254-.01518-.00364-.02275zm-.01743-.12709c.00254.04242.00521.08695.01175.13204-.17377.15348-.15793.32007-.11674.51563.35284 1.69399.64981 3.38409.89093 5.07049.14619 1.0677.26445 2.1334.29688 3.2211-.00171.2783-.02824.5548-.05478.8314-.01327.1383-.02654.2765-.03671.415-.01219.1662-.02236.3047-.00459.4451.10053.3383.10708.6857.11348 1.0255.0022.1167.00438.2325.01034.3467.0335.3085.01317.5855-.06506.8864-.09245.4947-.12702.9656-.13568 1.466-.00533.263-.03193.5314-.05887.8032-.02717.2742-.05469.5519-.06108.831-.01123.9178-.02246 1.8355-.03573 2.781-.00436.0594-.00069.1193.00271.1749.00294.0482.00569.0931.00286.1317-.08547.5556-.09957 1.1081-.11357 1.657-.01238.4854-.02469.9678-.08621 1.447-.01104.0629-.01759.1247-.02402.1854-.02167.2045-.042.3963-.22842.5769-.11986.1032-.02033.2769.20108.3198.16228.0109.18789.091.23084.2252l.00428.0133c.06956.1996.02536.4193-.07266.6075-.00407.0554-.06603.1347-.09396.1328-.06566.0169-.07752-.0278-.09015-.0754-.00388-.0146-.00783-.0295-.01344-.0429.00336-.0458-.00237-.0837-.00751-.1178-.0042-.0278-.00802-.0531-.00619-.078-.0259-.0296-.0518-.0592-.04773-.1146-.02996.0258-.05993.0516-.06196.0793l-.01647.0582-.00001.0001c-.03159.1108-.05917.2074-.06785.3257.00707.6685-.04376 1.361-.12048 2.0238-.032.0535.01573.1681.04366.17.05383.0314.08786-.0498.09193-.1051.02655-.0542.026-.1102.02546-.1644-.00079-.0806-.00155-.1572.08679-.2177l-.02846.3877c-.01423.1939-.02846.3878-.26208.5112-.08786.0497-.12392.1586-.07619.2731.24475.4898.17819 1.0142.0319 1.4775-.07934.3151-.13819.6386-.19006.9626.27938-.5627.56104-1.1237.8445-1.6808.51901-1.0483 1.12718-1.9833 1.74066-2.9265l.00011-.0002.00013-.0002c.20945-.3221.41955-.645.62685-.9738.8838-1.4201 1.8057-2.8277 2.7277-4.2352.4189-.6673.8966-1.2705 1.3744-1.8737.2388-.3016.4777-.6032.7092-.9128.1961-.2716.4189-.5343.632-.7856v-.0001c.0422-.0497.0839-.099.125-.1478.0252-.0332.0502-.0667.0752-.1002.233-.3121.4675-.6262.8246-.736.1448-.0713.2699-.2273.3976-.3867.0344-.0428.0689-.0859.104-.1276.8782-1.0193 1.7845-1.9792 2.7569-2.8669.3721-.3431.731-.6968 1.09-1.0504l.0001-.0001c.3589-.3536.7178-.7072 1.0898-1.0503.3357-.3535.7207-.6671 1.0849-.9639l.033-.0269c.1986-.1705.4031-.3285.6076-.4865.3409-.2633.6817-.5266.9952-.848.1315-.1329.2769-.236.4224-.3391l2.4113-1.4711c.0578-.041.1189-.0752.1827-.111.0699-.0392.1431-.0803.2192-.1342 1.0909-.7733 2.2901-1.3852 3.4967-1.8436.5306-.1777 1.1032-.2661 1.6413-.2903.5866-.0587 1.1527-.0234 1.7187.0119h.0001c.4654.0273.8618.1828 1.2657.4918.1497.1121.3115.2157.4733.3192v.0001c.1619.1035.3237.2071.4734.3192.3377.2546.4951.7545.495 1.2508.0481.0909.0366.1957-.0199.304-.0462.3499-.1721.6712-.3691.8702-.0169.0152-.0337.0306-.0503.0463-.1833.4467-.3475.9046-.512 1.3631-.2282.6364-.4568 1.2739-.7376 1.884-.7513 1.5644-1.5268 3.1459-2.3163 4.6976-.519 1.0483-1.1272 1.9833-1.7406 2.9266-.2096.3221-.4197.6452-.6272.9741-.8837 1.4201-1.8056 2.8276-2.7275 4.2351l-.0001.0001c-.4189.6673-.8967 1.2705-1.3744 1.8738l-.0002.0002c-.2388.3015-.4776.603-.7091.9126-.196.2714-.4188.5342-.6318.7854l-.0001.0001v.0001l-.0518.0611-.0733.0867c-.0251.0332-.0501.0667-.0751.1002-.233.3121-.4676.6263-.8246.736-.1448.0714-.2699.2274-.3977.3867l-.0002.0003c-.0342.0427-.0687.0857-.1037.1273-.8783 1.0194-1.7845 1.9792-2.757 2.867-.372.343-.7309.6967-1.0899 1.0503-.359.3537-.7179.7073-1.0899 1.0504-.3357.3535-.7207.6672-1.0849.9639l-.0001.0001-.033.0268c-.1985.1706-.403.3285-.6075.4865-.1698.1312-.3395.2623-.5059.4006.2397-.0126.4793-.0061.719.0004.14.0039.2799.0077.4199.0077.168 0 .3079 0 .4479-.0344.3334-.1535.6824-.1927 1.0237-.2311h.0002l.0001-.0001h.0002c.1171-.0131.2332-.0262.3475-.0437.3079-.0688.5878-.0688.8958 0 .5039.0687.9797.0687 1.4836.0343.2648-.0171.5366-.0086.8118-.0001.2776.0086.5587.0174.8398.0001.9238-.0687 1.8476-.1374 2.7994-.2062.06 0 .12-.0099.1757-.019h.0001c.0482-.008.0932-.0154.1321-.0154.5646.0548 1.1212.0224 1.6742-.0098.489-.0285.975-.0568 1.4611-.0245.064.0078.1266.0103.188.0127h.0001c.2071.0082.4014.0158.5957.2279.112.1374.2799 0 .3079-.275 0-.1997.0788-.2382.2108-.3029l.0132-.0064c.1959-.1031.4199-.0687.6158.0344.056 0 .14.0687.14.1031.0214.0788-.0227.0974-.0697.1171-.0144.0061-.0291.0123-.0423.0203-.0462 0-.084.0105-.1179.0198-.0277.0077-.0529.0146-.078.0146-.028.0344-.056.0687-.112.0687.028.0344.056.0688.084.0688l.0596.0149c.1136.0288.2127.0538.3323.0538.6718-.0687 1.3717-.0687 2.0435-.0343.056.0343.168-.0344.168-.0688.028-.0687-.056-.1031-.112-.1031-.0563-.0276-.1126-.0219-.1671-.0164-.0809.0082-.1579.016-.2248-.0867h.3919c.1959 0 .3919 0 .5319.275.056.1031.1679.1374.2799.0687.4759-.3437 1.0078-.3093 1.4837-.1719.477.1019.9695.1472 1.4545.1917l.0002.0001c.1695.0155.3381.031.5048.0488.3184.051.6368.0768.9518.1023h.0001c.3219.026.6404.0518.9516.1039.1666.0212.3356.038.5056.0549h.0001.0001c.6588.0656 1.3347.1329 1.9577.4607.056.0343.1119.0687.1679.0343.381-.0222.7385.1143 1.0953.2505.1937.074.3873.1479.5843.1963 1.5677.3437 2.8834 1.2373 4.1431 2.3714.0419.0386.0799.0869.1184.1358.0643.0816.1299.1649.2175.2079.4239.1837.559.5855.7022 1.0112.0117.0346.0234.0694.0353.1042l.0183.0531c.0151.0649.0261.1297.0369.1933.0293.1721.0568.3342.1591.4597.2239.2062.1959.4125.0559.6874-.1959.3781-.2519.4124-.5038.1375-.156-.1768-.2965-.3725-.4371-.5681-.1874-.261-.3747-.5219-.5987-.7379-.4479-.4468-.9238-.7905-1.4556-1.0654-.6159-.3437-1.2566-.5347-1.8973-.7256h-.0001c-.3204-.0955-.6407-.1909-.958-.3055-.1437-.0551-.2874-.0961-.4293-.1366-.3003-.0856-.5922-.1689-.8584-.3789-.056-.0344-.1679-.0688-.2519-.0688-.5319.0688-1.0358-.1031-1.5397-.2749-.1959-.0687-.3919-.0687-.5878-.0687-.7348.0257-1.4697-.0645-2.2045-.1547-.2449-.0301-.4899-.0601-.7348-.0859-.084 0-.168 0-.224-.0687-.6718-.3781-1.3997-.4812-2.1275-.4812-.1883-.0136-.381-.038-.5745-.0624h-.0001c-.2957-.0374-.5935-.0751-.881-.0751-.6439-.0687-1.2597.0344-1.8476.2406-.916.3856-1.881.3506-2.8262.3163l-.1971-.007c-1.1197 0-2.2675 0-3.3872.0344-.4927.0275-.9854.044-1.478.0605-.7391.0247-1.4781.0495-2.2171.1113-.6159.0344-1.2318.0688-1.8476.2406-.6718.2062-1.3717.3093-2.0715.3781-.6397.056-1.2421.2266-1.8528.3995-.1376.039-.2757.0781-.4147.116-.7222.1856-1.4444.4083-2.1666.631-.4815.1484-.963.2969-1.4445.4344-1.0638.3093-2.0996.653-3.13531 1.0998-.47589.2062-.95177.4124-1.45566.5842-1.14773.3437-2.21148.928-3.27523 1.5122-.20995.1032-.4199.1977-.62985.2922s-.4199.189-.62985.2921c-.2622.0966-.49983.1027-.75891-.0099-.09831-.0201-.19296-.0588-.27245-.1126-.27125-.1067-.55237-.2089-.81621-.2899-.61586-.2406-1.007764-.8592-1.091745-1.581-.027993-.4124.083981-.6186.363915-.7217.96737-.3125 1.90387-.7261 2.84069-1.1412l.18952-2.5819c.05525-.1391.099-.2791.14219-.4172l.00001-.0001c.09138-.2923.18025-.5766.37029-.8284.032-.0535.06806-.1624.07416-.2455-.01723-.53.15902-1.0191.33527-1.5082.07009-.1901.08432-.384.09855-.5779.03242-.7285.15911-1.4506.2858-2.1727.04223-.2406.08446-.4813.12319-.7223.0061-.0831.0122-.1662.07213-.2178.35604-.6439.49269-1.3584.54555-2.0785.02473-.1856.05852-.3749.09248-.5651.05185-.2905.10408-.5831.12496-.8676.10263-.6333.06356-1.2483-.06133-1.8413-.24683-.9275-.14831-1.8803-.05181-2.8137l.02001-.1946c.08132-1.1079.16468-2.2435.21807-3.3532.01344-.489.03582-.9774.05819-1.4658.03356-.7326.06713-1.4651.07053-2.1997.01679-.6113.03359-1.2225-.06134-1.8413-.11879-.6761-.15175-1.3742-.15679-2.0704.00087-.636-.09398-1.2413-.19015-1.8551l-.00002-.0001c-.02166-.1383-.04339-.277-.06411-.4166-.09838-.7248-.22691-1.4516-.35545-2.1785h-.00002c-.08568-.4846-.17137-.9691-.24812-1.453-.17412-1.0695-.37821-2.1132-.66608-3.16257l-.00001-.00003-.00001-.00002c-.13302-.48217-.26604-.96435-.36909-1.47233-.06113-.36016-.11934-.61125-.16795-.82095-.10721-.46251-.16776-.72369-.11007-1.50961-.06854-.2134-.00449-.60802.05956-1.00265h.00001c.06405-.39462.1281-.78925.05956-1.00264-.06346-.28265-.04517-.53192.08689-.80134.13612-.32481.27427-.67731.38246-1.00401.24025-.596115.77147-.949865 1.36412-.993277.3372-.005023.49666.117103.56012.399744.144.763573.10774 1.479343.07172 2.190373-.03979.78546-.07928 1.56513.12484 2.39708.16378.61103.24053 1.1401.32438 1.71809.02896.19967.05878.40518.09332.62192.01159.04513.01473.09755.0181.15366zm-1.35341 31.88496c-.04554.1663-.0961.3509-.15413.5275l-.05001.104c-.02219.0234-.04951.0396-.07551.0379-.05586-.0038-.04976-.0869-.04569-.1423.04112-.178.08275-.363.12439-.548l.00005-.0002c.04166-.1851.08332-.3702.12447-.5483.016-.0268.03847-.0461.06094-.0655s.04495-.0387.06095-.0655c.00639.0154.01293.0288.019.0412.01659.0338.02967.0606.02669.1011.0259.0296.02387.0573.0137.1958-.03241.0979-.06688.2237-.10484.3623zm.68869-5.6393c.09009-.4596.08102-.9384.07202-1.413-.00444-.2345-.00887-.468-.0013-.6976l.12605-1.7173c.08713-.7583.09532-1.522.10357-2.2906.00648-.603.01298-1.2091.05768-1.818.04398-.5992.06074-1.1957.07747-1.7913.02504-.8913.05003-1.7805.16606-2.6737.00336-.0457-.00236-.0836-.00751-.1177-.0042-.0278-.00801-.0531-.00619-.078.01017-.1385.02643-.3601.10819-.3267.14598.0099.11899.0912.08769.1855-.01662.0501-.03445.1038-.02829.1525.05179.0592.04366.17.00963.2512-.13108 1.021-.12252 2.0515-.11395 3.0819.00707.6685-.04172 1.3333-.09052 1.998-.00354.175-.013.3465-.02234.516-.01885.3421-.03725.6759-.00569 1.013.01636.2022-.0104.4014-.03715.6006-.0214.1594-.0428.3188-.04214.4796.00389.0745.00157.1486-.00074.2227-.00464.1481-.00928.2962.03574.4477.00386.0305.00893.0623.01413.095.01874.1176.03903.245.0092.352-.0913.3882-.04052.7551.01078 1.1257.01748.1263.03503.2531.04702.3813.05887.7276.03394 1.4497-.24237 2.1547-.04992.1018-.05311.2227-.05608.3355-.00096.0364-.0019.072-.00438.1057-.01423.1939-.0564.3859-.15239.5464l-.08989.0775c-.0259-.0296-.05179-.0592-.07566-.1165.01173-.1598.01747-.3264.02344-.4994.00644-.1869.01314-.3813.02792-.5827zm.79717-13.9191-.0122.1661c-.00204.0277-.032.0536-.05993.0517s-.05383-.0315-.05383-.0315c-.0165-.1304-.02697-.2603-.03722-.3875-.01183-.1467-.02335-.2896-.04347-.4252.00238-.0324.01365-.0547.02298-.0732.0066-.0131.01224-.0242.01308-.0357l.07769.0888c.07574.1565.0816.3418.08686.5086.00152.0478.00298.0942.00604.1379zm-.25942-1.4372c.00203-.0277.03607-.1089.03607-.1089.08379.0057.07769.0888.07362.1442l-.00813.1108c-.00407.0554-.03403.0812-.06399.107.00238-.0325-.00552-.0561-.01207-.0756-.00463-.0138-.00857-.0256-.00773-.0371-.02387-.0573-.02183-.085-.01777-.1404zm-.60997 17.105c.00406-.0554.00813-.1108.03606-.1089.08583-.022.07973.0611.04773.1146-.00203.0277-.032.0535-.06196.0793.00102-.0138-.00495-.0282-.01092-.0425-.00596-.0143-.01193-.0286-.01091-.0425zm.7567-.3663-.032.0535-.02386-.0573zm.3465-2.426c-.00122.0166-.00364.0342-.00606.0519-.00967.0706-.01935.1412.04769.1457.05586.0038.06602-.1347.07009-.1901s-.0198-.1127-.04773-.1145c-.06541-.0267-.06452.0223-.06363.0714.00023.0122.00045.0245-.00036.0356zm21.99862-18.4689.194-.1374c.285-.1794.5884-.3199.8917-.4604.2275-.1054.455-.2108.6748-.3326.8458-.4011 1.6953-.7254 2.5728-.9903.0815-.0119.1681-.0333.2566-.0553.1416-.035.2881-.0713.4269-.072.1735-.0436.4094-.0918.5214.1463.0737.2256-.0017.4775-.1052.6699-.055.158-.1482.3034-.2414.4489-.6843.8819-1.1979 1.9206-1.5445 3.0394-.0079.0361-.0215.0704-.0356.106-.0224.0568-.0462.1168-.0502.1928-.0014.103.0137.2047.0499.2965-.9039 2.0062-1.8592 3.9707-2.9158 5.8531l-.1035.1924c-.0766.2761-.2109.5172-.3497.7664l-.0001.0001c-.035.0629-.0703.1263-.1051.1909-.797 1.3983-1.6742 2.6948-2.6177 3.9191-.0261.0311-.0537.0592-.0806.0866-.0583.0595-.1134.1157-.144.1917-.2523.536-.576.9941-.8998 1.4521-.2158.3054-.4316.6108-.6263.9392-.0932.1455-.2107.3081-.3319.394-.1062.0753-.1862.193-.2674.3123-.1042.1532-.2103.3091-.3759.3819-.2608.5213-.618.9253-.9788 1.3333-.1924.2175-.3857.4362-.566.6744-.0215.028-.0429.0564-.0643.0848-.1777.2363-.3572.4747-.6452.5372-.111.039-.2042.1844-.2732.3127-.0792.1752-.1482.3035-.2797.4363-.605.7067-1.2343 1.4306-1.8777 2.1247-.3566.3604-.7372.7014-1.1212 1.0453-.1822.1633-.3652.3272-.5468.4942-.2639.2355-.5216.4777-.7786.7191l-.0002.0002c-.5853.55-1.1665 1.0961-1.8067 1.5499-.1939.1375-.3879.275-.5436.425-.1902.2142-.3943.3986-.6265.5235-.4056.1685-.7553.456-1.1049.7435h-.0001c-.161.1313-.3338.212-.5011.2901-.221.1032-.4322.2018-.5935.4065l-.0938.0665c-1.0462.3106-2.0924.6478-3.13856 1.0117-.19387.068-.36033.1024-.5265-.0966.00753-.002.01508-.0041.02262-.0065h-.02799l.00537.0065c-.04491.0121-.0895.0194-.13199.0263-.05621.0092-.10871.0177-.15332.036-.52045.1491-1.01939.351-1.51683.5648.01768-.1345.06815-.2656.12797-.3768.05498-.1581.14819-.3035.2414-.4489l.00002-.0001c.6843-.8819 1.19789-1.9206 1.54452-3.0393.00789-.0362.02146-.0705.03553-.1061.02246-.0568.0462-.1168.05019-.1928.00141-.1029-.01366-.2046-.04989-.2964.90388-2.0063 1.85916-3.9708 2.91586-5.8532l.1035-.1924c.0766-.2761.2109-.5172.3497-.7663l.0001-.0002.0003-.0006v-.0001c.0349-.0626.0701-.1258.1047-.1901.797-1.3984 1.6743-2.6948 2.6177-3.9192.0262-.031.0537-.0591.0806-.0865.0584-.0595.1135-.1157.1441-.1918.2522-.5359.576-.994.8997-1.4521.2159-.3054.4317-.6108.6263-.9392.0933-.1455.2107-.3081.3319-.394.1062-.0753.1863-.193.2675-.3123.1042-.1531.2103-.309.3759-.3818.2608-.5214.618-.9254.9787-1.3333l.0001-.0001c.1923-.2175.3857-.4362.5659-.6744.0216-.028.0429-.0564.0643-.0848.1778-.2362.3573-.4747.6453-.5372.111-.0389.2042-.1844.2732-.3127.0792-.1752.1482-.3034.2796-.4363.6051-.7067 1.2344-1.4306 1.8777-2.1247.3566-.3604.7372-.7013 1.1212-1.0453h.0001l.0001-.0001.0001-.0001.0001-.0001c.1821-.1632.365-.327.5464-.4939.264-.2355.5218-.4778.7788-.7192.5854-.5501 1.1665-1.0962 1.8067-1.55.194-.1375.3879-.2749.5436-.425.1902-.2142.3944-.3986.6266-.5235.4056-.1684.7553-.456 1.1049-.7435.1611-.1313.3339-.2119.5011-.29.221-.1032.4323-.2018.5936-.4066zm-13.6726 28.299c1.0702-.7384 2.0764-1.61 3.0097-2.5742.0914-.0907.1826-.1819.2738-.273.7448-.744 1.4914-1.4898 2.3461-2.0603.0588-.0813.1418-.1798.2387-.2486.1075-.0948.1825-.2281.2571-.3606.084-.1492.1674-.2974.2958-.3884.2717-.2155.49-.4989.7065-.78.1587-.2059.3163-.4106.4934-.5864.0924-.0963.1859-.1903.279-.284h.0001v-.0001c.388-.3902.7704-.7748 1.0485-1.2919.3291-.253.5762-.6132.8254-.9765.2541-.3704.5104-.7441.8583-1.0107.1054-.1016.1915-.244.2833-.3958l.0001-.0002c.0438-.0724.0889-.147.138-.2202.069-.1282.1379-.2565.2209-.355.0614-.085.123-.1694.1845-.2538.4095-.5614.8151-1.1174 1.1206-1.7825.0621-.1372.1475-.2666.2265-.3862.0218-.0331.0432-.0655.0634-.0971.6181-.954 1.2362-1.908 1.83-2.8448.2452-.3722.4623-.804.6273-1.278.0102-.047.0307-.1409-.0458-.1661-.014-.0297-.0867.0218-.0969.0688-.4763.7728-.9954 1.5231-1.5152 2.2745-.3807.5503-.7618 1.1011-1.1268 1.6618-.8492 1.356-1.7265 2.6524-2.6699 3.8768-.2104.2727-.4177.5465-.6244.8193l-.0001.0002-.0002.0002c-.523.6906-1.0416 1.3753-1.5942 2.023-.6302.7669-1.3127 1.4675-1.9979 2.1709l-.0001.0001c-.1641.1685-.3284.3371-.4922.5069-.0951.1071-.1972.1993-.2993.2915v.0001h-.0001c-.102.0922-.2041.1844-.2992.2915-.8782 1.0193-1.8367 1.9368-2.8092 2.8246-.258.2262-.5086.4681-.7592.71-.4262.4114-.8524.8228-1.315 1.1568.106-.0216.2123-.0425.3187-.0626zm4.2008-22.4582c.8548-.5705 1.6014-1.3163 2.3461-2.0603.0913-.0911.1825-.1822.2739-.273.979-1.0114 2.0382-1.9209 3.1673-2.6816l.1697-.1203c.0383.0125.0765.0251.1008.0079v.0001c-.0103.0469-.0205.0938-.069.1282-.4783.339-.9168.7624-1.3554 1.1857-.2506.242-.5012.4839-.7593.7101-.9724.8877-1.9309 1.8052-2.8091 2.8246-.0951.1071-.1972.1993-.2993.2915-.1021.0922-.2042.1844-.2993.2915-.1638.1698-.3281.3384-.4922.5069l-.0001.0001c-.6852.7034-1.3677 1.404-1.998 2.1709-.5526.6477-1.0711 1.3324-1.5942 2.023-.2067.273-.4141.5469-.6246.8197-.9435 1.2244-1.8207 2.5208-2.67 3.8768-.3649.5607-.746 1.1116-1.1267 1.6619-.5199.7513-1.039 1.5016-1.5152 2.2744-.0103.047-.083.0986-.097.0688-.0765-.0252-.056-.1191-.0457-.166.1649-.4741.3821-.9058.6273-1.2781.5938-.9368 1.2119-1.8908 1.8299-2.8448.0203-.0316.0416-.0639.0635-.0971.0789-.1195.1644-.249.2264-.3862.3055-.665.7111-1.2211 1.1206-1.7825.0616-.0843.1232-.1688.1845-.2538.083-.0985.152-.2267.221-.355.0491-.0733.0942-.1479.138-.2204.0918-.1518.178-.2942.2834-.3958.3478-.2666.6042-.6403.8583-1.0107.2492-.3633.4962-.7235.8254-.9765.2781-.5171.6605-.9017 1.0485-1.292.0932-.0937.1867-.1877.2791-.284.177-.1758.3347-.3805.4933-.5864.2165-.2811.4348-.5645.7066-.78.1284-.091.2118-.2391.2958-.3883.0745-.1325.1496-.2659.257-.3607.097-.0688.18-.1673.2387-.2486zm7.7688-6.3004-.1697.1203c-.0485.0344-.0868.0218-.0383-.0126.0345-.0641.083-.0985.1455-.1031.0106-.0075.0166-.0117.0231-.0131.0084-.0017.0178.0014.0394.0085zm-6.2579 6.4201-.0485.0343s-.0243.0172-.0383-.0126l.0485-.0343s.0243-.0172.0383.0126zm11.5699 22.7735c-.2356.0266-.4701.053-.7016.0643h-1.7356c-.7686-.0385-1.5372.0201-2.3107.0791h-.0001c-.6069.0463-1.2169.0928-1.8322.0928-.6056 0-1.2066.0331-1.8068.0661-.898.0495-1.7941.0988-2.7002.037-.0462 0-.0839.0104-.1178.0198h-.0001c-.0277.0076-.0529.0146-.078.0146-.14 0-.3639 0-.3359-.1032 0-.1796.0836-.1538.1806-.124.0515.0159.1068.0329.1553.0209.056-.0687.1679-.0687.2519-.0343 1.0358.0687 2.0715-.0344 3.1073-.1375.6718-.0687 1.3437-.0687 2.0155-.0687.1762-.0114.3494-.0153.5205-.0191h.0001c.3452-.0076.6822-.0151 1.0191-.084.2021-.0382.4043-.0234.6065-.0085.1617.0119.3235.0237.4852.0085.0747-.0115.1493-.0153.2239-.0191.1493-.0077.2986-.0153.4479-.084.0304-.0075.0621-.0166.0945-.0259.1171-.0335.2438-.0698.3534-.0429.3967.0769.7622-.0182 1.1315-.1144.1258-.0327.2521-.0656.3802-.0918.7278-.1375 1.4556-.1718 2.1835.1031.1058.052.2276.045.3412.0385h.0002c.0366-.0021.0724-.0041.1065-.0041.1959 0 .3919.0344.5598.1375l.084.1031c-.028.0343-.056.0687-.112.1031-.1614 0-.3293.0079-.5037.0162h-.0001c-.1884.0089-.3844.0181-.5879.0181-.4683-.069-.9492-.0148-1.4258.0388zm6.7727.2018c.1006.0309.2296.0618.3715.0958h.0001v.0001h.0001c.1738.0416.3672.0879.552.1447.056 0 .14.0687.14.1375 0 .0687-.084.0687-.14.0687-.1819-.0344-.3709-.0687-.5598-.1031-.189-.0344-.3779-.0687-.5599-.1031-.028-.0172-.049-.043-.07-.0687-.021-.0258-.042-.0516-.07-.0688.0059-.0036.0114-.0072.0167-.0107.0082-.0055.0159-.0109.0232-.0161l.0002-.0002c.0329-.0233.0589-.0417.0999-.0417.028-.0344.056-.0344.196-.0344zm3.1072.7905c-.2239-.0344-.5039-.1031-.7558-.1719-.056 0-.084-.0687-.056-.1031.0093-.0114.0187-.0267.028-.042.0187-.0305.0373-.0611.056-.0611.2015-.0206.3729.0701.5442.1609.1142.0605.2284.121.3516.1484.028 0 .028.0344.028.0688l-.028.0344c-.0252 0-.0447-.007-.0662-.0146-.0263-.0094-.0555-.0198-.1018-.0198zm-22.5067-.7561h.168c.028 0 .0559.0343.0559.0687s-.028.0688-.028.0688c-.1299.0319-.2599.0564-.3871.0804-.1467.0276-.2897.0546-.4247.0914-.0328 0-.0559-.0118-.0752-.0216-.0135-.0069-.0251-.0128-.0367-.0128l.0839-.1031c.1523-.1068.3383-.1306.5056-.152l.0001-.0001c.048-.0061.0945-.0121.1382-.0197zm-1.4277.4468c-.028 0-.1119-.0344-.1119-.0344 0-.1031.0839-.1031.1399-.1031h.112c.056 0 .084.0344.112.0687-.0328 0-.056.0118-.0752.0216-.0136.0069-.0252.0128-.0368.0128-.056.0344-.084.0344-.14.0344zm17.244-.7905c-.056 0-.112 0-.112-.0344-.028-.1031.056-.1031.112-.0687.028 0 .056.0344.084.0687-.014 0-.028.0086-.042.0172s-.028.0172-.042.0172zm-.4199-.8936.056.0344-.056.0344zm-2.4634-.2062c.0076 0 .0154.0003.0233.0007.0097.0006.0195.0013.0293.0021.0717.0055.1433.011.1433-.0715 0-.0688-.14-.0688-.1959-.0688-.056 0-.112.0344-.112.0688-.0224.0825.0269.077.0761.0715.0064-.0007.0127-.0015.0189-.002.0058-.0005.0115-.0008.017-.0008zm-13.4205-4.2892-.0485.0344c.014.0297.0382.0126.0382.0126l.0485-.0344c-.014-.0298-.0382-.0126-.0382-.0126zm55.0155-17.2247c.0072.0016.0146.0034.022.0055l-.0042-.0273c.3016-.2091.2976-.2748.2866-.4565-.0039-.0636-.0086-.1413-.0014-.2443.0538-.0267.1146-.179.0396-.1621-.0162-.0433-.0808-.0125-.1311.0245-.0301.0022-.0545.0076-.0683.0213l-.0118.0152c-.1323.1697-.1857.2384-.1966.3132-.0075.0508.0047.1045.0252.1947.016.0704.0371.163.0578.294l-.0212.0146zm-4.1644-1.0036c.0935-.3378.2044-.6808.3211-1.006.0319-.0952.0763-.1523.1716-.184.1143-.038.2286-.076.2858-.1585.2541-.3173.5462-.2663.8572-.0947.0628.0315.1282.0459.1914.0599.0389.0086.077.017.1133.0292.2602.0827.368.2795.3932.5462.0884.8381-.001 1.6507-.3125 2.4315-.2544.6982-.3692 1.4346-.4395 2.1774 0 .0635.0253.1397.0571.1715.0888.0762.1714.0064.2349-.057.5146-.5521.9277-1.155 1.3281-1.796.0618-.1015.1229-.2053.1846-.3101l.0002-.0002.0001-.0002c.1156-.1964.2332-.3963.3616-.5907.0981-.1346.2197-.2574.4162-.2147.0459.1045.0059.2056-.0337.3059-.0148.0375-.0295.0748-.0398.1122-.0169.055-.0416.1079-.0664.1608-.0455.0974-.091.1948-.0881.3054.0663-.0454.0989-.0644.1139-.0731.0052-.0031.0083-.0049.0099-.0061.001-.0008.0014-.0013.0013-.0018 0-.0006-.0007-.0011-.0016-.0018-.0069-.0054-.0302-.0235.0563-.1802l.0001-.0001c.4957-.9266.7436-1.3899 1.3092-2.2974.0101-.0164.0208-.0329.0316-.0496l.0003-.0003c.0762-.1177.1603-.2477.1112-.4102-.1839.1858-.3429.3843-.4479.6249-.0763.1524-.178.292-.3368.3871-.0127.0254-.0508.0381-.0571.019-.0317-.0317-.0635-.0635-.0761-.1016.0116-.0348.019-.0738.0265-.1134.0129-.0687.0262-.1389.0625-.1913.2225-.4125.464-.8314.7055-1.2503.178-.292.4701-.3045.7621-.317.0381-.0127.0889.0128.1143.0255.1398.1137.2043.2726.2662.4248.0279.0688.0554.1363.0889.1976.0698.1461.0189.3111-.0891.4317-.1242.1736-.2319.3579-.3394.5418v.0001c-.1676.2867-.3347.5727-.563.8162-.0445.0571-.089.1142-.089.1777-.2892.8135-.3045.8416-.5742 1.3363-.0565.1036-.1241.2277-.2078.3838-.5847 1.0409-1.2837 1.9928-2.0144 2.9129-.3876.4887-.9464.6534-1.505.4372-.3681-.1526-.6982-.3814-.9646-.6736-.2602-.2732-.3996-.6288-.4438-1.0161-.0314-.5397-.0248-1.0921.0264-1.638 0-.0635-.0063-.1461-.0571-.1715-.0783-.0672-.1321-.011-.1872.0468l-.0003.0003c-.0073.0076-.0146.0152-.022.0226-.1462.1967-.2923.3935-.4194.5839-.0508.0592-.0791.1297-.1074.2003-.0141.0352-.0282.0705-.0452.1043-.1589.2856-.4066.495-.6607.6853.0824.3112-.0575.5904-.1974.8697-.0207.0414-.0406.0833-.0606.1253-.0901.1893-.1809.3801-.3524.5411-.0759.0757-.1276.1837-.184.3014-.0145.0301-.0293.061-.0448.0921-.1654.3935-.4005.768-.6928 1.0979-.0381.0444-.0715.0873-.1048.1301l-.0001.0001v.0001c-.0334.0428-.0667.0855-.1047.1299-.6353.6345-1.2067.5707-1.7841-.0202-.3146-.3089-.5585-.651-.7041-1.0332-.1368.2461-.2641.4952-.2816.7898-.1368.1682-.2355.3527-.3335.536l-.0001.0002h-.0001c-.1386.2593-.276.516-.5178.7204-.2541.1903-.4955.4187-.6735.7107-.3559.5839-.9274.8375-1.6004.8498-1.0921.0247-1.9743-.4013-2.6404-1.2588-.1523-.2032-.2283-.4319-.2853-.6668-.095-.4127-.1582-.8572-.1325-1.2889.0082-.1384.0156-.2773.0229-.4163l.0001-.0006v-.0006-.0005c.0329-.6193.066-1.2424.1752-1.8485.1286-.7003.219-1.4005.3097-2.1038v-.0001-.0001h.0001l.0001-.0009c.026-.2017.052-.4036.079-.6059.0128-.1523.0066-.2984.0003-.4444-.0063-.0825-.0888-.1397-.1333-.0826-.0352.0307-.0709.0602-.1064.0894-.1621.1339-.3183.2629-.4018.4817-.2417.6093-.5087 1.206-.8773 1.7518-.0762.0888-.108.184-.1398.2792-.0472.111-.0908.2238-.1345.3369-.1212.3135-.2432.629-.4441.9135-.0953.1587-.1589.3491-.2034.5332-.1359.5611-.3259 1.1009-.5156 1.6396-.1214.3451-.2428.6897-.3496 1.0391-.2481.8443-.6105 1.6631-1.0237 2.4565-.089.1777-.178.3554-.2225.5395-.14.4697-.4766.6663-.94.5454-.2984-.07-.584-.1654-.876-.2799-.2475-.1081-.3998-.2478-.4949-.4701-.1185-.3105-.1845-.6276-.2074-.956l-.0515.1217c-.0858.2031-.1717.4062-.2638.6061-.3688.7998-.7883 1.5741-1.4045 2.2023-.3304.3426-.7622.4439-1.2129.3611-.0698-.01-.1396-.0298-.2086-.0494h-.0001l-.0001-.0001h-.0001c-.1067-.0303-.2115-.06-.3117-.0524-.5968-.0131-.8505-.3942-1.047-.8577-.0317-.0953-.0634-.1906-.1395-.3557-.0354-.1066-.0641-.2237-.0867-.3472-.0502.0922-.1086.1998-.1782.3295-.5847 1.0409-1.2837 1.9928-2.0144 2.913-.3876.4886-.9464.6533-1.505.4371-.3681-.1526-.6981-.3813-.9646-.6736-.2602-.2731-.3996-.6287-.4438-1.0161-.0314-.5396-.0247-1.092.0264-1.638 0-.0635-.0063-.146-.057-.1714-.0784-.0673-.1321-.0111-.1873.0467-.0074.0077-.0148.0155-.0223.023-.1461.1967-.2923.3934-.4194.5838-.0508.0592-.0791.1298-.1073.2003-.0142.0353-.0283.0705-.0453.1044-.1589.2856-.4066.4949-.6607.6852.0824.3112-.0575.5905-.1973.8697-.0208.0415-.0407.0834-.0607.1253-.09.1893-.1808.3801-.3524.5411-.0759.0758-.1276.1837-.184.3013v.0001c-.0145.0302-.0293.061-.0448.0921-.1654.3936-.4005.768-.6928 1.098-.038.0443-.0714.0871-.1047.1299l-.0001.0002c-.0334.0428-.0667.0856-.1048.13-.6353.6345-1.2067.5707-1.7841-.0201-.6599-.648-1.0086-1.4419-.7921-2.4449.2801-1.1934.5602-2.3868 1.0307-3.5167.4515-1.06.96-2.0755 1.5701-3.0401.5592-.8632 1.2073-1.65 2.16-2.1574.4509-.2346.9018-.3423 1.3843-.3547.9079-.0057 1.7903.1027 2.5328.7444.018.0181.0381.0355.0586.0532l.0001.0001c.0875.0756.1815.1569.1506.3215-.0255.1142-.2351.1839-.4509.1076-.165-.0509-.311-.1081-.4252-.1971-.3808-.3176-.7935-.2227-1.1683-.0134-.4064.241-.8002.5201-1.1941.7993-.1842.1459-.3748.3362-.5019.5266-.1676.2814-.3512.5547-.5362.8302-.1447.2154-.2903.4321-.4297.6549-.6991 1.1424-1.2459 2.361-1.7419 3.6051-.3434.876-.5661 1.7964-.7254 2.7169-.0001.0635.0253.1397.057.1715.0444.0699.1143.0255.1651-.0126.2032-.0888.2922-.2665.3812-.4442.1246-.2249.2537-.4453.3826-.6653.2129-.3635.4252-.7259.6153-1.1054.3016-.5405.6756-1.0246 1.0506-1.5099.2018-.2613.4039-.5229.5952-.7938.0515-.0742.0932-.1548.1348-.235.0918-.177.183-.3528.3762-.4579-.1144.3428-.2816.645-.4667.9532-.192.2584-.3675.5387-.541.8157v.0001c-.0907.1448-.1808.2887-.2725.4281-.1878.2743-.3521.5669-.5166.86v.0001h-.0001c-.1971.3513-.3946.7032-.6336 1.0249-.1997.2742-.3871.5851-.2978.945.2533-.0936.3834-.3224.5134-.5513.0995-.1656.1983-.3335.2976-.5024.1861-.3165.3742-.6364.5731-.951.1176-.1866.2322-.3761.347-.5661.2641-.4367.5296-.8757.8351-1.287.3201-.4498.594-.9459.8651-1.437l.0007-.0012.0003-.0005c.046-.0834.092-.1667.1381-.2495.1652-.2666.159-.5396.0574-.527-.1053.021-.1603.1091-.2133.1938-.0268.043-.0532.0851-.0853.1172-.0528.0528-.1101.0924-.1682.1298.0935-.3378.2044-.6808.3212-1.0059.0318-.0952.0762-.1523.1715-.184.1143-.038.2286-.0761.2858-.1586.2542-.3173.5462-.2663.8572-.0947.0629.0315.1282.046.1914.06.0389.0086.077.017.1133.0291.2602.0827.368.2796.3933.5463.0883.8381-.001 1.6507-.3126 2.4314-.2544.6983-.3692 1.4347-.4395 2.1775 0 .0634.0253.1396.0571.1714.0888.0763.1714.0065.2349-.057.5146-.552.9277-1.1549 1.3281-1.7959.0619-.1016.123-.2054.1847-.3102l.0001-.0002v-.0001l.0001-.0002c.1156-.1964.2333-.3962.3616-.5905.0981-.1347.2198-.2575.4162-.2147.0459.1044.0059.2056-.0337.3059-.0148.0375-.0295.0748-.0397.1121-.017.0551-.0417.1079-.0665.1608-.0455.0974-.091.1948-.0881.3054.0664-.0454.099-.0644.1139-.0731.0087-.0051.0114-.0066.0112-.0079 0-.0005-.0006-.001-.0016-.0017-.0069-.0054-.0302-.0235.0563-.1803.3396-.6346.5628-1.0519.8515-1.5433.0111-.1347.0242-.2692.0388-.4035-.0594.0777-.1316.1468-.2225.2013-.0128.0253-.0509.038-.0572.019v-.0001c-.0317-.0317-.0635-.0635-.0761-.1016.0116-.0348.019-.0738.0265-.1133.013-.0687.0263-.139.0626-.1914.1216-.2256.249-.4531.379-.6816.0309-.2134.0636-.4268.0962-.6401v-.0001c.1181-.7364.2721-1.4548.4271-2.1778v-.0001c.0708-.3304.1419-.6617.2098-.9962.0636-.1904.1018-.3936.1019-.584.0067-.4889.2925-.7744.6292-1.0345.0127-.0042.0268-.0113.0409-.0183.0283-.0141.0565-.0282.0734-.0197.3047.0255.5777.1463.8506.2671.1777.089.2474.2986.2536.5081l.0026.0511c.0183.3591.0374.7339-.0477 1.0854-.3818 1.3965-.5795 2.8376-.7645 4.2533-.0894.7491-.147 1.53-.1093 2.2792.0125.1651.0251.3302.0949.4762.0253.0763.0952.0953.1396.0382.0193-.0233.0391-.0467.059-.0704.1051-.1248.2157-.2562.2905-.4055.2098-.3872.4132-.7934.5976-1.1933.2352-.5014.4593-1.0044.6834-1.5075.2242-.503.4483-1.006.6835-1.5074.1374-.3125.2908-.6227.4452-.9347.1027-.2077.2058-.4162.3049-.6267.0502-.1001.114-.1865.1852-.2645.1957-.8665.4169-1.7286.6696-2.58l.0248-.0898c.0889-.3204.1797-.6474.1219-.9958-.0253-.2032.1018-.3301.2732-.3871.2794-.1141.5779-.2346.8571.0322.3281.0171.5223.218.7194.4219.1004.1038.2015.2084.3214.2899.1206.108.1459.2477.0759.419-.1377.44-.2493.8871-.361 1.3347-.1462.5856-.2925 1.172-.498 1.7441-.0781.2176-.1244.4512-.1715.6887-.0257.1296-.0516.2604-.0831.3904-.0402.139-.0681.2798-.096.421-.0475.2392-.0952.4798-.2031.7153-.0355.0708-.0432.1632-.051.2578-.0035.0412-.0069.0827-.0127.1231.0063.0191.0444.0699.0697.0826.0445.0064.1016-.0126.1143-.038.0293-.0583.0578-.1187.0868-.1801.0592-.1254.1204-.2548.193-.3785.2606-.6156.5087-1.2694.744-1.8978.1971-.5523.4006-1.0855.6612-1.5742l.1907-.3808c.0382-.0762.089-.1777.1208-.2729.0001-.0635.0255-.1143.0509-.1651l.0191-.0063c.0508-.1016.1017-.2031.197-.2983.1709-.3946.3911-.7757.6079-1.1509.0413-.0714.0824-.1426.1231-.2137l.0145-.0346c.0765-.1825.1445-.3444.2461-.5176-.0127-.0381-.0063-.0825.0064-.1079.2099-.5776.6292-.971 1.0738-1.3517.0763-.0888.2033-.0887.3048-.0379.1528.0881.3091.085.4662.0818.0583-.0011.1166-.0023.175.0012.5904.0575 1.149.2102 1.4089.8643.0317.0953.0698.2096.0633.3175-.0078.1828-.0021.3646.0037.5471v.0001c.0084.2673.0169.536-.0172.8115-.0332.2564-.046.5129-.0589.7694v.0001c-.0193.3847-.0386.7694-.1264 1.1541-.0446.2158-.0733.4317-.102.6475-.0287.2159-.0574.4317-.102.6476-.091.3535-.1171.7164-.1432 1.0771v.0001c-.0268.3711-.0534.7399-.1502 1.0939-.0314.1297-.0123.2531.0061.3724.0077.0501.0153.0995.019.1483.0949.6032.3171.635.8061.3243.2033-.1523.4002-.3236.5654-.5267.1353-.177.2816-.3463.4281-.5158h.0001c.2527-.2922.5057-.5849.7028-.9183.0953-.1587.2161-.3047.4066-.368.007.1633-.0674.3007-.141.4368-.0581.1073-.1156.2137-.1325.3312l.019-.0063c.0161.008.0328.018.0504.0285.0379.0225.0796.0474.1274.0605l-.0128.0254c-.039-.0304-.084-.049-.1247-.0658-.0189-.0077-.0369-.0152-.053-.0232-.0572.0825-.1271.1904-.1779.2919-.0254.0508-.0255.1143-.0001.127.0522.0523.0872.01.1157-.0243.0062-.0074.012-.0144.0177-.0201.0381-.0444.0746-.0935.1111-.1427.0366-.0492.0731-.0984.1112-.1428l.0767-.0882c.3839-.4412.7393-.8496.9719-1.4032.0939-.2099.257-.3695.4206-.5296l.0001-.0001.0203-.0198c.0105-.1018.0271-.2058.0501-.3121v-.0001c.2801-1.1934.5602-2.3868 1.0307-3.5166.4514-1.06.96-2.0755 1.5701-3.0402.5592-.8631 1.2073-1.65 2.16-2.1573.4509-.2346.9017-.3423 1.3843-.3547.9079-.0058 1.7903.1027 2.5328.7444.018.0181.0382.0355.0587.0533.0874.0756.1815.1569.1505.3214-.0254.1143-.235.184-.4508.1077-.165-.0509-.311-.1081-.4253-.1971-.3807-.3177-.7935-.2227-1.1682-.0134-.4064.241-.8002.52-1.1939.7991l-.0002.0001c-.1842.1459-.3748.3363-.5019.5267-.1676.2813-.3512.5547-.5362.8301-.1447.2154-.2903.4321-.4297.6549-.6991 1.1424-1.2459 2.3611-1.7419 3.6052-.3434.8759-.5662 1.7964-.7255 2.7169 0 .0635.0254.1397.0571.1714.0444.0699.1142.0255.1651-.0126.2032-.0887.2922-.2664.3812-.4441.1246-.225.2537-.4454.3826-.6654.2129-.3635.4252-.7258.6153-1.1054.3016-.5405.6756-1.0245 1.0505-1.5098.2019-.2613.404-.5229.5953-.7939.0514-.0742.0932-.1547.1348-.2349v-.0001c.0918-.1769.183-.3528.3762-.4578-.1144.3428-.2816.645-.4667.9532-.192.2584-.3675.5387-.541.8157-.0907.1448-.1809.2887-.2725.4282-.1879.2743-.3522.567-.5167.8601-.1971.3512-.3946.7031-.6336 1.0248-.1997.2742-.3872.5852-.2978.9451.2533-.0937.3834-.3225.5134-.5513.0995-.1656.1983-.3336.2976-.5025l.0001-.0001c.186-.3165.3741-.6363.573-.9508.1175-.1866.2321-.3761.3469-.566l.0001-.0001v-.0001c.2641-.4367.5295-.8757.8351-1.287.3201-.4497.594-.9458.865-1.4369l.0606-.1095.0786-.1418c.1652-.2665.159-.5395.0574-.5269-.1053.021-.1603.1091-.2133.1938-.0269.0429-.0532.0851-.0853.1171-.0529.0528-.1102.0925-.1682.1299zm-.0551.065c.0148-.0101.03-.0201.0455-.0299l.0096-.0351-.035.0224c-.0071.014-.0137.0282-.0201.0426zm-.3398.4971c-.001.0083-.0017.0166-.0024.0251l-.0022.0011c-.0056.0026-.011.0053-.0164.008l-.0168.0088.01-.0306c.0096-.004.0188-.0081.0278-.0124zm0 0c.1759-.0848.2353-.2359.2953-.3887.0142-.0364.0285-.0728.0445-.1084-.1802.1228-.3146.2703-.3398.4971zm-23.9062 9.8945.0042.0273c-.0074-.002-.0148-.0038-.022-.0054l-.0033-.0073zm0 0c-.0207-.1309-.0417-.2236-.0578-.294-.0204-.0901-.0326-.1438-.0252-.1946.0109-.0749.0644-.1435.1966-.3132l.0118-.0152c.0138-.0138.0382-.0192.0682-.0214.0504-.037.115-.0677.1312-.0245.0751-.0169.0143.1354-.0395.1622-.0073.103-.0025.1807.0013.2442.011.1817.015.2475-.2866.4565zm-4.2373-.9168c.0064-.0143.0131-.0285.0201-.0426l.035-.0224-.0096.0351-.0233.0151zm-.3398.4971c.0252-.2267.1596-.3743.3398-.4971-.0159.0357-.0302.0721-.0445.1084-.06.1528-.1194.304-.2953.3887zm0 0c-.009.0043-.0182.0085-.0277.0124l-.0101.0306c.0115-.0062.0233-.0121.0354-.0179.0007-.0084.0014-.0168.0024-.0251zm32.7684-8.0812c-.0228.0246-.0356.0524-.0401.0865.0161-.0282.0282-.0576.0395-.0851zm-.264.301c.0458-.0765.1151-.121.191-.1506-.0299.0909-.1046.1356-.191.1506zm1.9686-3.4107c.0013-.0002.0026-.0004.0039-.0005.0046-.0005.0093-.0009.0141-.0013.0367-.0028.0733-.0056.048-.0818-.0159.0159-.027.0302-.0381.0444l-.0002.0003c-.0101.0129-.0201.0258-.0337.0399.0019-.0004.0039-.0007.006-.001zm-8.7399 6.936c-.0238-.0345-.0405-.0696-.0245-.1071.011.0347.0206.07.0245.1071zm.0209.0287c.0119.0017.0224.0039.0322.0059.0267.0055.0478.0098.0757.0005.032.0046.0574-.0105.0762-.0217.0048-.0028.0091-.0054.013-.0074.0021-.001.0042-.0019.0061-.0025-.0254-.0128-.0699-.0191-.0889-.0128zm7.6074-5.6698c.0092-.0003.0184-.0007.0276-.0014l-.0254-.0128zm-8.0929-.4555c.0025-.0599.0327-.1051.0701-.1384-.0023.0567-.0257.1028-.0701.1384zm.1585-.3037c-.0037.0509-.0216.1035-.069.1422.0014-.0587.0195-.1208.069-.1422zm.007-.0244c.2193-.0951.2841-.281.3528-.4785l.0082-.0236c-.2432.0742-.3602.2518-.361.5021zm-1.0304 1.9884-.0055.0072.0254.0127zm2.0428-3.5776.0215-.0114c.0693-.0368.1351-.0718.1616-.1529-.0928.0157-.152.0758-.1831.1643zm.2524-.2877c-.0029.0088-.0066.0174-.0109.0258.0038-.0086.0074-.0172.0109-.0258zm.225-.2462c-.033.0726-.098.1273-.1885.1508.0451-.0763.1134-.1211.1885-.1508zm.04-.044c.0064-.0033.0127-.0063.0187-.0091.0339-.0162.0597-.0285.0467-.0677-.0064-.019-.0445-.0064-.0445-.0064-.0097.0195-.0157.05-.0209.0832zm-2.6676 4.6198c-.0191.0698-.0445.1206-.07.1713l.0254.0128c.0191-.0698.0445-.1206.07-.1714zm-13.826 4.6324.0004-.0011c.0297-.078.0593-.1559.0876-.2341-.0666.3253-.13.6509-.1904.9765-.0253.1404-.0494.2796-.0721.4182-.164.3336-.3093.6841-.4389 1.0425-.0954.2476-.2182.4814-.341.7152-.0819.1559-.1638.3118-.2375.4717-.0127.0254-.0699.0444-.089.0508-.0017-.0054-.006-.0132-.011-.0223-.0127-.0233-.0298-.0547-.0206-.073.0143-.0524.027-.1055.0397-.1587.0382-.1595.0764-.319.1575-.457.0659-.1417.1244-.2872.183-.4331.1277-.318.2563-.638.4654-.9252.1334-.1713.1844-.3999.2226-.603.0529-.2639.1488-.5161.2443-.7674zm-6.1851 4.9882c-.0228.0245-.0356.0523-.0401.0864.0161-.0282.0282-.0576.0395-.0851zm-.264.301c.0458-.0766.1151-.1211.191-.1507-.0299.091-.1045.1357-.191.1507zm.857-2.1158c.0092-.0003.0184-.0008.0276-.0015l-.0254-.0127zm-7.6283 5.6411c-.0238-.0346-.0405-.0696-.0245-.1072.011.0348.0206.07.0245.1072zm.0209.0287c.0119.0017.0224.0038.0322.0058.0268.0055.0478.0099.0757.0006.032.0046.0574-.0106.0762-.0218.0074-.0043.0137-.0081.0191-.0099-.0254-.0127-.0698-.0191-.0889-.0128zm9.4812-4.462.0018-.0038c.0111-.0236.0211-.045-.022-.0567zm-.0054.0518-.0089.0067c-.0278.0206-.0599.0444-.006.0714.0107-.0213.0169-.0562.0149-.0781zm.0229.5734-.0127-.0381c-.0063-.0191-.0126-.0381-.0317-.0318 0 0-.0127.0254-.0064.0444-.0063.0445.019.0572.0508.0255zm1.9878-11.1984c-.0509.165-.1589.2856-.3303.2791-.4763.1585-.8316-.1465-.8441-.5655.002-.1236-.001-.2455-.0039-.3669v-.0002-.0002-.0002-.0002c-.007-.2964-.014-.5897.0492-.8958l.012-.0328c.0387-.1055.0708-.1929.1342-.2909.108-.184.2605-.2982.4954-.2282.1261.0281.2542.0427.3853.0576.1064.0121.2148.0244.3257.0444.4063.0764.5395.286.4821.686-.0256.2412-.0765.4698-.3369.5775-.146.0698-.1842.2094-.2224.3491-.0191.1333-.0827.2603-.1463.3872zm-11.972 8.9099c.0025-.06.0327-.1051.0702-.1384-.0024.0566-.0258.1028-.0702.1384zm.1585-.3037c-.0037.0508-.0215.1034-.069.1421.0014-.0586.0195-.1208.069-.1421zm.007-.0244c.2193-.0951.2841-.2811.3528-.4785l.0082-.0237c-.2432.0742-.3602.2519-.361.5022zm-1.0304 1.9884-.0055.0071.0254.0128zm2.0428-3.5776.0215-.0115c.0693-.0368.1352-.0717.1617-.1529-.0928.0157-.1521.0758-.1832.1644zm.2524-.2878c-.0029.0089-.0066.0174-.0109.0259.0038-.0087.0075-.0172.0109-.0259zm.225-.2462c-.0329.0726-.098.1273-.1885.1508.0451-.0763.1135-.121.1885-.1508zm.0401-.0439c.0063-.0033.0126-.0063.0186-.0092.0339-.0161.0597-.0284.0467-.0677-.0064-.019-.0445-.0063-.0445-.0063-.0097.0194-.0157.05-.0208.0832zm-2.7376 4.791v.0001l.0254.0127c.019-.0698.0445-.1206.0699-.1714l-.0254-.0127c-.0191.0698-.0445.1206-.0699.1713zm27.4776-8.1881-.0127.0254c-.3841.3022-.395.3382-.5115.7228l-.0002.0005c-.0106.0351-.0221.0731-.0349.1144l-.019.0064-.089.1777.0254.0127c.0191-.0698.0445-.1206.0826-.1968.1842-.0824.2795-.241.3495-.4124.0945-.1699.0991-.1826.1153-.2278.0111-.0307.0276-.0766.0818-.1975.0095-.0032.0127-.0095.0158-.0158.0032-.0064.0064-.0127.0159-.0159l.0763-.1523.0064-.0445-.0127.0254c-.0131.0477-.038.0895-.0606.1274-.0104.0175-.0204.0342-.0284.0503zm-1.6779 2.7798s.0191-.0063.0127-.0253c-.019.0063-.019.0063-.0127.0253zm.0127-.0253c.0945-.0472.1293-.133.167-.226.0131-.0322.0264-.0651.0428-.0977-.1371.0456-.1664.1579-.1986.2816-.0036.0139-.0073.0279-.0112.0421zm.2415-.3554-.019.0063c.0031.0095.0047.0143.0031.0175-.0015.0031-.0061.0046-.0152.0077l.0375-.0125zm.1335-.2984c-.127.0634-.1588.1587-.1335.2984.0572-.0825.1271-.1904.1335-.2984zm0 0s-.0063-.019.0127-.0253l.0128-.0254-.0064.0444z" fill="#f69709" fill-rule="evenodd"/></svg>